<ttFont>
<head>
    <!-- Most of this table will be recalculated by the compiler -->
    <tableVersion value="1.0"/>
    <fontRevision value="1.0"/>
    <checkSumAdjustment value="0x3a25585b"/>
    <magicNumber value="0x5f0f3cf5"/>
    <flags value="00000000 00000011"/>
    <unitsPerEm value="2048"/>
    <created value="Thu Aug 15 19:17:46 2019"/>
    <modified value="Fri Aug 16 02:18:55 2019"/>
    <xMin value="-507"/>
    <yMin value="-524"/>
    <xMax value="3521"/>
    <yMax value="2038"/>
<macStyle value="00000000 00000010"/>
    <lowestRecPPEM value="3"/>
    <fontDirectionHint value="2"/>
    <indexToLocFormat value="0"/>
    <glyphDataFormat value="0"/>
  </head>
          <CharString index="0">
            154 130 99 181 53 vhcurveto
            -4 -15 -6 -47 -14 vvcurveto
            -135 -9 67 -64 127 hhcurveto
            return
          </CharString>
          <CharString index="1">
            rmoveto
            -238 118 -143 179 return
          </CharString>
          <CharString index="2">
            rmoveto
            -40 callsubr
            23 callsubr
            endchar
          </CharString>
          <CharString index="3">
            -4 hvcurveto
            -395 -61 callsubr
            -29 77 -75 callgsubr
          </CharString>
          <CharString index="4">
            14 callsubr
            endchar
          </CharString>
          <CharString index="5">
            -234 -48 -30 callgsubr
            101 184 66 116 callgsubr
            return
          </CharString>
          <CharString index="6">
            rmoveto
            -24 callsubr
            98 callsubr
            return
          </CharString>
          <CharString index="7">
            rmoveto
            370 250 253 332 273 107 callsubr
            63 callsubr
            hvcurveto
            6 74 rmoveto
            -72 -39 71 150 hvcurveto
            255 1 87 424 172 callsubr
            endchar
          </CharString>
          <CharString index="8">
            rmoveto
            -503 -55 -11 -55 return
          </CharString>
          <CharString index="9">
            rmoveto
            -1103 hlineto
            -36 callsubr
            1158 -38 callsubr
            endchar
          </CharString>
          <CharString index="10">
            47 -19 callsubr
            -96 -452 rcurveline
            return
          </CharString>
          <CharString index="11">
            rmoveto
            -505 -55 -11 -55 47 -15 rlineto
            return
          </CharString>
          <CharString index="12">
            1825 -79 callgsubr
            return
          </CharString>
          <CharString index="13">
            rmoveto
            -88 -70 -68 -82 -80 return
          </CharString>
          <CharString index="14">
            19 callsubr
            endchar
          </CharString>
          <CharString index="15">
            rmoveto
            354 202 225 346 78 hvcurveto
            132 590 44 192 22 37 122 21 rlinecurve
            12 57 -380 0 -13 -57 rlineto
            118 -24 14 -36 -36 -190 -113 -580 rcurveline
            -269 -54 -147 -163 -214 hhcurveto
            -195 -122 130 331 70 hvcurveto
            141 666 20 93 -14 callgsubr
            endchar
          </CharString>
          <CharString index="16">
            -15 callsubr
            endchar
          </CharString>
          <CharString index="17">
            47 -18 11 -21 -13 -62 return
          </CharString>
          <CharString index="18">
            1497 rmoveto
            -206 -388 71 0 return
          </CharString>
          <CharString index="19">
            rmoveto
            -9 callsubr
            105 -12 callsubr
            endchar
          </CharString>
          <CharString index="20">
            -114 26 callsubr
            endchar
          </CharString>
          <CharString index="21">
            62 -62 82 50 callsubr
          </CharString>
          <CharString index="22">
            -169 -793 375 0 return
          </CharString>
          <CharString index="23">
            rmoveto
            597 hlineto
            38 177 rlineto
            -597 hlineto
            endchar
          </CharString>
          <CharString index="24">
            1528 rmoveto
            87 71 68 82 81 return
          </CharString>
          <CharString index="25">
            -111 -19 rlinecurve
            -12 -57 return
          </CharString>
          <CharString index="26">
            107 443 rlineto
            -52 hlineto
            return
          </CharString>
          <CharString index="27">
            rmoveto
            -452 -53 -11 -56 36 -10 54 -18 10 -17 8 -59 rlinecurve
            113 -969 -110 -89 -216 -123 -131 -66 rlinecurve
            -18 350 vlineto
            57 89 62 83 70 85 rrcurveto
            84 96 97 115 75 92 271 335 145 270 -3 143 -3 112 -77 70 -103 -1 -97 0 -78 -72 2 -102 3 -97 77 -75 95 1 20 0 20 3 17 6 -48 -151 -113 -177 -162 -210 rrcurveto
            endchar
          </CharString>
          <CharString index="28">
            1525 rmoveto
            268 134 return
          </CharString>
          <CharString index="29">
            664 0 12 57 -104 19 -18 return
          </CharString>
          <CharString index="30">
            -62 61 -82 -25 callsubr
            return
          </CharString>
          <CharString index="31">
            536 381 rlineto
            7 vlineto
            return
          </CharString>
          <CharString index="32">
            20 20 94 rlinecurve
            226 1064 20 93 25 21 115 19 rlinecurve
            12 57 -665 0 -12 -57 101 -19 17 -19 -20 -95 rlinecurve
            -102 -480 -468 0 102 480 20 92 24 21 112 20 rlinecurve
            11 57 return
          </CharString>
          <CharString index="33">
            rmoveto
            166 -539 -97 -458 -19 -90 -25 -22 -125 -20 rlinecurve
            -12 -57 690 0 13 57 -115 20 -19 144 callsubr
            51 callgsubr
            endchar
          </CharString>
          <CharString index="34">
            48 -18 11 -21 -14 -62 rlinecurve
            -271 -1273 return
          </CharString>
          <CharString index="35">
            -664 0 -12 -57 104 -20 18 -20 -19 -93 rlinecurve
            -227 -1064 -19 -91 -25 -22 -115 -20 rlinecurve
            -12 -57 return
          </CharString>
          <CharString index="36">
            1522 rmoveto
            -302 -180 -212 180 return
          </CharString>
          <CharString index="37">
            rmoveto
            95 77 72 87 -1 hvcurveto
            85 -69 66 return
          </CharString>
          <CharString index="38">
            rmoveto
            96 77 72 87 -1 hvcurveto
            85 return
          </CharString>
          <CharString index="39">
            -495 -46 callgsubr
            return
          </CharString>
          <CharString index="40">
            535 381 rlineto
            7 vlineto
            return
          </CharString>
          <CharString index="41">
            1197 rmoveto
            642 hlineto
            42 197 rlineto
            -642 hlineto
            return
          </CharString>
          <CharString index="42">
            1130 rmoveto
            107 88 83 103 98 -77 77 -101 return
          </CharString>
          <CharString index="43">
            1112 rmoveto
            302 180 212 -180 return
          </CharString>
          <CharString index="44">
            rmoveto
            169 94 75 113 111 return
          </CharString>
          <CharString index="45">
            1836 -62 callgsubr
            return
          </CharString>
          <CharString index="46">
            -4 274 -266 406 hhcurveto
            return
          </CharString>
          <CharString index="47">
            rmoveto
            61 -67 125 158 return
          </CharString>
          <CharString index="48">
            rmoveto
            -132 83 -118 188 -47 vhcurveto
            -202 -25 -100 -92 -116 vvcurveto
            -1 -94 68 -71 122 -33 rrcurveto
            -222 -17 -120 -69 -102 vvcurveto
            -133 207 -86 309 338 235 135 210 158 -110 109 -231 38 vhcurveto
            -182 30 rlineto
            -94 16 -30 28 35 vvcurveto
            33 25 25 48 10 vhcurveto
            -6 38 42 -3 46 hhcurveto
            328 -1 191 158 208 vvcurveto
            80 -29 76 -69 57 vhcurveto
            231 -37 22 105 -348 -12 rlineto
            27 -68 -86 16 -110 hhcurveto
            -326 -193 -148 -212 hvcurveto
            354 -77 rmoveto
            150 56 221 112 67 35 -62 -111 -154 -56 -219 -112 -66 -36 64 111 vhcurveto
            -266 -814 rmoveto
            74 48 55 87 21 vhcurveto
            171 -28 rlineto
            154 -26 46 -44 -70 vvcurveto
            -90 -100 -67 -158 -151 -97 74 101 vhcurveto
            endchar
          </CharString>
          <CharString index="49">
            376 0 140 659 rlineto
            127 152 callsubr
            return
          </CharString>
          <CharString index="50">
            rmoveto
            196 149 103 171 30 hvcurveto
            -65 hlineto
            -61 -21 -112 -40 -141 hhcurveto
            -141 -94 40 61 4 hvcurveto
            return
          </CharString>
          <CharString index="51">
            rmoveto
            435 206 434 297 177 102 -153 -278 9 vhcurveto
            51 -2 69 48 callgsubr
            return
          </CharString>
          <CharString index="52">
            119 565 160 callsubr
            -114 -537 rlineto
            -238 -50 95 -127 207 hhcurveto
            return
          </CharString>
          <CharString index="53">
            1149 rmoveto
            -77 callgsubr
            446 hmoveto
            -77 callgsubr
            return
          </CharString>
          <CharString index="54">
            -67 0 136 -297 210 0 255 297 rlineto
            return
          </CharString>
          <CharString index="55">
            827 61 callsubr
            79 callsubr
            return
          </CharString>
          <CharString index="56">
            -108 -89 -83 -105 -96 77 -77 103 hvcurveto
            return
          </CharString>
          <CharString index="57">
            861 1444 -37 callsubr
            return
          </CharString>
          <CharString index="58">
            298 -94 12 57 -249 225 return
          </CharString>
          <CharString index="59">
            -92 -24 -21 -115 -20 rlinecurve
            -12 -57 return
          </CharString>
          <CharString index="60">
            1544 rmoveto
            76 62 61 74 return
          </CharString>
          <CharString index="61">
            rmoveto
            -504 -48 -11 -55 47 -15 return
          </CharString>
          <CharString index="62">
            1589 rmoveto
            579 hlineto
            return
          </CharString>
          <CharString index="63">
            36 167 rlineto
            -579 hlineto
            return
          </CharString>
          <CharString index="64">
            rmoveto
            -459 -4 351 -216 348 hhcurveto
            154 226 37 94 135 hvcurveto
            89 418 18 87 24 24 105 19 rlinecurve
            12 56 -599 0 -12 -56 rlineto
            107 -19 14 -21 -18 -89 -89 -438 rcurveline
            -22 -26 -51 -12 -52 hhcurveto
            -173 -123 159 305 435 206 434 300 179 103 -153 -278 10 hvcurveto
            52 -2 68 399 rlineto
            60 -92 -181 55 -212 hhcurveto
            -499 -366 -318 -499 -4 hvcurveto
            endchar
          </CharString>
          <CharString index="65">
            rmoveto
            -455 -53 -12 -56 36 -10 rlineto
            53 -18 15 -17 3 -56 56 -816 rcurveline
            250 hlineto
            154 187 116 202 61 168 29 -557 rcurveline
            247 hlineto
            295 308 273 340 204 vvcurveto
            110 -78 72 -100 -98 -81 -70 -102 -97 75 -76 95 18 17 2 3 15 vhcurveto
            -59 -164 -129 -179 -149 -167 rrcurveto
            -38 841 -353 -54 8 -160 1 -176 -98 -226 -126 -192 rlinecurve
            endchar
          </CharString>
          <CharString index="66">
            1136 rmoveto
            232 123 166 220 5 hvcurveto
            -64 hlineto
            -102 -19 -103 -61 -164 hhcurveto
            -131 -91 60 84 6 1 7 1 6 hvcurveto
            -64 hlineto
            -11 -31 -7 -38 -39 vvcurveto
            -151 110 -127 182 vhcurveto
            return
          </CharString>
          <CharString index="67">
            -139 1179 -290 0 -630 -1154 -103 -189 -39 -33 -99 -17 rlinecurve
            -12 -57 399 0 12 57 -128 22 -17 38 91 177 rlinecurve
            97 192 418 0 19 -212 return
          </CharString>
          <CharString index="68">
            1365 1597 1444 rmoveto
            -1219 hlineto
            -102 -415 rlineto
            52 hlineto
            46 callsubr
            101 callsubr
            124 callsubr
            92 callsubr
            return
          </CharString>
          <CharString index="69">
            0 -81 callsubr
            -109 -266 -125 -91 -264 -14 rrcurveto
            -162 -7 135 640 147 -4 219 callsubr
            48 -71 17 -257 rlinecurve
            52 hlineto
            return
          </CharString>
          <CharString index="70">
            rmoveto
            -528 hlineto
            -12 -57 112 -13 29 -78 -23 -103 rlinecurve
            -189 -856 -47 -215 -30 -45 -119 -20 rlinecurve
            -12 -57 384 0 12 57 -119 22 return
          </CharString>
          <CharString index="71">
            -12 -57 104 -20 18 -20 -20 -93 rlinecurve
            -226 -1064 -20 -48 callsubr
            return
          </CharString>
          <CharString index="72">
            -86 63 -103 -86 -76 -38 -59 -39 hvcurveto
            -11 -45 rlineto
            6 16 27 5 25 hhcurveto
            51 43 -22 -41 -41 return
          </CharString>
          <CharString index="73">
            118 484 rlineto
            -52 hlineto
            -120 -285 -132 -113 -232 -15 rrcurveto
            -129 -6 return
          </CharString>
          <CharString index="74">
            rmoveto
            201 149 87 145 24 hvcurveto
            -66 hlineto
            -51 -19 -113 -35 -145 hhcurveto
            -144 return
          </CharString>
          <CharString index="75">
            1112 rmoveto
            303 180 212 -180 67 -3 callsubr
            return
          </CharString>
          <CharString index="76">
            0 -113 -383 rlineto
            51 hlineto
            85 37 32 18 97 hhcurveto
            332 hlineto
            return
          </CharString>
          <CharString index="77">
            -14 35 41 31 callgsubr
            45 119 19 44 callgsubr
            return
          </CharString>
          <CharString index="78">
            1494 rmoveto
            -378 -8 hlineto
            374 -380 rlineto
            67 hlineto
            return
          </CharString>
          <CharString index="79">
            rmoveto
            280 163 198 -163 63 0 -130 350 return
          </CharString>
          <CharString index="80">
            198 -134 61 0 -136 -106 callgsubr
            return
          </CharString>
          <CharString index="81">
            298 -199 0 -256 -298 rlineto
            return
          </CharString>
          <CharString index="82">
            -88 -71 -67 -84 -79 62 -62 83 hvcurveto
            return
          </CharString>
          <CharString index="83">
            496 334 365 464 return
          </CharString>
          <CharString index="84">
            339 hmoveto
            -97 callgsubr
            return
          </CharString>
          <CharString index="85">
            197 -134 62 0 -136 return
          </CharString>
          <CharString index="86">
            -24 -21 -115 -20 -12 -57 rcurveline
            return
          </CharString>
          <CharString index="87">
            -33 hhcurveto
            -48 -22 32 77 16 hvcurveto
            return
          </CharString>
          <CharString index="88">
            -15 rlineto
            -90 callsubr
            return
          </CharString>
          <CharString index="89">
            rmoveto
            115 -1181 267 0 530 1085 90 -1085 279 0 571 1141 105 209 47 28 96 16 rlinecurve
            12 57 -395 0 -12 -57 116 -13 13 -44 -86 -189 rlinecurve
            -366 -801 -57 828 -12 171 18 29 111 19 rlinecurve
            13 57 -655 0 -12 -57 111 -15 11 -82 -64 -139 rlinecurve
            -367 -810 -56 829 -9 154 23 45 118 18 rlinecurve
            12 57 -682 0 -13 -57 81 -14 31 -30 16 -169 rlinecurve
            endchar
          </CharString>
          <CharString index="90">
            rmoveto
            108 507 81 -1 211 -696 468 0 12 55 -51 25 -27 32 -69 216 rlinecurve
            -206 679 188 163 173 146 76 46 113 25 rlinecurve
            12 57 -437 0 -12 -57 117 -20 3 -49 -140 -139 rlinecurve
            -417 -410 -80 -1 103 486 19 92 24 22 109 19 rlinecurve
            11 57 -660 0 -13 -57 105 -20 17 -20 -19 -93 rlinecurve
            -227 -1064 5 callsubr
            660 0 12 57 -98 19 -16 21 20 93 rlinecurve
            endchar
          </CharString>
          <CharString index="91">
            251 1189 20 92 25 20 119 21 rlinecurve
            12 57 -672 0 -13 -57 rlineto
            101 -19 18 -32 -24 -116 -219 -1030 rcurveline
            -19 -92 -21 callsubr
            return
          </CharString>
          <CharString index="92">
            134 124 64 84 61 hvcurveto
            13 57 rlineto
            -19 -26 -33 -12 -33 hhcurveto
            -48 -22 32 77 15 hvcurveto
            161 752 -499 -56 8 callgsubr
            return
          </CharString>
          <CharString index="93">
            1636 624 190 rmoveto
            110 callgsubr
            return
          </CharString>
          <CharString index="94">
            1285 722 1019 -99 callsubr
            -97 callsubr
            return
          </CharString>
          <CharString index="95">
            -17 17 -23 -19 -93 rlinecurve
            -227 -1064 5 callsubr
            668 0 12 57 -105 20 -17 20 20 93 rlinecurve
            return
          </CharString>
          <CharString index="96">
            rmoveto
            184 155 87 102 62 hvcurveto
            12 58 rlineto
            138 callsubr
            -286 194 -155 235 hvcurveto
            endchar
          </CharString>
          <CharString index="97">
            167 360 -106 callsubr
            return
          </CharString>
          <CharString index="98">
            226 1064 19 92 25 21 115 20 rlinecurve
            12 57 -668 0 -13 -57 return
          </CharString>
          <CharString index="99">
            1227 1147 hmoveto
            -34 callsubr
            -16 callsubr
            return
          </CharString>
          <CharString index="100">
            -461 -3 345 -214 360 hhcurveto
            151 callsubr
          </CharString>
          <CharString index="101">
            rmoveto
            266 10 207 155 219 vvcurveto
            129 -81 80 return
          </CharString>
          <CharString index="102">
            1500 rmoveto
            612 -105 11 54 -582 246 rlineto
            return
          </CharString>
          <CharString index="103">
            -67 0 137 -388 219 0 297 388 rlineto
            return
          </CharString>
          <CharString index="104">
            0 -137 388 -220 0 -296 -388 rlineto
            return
          </CharString>
          <CharString index="105">
            1836 rmoveto
            -267 -134 -198 134 return
          </CharString>
          <CharString index="106">
            1425 rmoveto
            122 88 80 151 29 hvcurveto
            return
          </CharString>
          <CharString index="107">
            1652 903 -23 rmoveto
            496 334 return
          </CharString>
          <CharString index="108">
            1138 rmoveto
            103 83 80 98 94 -73 73 return
          </CharString>
          <CharString index="109">
            1693 816 113 callsubr
            return
          </CharString>
          <CharString index="110">
            765 469 -18 85 callsubr
            return
          </CharString>
          <CharString index="111">
            -11 -49 rlineto
            -57 44 78 -33 86 hhcurveto
            endchar
          </CharString>
          <CharString index="112">
            -19 -92 -25 -21 -114 -20 rlinecurve
            -12 -57 return
          </CharString>
          <CharString index="113">
            1138 rmoveto
            102 84 80 98 94 return
          </CharString>
          <CharString index="114">
            -205 0 -273 -350 rlineto
            endchar
          </CharString>
          <CharString index="115">
            40 -66 hhcurveto
            -12 hlineto
            -65 -62 -40 return
          </CharString>
          <CharString index="116">
            -65 -62 -40 -59 -13 hvcurveto
            -59 return
          </CharString>
          <CharString index="117">
            rmoveto
            -150 -183 -55 -41 -111 -21 rrcurveto
            -12 -57 408 0 13 57 -119 22 1 46 120 163 rlinecurve
            231 307 121 -358 40 -114 -16 -41 -109 -24 rlinecurve
            -11 -57 699 0 11 57 -79 30 -28 31 -48 144 rlinecurve
            -178 529 293 352 148 181 57 41 109 21 rlinecurve
            13 57 -408 0 -12 -57 119 -22 -1 -46 -120 -163 rlinecurve
            -221 -296 -117 348 -43 123 20 36 106 20 rlinecurve
            12 57 -704 0 -11 -57 rlineto
            84 -27 28 -34 48 -143 175 -520 rcurveline
            endchar
          </CharString>
          <CharString index="118">
            442 hlineto
            12 55 rlineto
            -54 21 -33 44 -60 179 -130 401 rcurveline
            202 60 142 119 196 vvcurveto
            237 -207 132 -417 vhcurveto
            -600 hlineto
            -12 -57 107 -18 17 -21 -20 -91 rlinecurve
            -227 -1070 -19 -90 -25 -22 -115 -18 rlinecurve
            -13 -57 663 0 12 57 rlineto
            -98 19 -16 20 20 94 98 460 rcurveline
            127 hlineto
            316 443 rmoveto
            -197 -124 -164 -243 -14 vhcurveto
            -62 -3 139 662 53 -2 rlineto
            148 -7 89 -106 -169 vvcurveto
            return
          </CharString>
          <CharString index="119">
            rmoveto
            -562 hlineto
            -12 -57 110 -22 21 -45 -33 -133 rlinecurve
            -209 -856 -53 -209 -29 -47 -124 -18 rlinecurve
            -12 -57 389 0 11 57 -117 18 -14 39 48 217 rlinecurve
            185 861 136 -1192 210 0 229 471 388 760 -184 -1045 -16 -88 -26 -22 -116 -19 rlinecurve
            -12 -57 665 0 12 57 -106 18 -14 21 16 90 rlinecurve
            191 1072 15 87 25 23 116 19 rlinecurve
            11 57 -577 0 -456 -966 rlineto
            endchar
          </CharString>
          <CharString index="120">
            12 57 rlineto
            -118 18 -19 24 19 89 80 373 rcurveline
            163 hlineto
            423 293 166 301 236 -168 180 -456 hvcurveto
            -608 hlineto
            -12 -57 rlineto
            107 -18 17 -22 -20 -91 -227 -1068 rcurveline
            -20 -90 -24 -23 -116 -18 -12 -57 rcurveline
            833 1378 rmoveto
            50 -2 rlineto
            151 -9 82 -113 -171 vvcurveto
            1 -264 -152 -178 -222 -12 -69 -3 rcurveline
            endchar
          </CharString>
          <CharString index="121">
            139 121 65 callsubr
            -24 -33 -12 -33 hhcurveto
            -48 -22 32 77 15 hvcurveto
            159 740 -239 0 -139 -119 rlineto
            71 -22 -87 68 -139 hhcurveto
            -313 -217 -297 -370 hvcurveto
            383 -45 rmoveto
            231 1 84 364 177 hhcurveto
            54 36 -30 -36 10 hvcurveto
            -106 -500 rlineto
            -131 -33 -63 -75 -67 hhcurveto
            -59 -34 49 128 hvcurveto
            return
          </CharString>
          <CharString index="122">
            rmoveto
            209 980 19 92 25 21 115 20 rlinecurve
            12 57 -668 0 -12 -57 104 -20 17 -19 -19 -94 rlinecurve
            -206 -968 -70 -330 -87 -165 -233 -142 rlinecurve
            15 -47 452 145 254 188 73 339 rlinecurve
            endchar
          </CharString>
          <CharString index="123">
            53 -37 rlineto
            -90 126 75 -29 102 hhcurveto
            -51 callgsubr
            -43 -68 -50 48 callsubr
            -88 55 556 558 12 56 -782 -31 callsubr
            endchar
          </CharString>
          <CharString index="124">
            rmoveto
            121 88 81 151 29 hvcurveto
            -64 hlineto
            -58 -13 -33 -24 -53 hhcurveto
            -31 -31 8 14 -39 hvcurveto
            -37 13 rlineto
            16 -47 -47 13 -52 hhcurveto
            -121 -90 -81 -151 -29 hvcurveto
            66 hlineto
            58 13 32 24 54 hhcurveto
            30 32 -9 -12 return
          </CharString>
          <CharString index="125">
            -111 -270 -143 -87 -285 -13 rrcurveto
            -179 -8 949 1324 12 55 -1092 0 -102 -415 rlineto
            52 hlineto
            122 252 92 75 269 14 rrcurveto
            186 9 -951 -1324 -11 -55 rlineto
            return
          </CharString>
          <CharString index="126">
            rmoveto
            184 154 86 103 64 hvcurveto
            12 58 rlineto
            148 callsubr
            -286 199 -154 226 vhcurveto
            167 977 rmoveto
            51 20 -39 -58 -130 -82 -153 91 callgsubr
            return
          </CharString>
          <CharString index="127">
            -64 hlineto
            -57 -14 -32 -24 -54 hhcurveto
            -30 -32 8 13 -39 hvcurveto
            -36 13 rlineto
            17 -47 -47 12 -53 117 callgsubr
            54 hhcurveto
            31 32 -9 -13 38 hvcurveto
            36 -12 rlineto
            -17 48 47 -13 52 hhcurveto
            return
          </CharString>
          <CharString index="128">
            rmoveto
            -504 -55 -11 -55 47 -19 callsubr
            -96 -453 rcurveline
            -233 -48 -30 callgsubr
            185 callsubr
            endchar
          </CharString>
          <CharString index="129">
            43 callsubr
            -14 -62 rlinecurve
            -157 -745 -57 -269 -41 -101 -174 -101 rlinecurve
            16 -52 350 78 215 138 71 337 rlinecurve
            endchar
          </CharString>
          <CharString index="130">
            14 -150 -28 -47 -132 -20 rlinecurve
            -12 -57 706 0 -25 callgsubr
            -817 294 rmoveto
            315 616 55 -616 rlineto
            return
          </CharString>
          <CharString index="131">
            1257 166 360 -106 callsubr
            -64 callgsubr
            return
          </CharString>
          <CharString index="132">
            rmoveto
            69 66 49 68 14 hvcurveto
            70 16 -46 -94 callgsubr
            -15 hvcurveto
            -68 -14 44 -49 69 hhcurveto
            373 hmoveto
            return
          </CharString>
          <CharString index="133">
            -534 rcurveline
            -189 -41 71 -86 156 hhcurveto
            139 123 64 84 62 hvcurveto
            112 callgsubr
            return
          </CharString>
          <CharString index="134">
            49 68 14 hvcurveto
            70 16 -45 49 -69 hhcurveto
            -13 hlineto
            -68 -67 -49 -70 -15 hvcurveto
            -68 -14 45 -49 69 hhcurveto
            return
          </CharString>
          <CharString index="135">
            82 242 87 hhcurveto
            44 24 -50 -106 1 hvcurveto
            -280 3 -82 -243 return
          </CharString>
          <CharString index="136">
            1497 rmoveto
            -207 -388 71 0 -76 callsubr
            return
          </CharString>
          <CharString index="137">
            rmoveto
            342 79 308 -79 10 48 -263 190 -43 0 return
          </CharString>
          <CharString index="138">
            1500 rmoveto
            41 195 -686 -246 -11 -54 rlineto
            return
          </CharString>
          <CharString index="139">
            233 49 -94 118 -200 hhcurveto
            -99 callgsubr
            return
          </CharString>
          <CharString index="140">
            rmoveto
            168 95 75 113 111 13 callgsubr
            return
          </CharString>
          <CharString index="141">
            280 117 236 205 -1 hvcurveto
            178 -1 return
          </CharString>
          <CharString index="142">
            61 -62 83 87 71 67 84 79 -61 62 -83 hvcurveto
            endchar
          </CharString>
          <CharString index="143">
            0 137 -388 220 0 296 388 rlineto
            return
          </CharString>
          <CharString index="144">
            -89 -96 -78 -72 -89 1 vhcurveto
            -83 69 -66 91 vhcurveto
            endchar
          </CharString>
          <CharString index="145">
            -90 -95 -78 -72 -89 1 vhcurveto
            -83 69 -66 91 vhcurveto
            endchar
          </CharString>
          <CharString index="146">
            rmoveto
            96 76 72 87 hvcurveto
            85 -1 -68 66 -90 hhcurveto
            -96 return
          </CharString>
          <CharString index="147">
            1557 rmoveto
            215 108 149 192 return
          </CharString>
          <CharString index="148">
            48 -263 190 -44 0 -343 -190 rlineto
            return
          </CharString>
          <CharString index="149">
            hvcurveto
            -67 hlineto
            -145 -37 112 -87 201 hhcurveto
            return
          </CharString>
          <CharString index="150">
            rmoveto
            -503 -55 -12 -55 47 -15 47 -18 11 -21 return
          </CharString>
          <CharString index="151">
            rmoveto
            63 callsubr
            192 callsubr
            endchar
          </CharString>
          <CharString index="152">
            1149 rmoveto
            97 78 75 92 88 -69 68 return
          </CharString>
          <CharString index="153">
            102 231 101 97 208 19 rrcurveto
            33 3 return
          </CharString>
          <CharString index="154">
            69 128 24 hvcurveto
            -66 hlineto
            -48 -11 -33 -21 return
          </CharString>
          <CharString index="155">
            -30 -59 1 rlinecurve
            -69 -63 25 66 -109 hvcurveto
            return
          </CharString>
          <CharString index="156">
            rmoveto
            650 hlineto
            29 132 rlineto
            -651 hlineto
            return
          </CharString>
          <CharString index="157">
            88 71 67 84 79 -62 62 -83 hvcurveto
            endchar
          </CharString>
          <CharString index="158">
            12 -44 40 -65 hhcurveto
            -13 hlineto
            -64 -63 -40 return
          </CharString>
          <CharString index="159">
            -90 -97 -79 -74 -94 -86 69 -69 91 hvcurveto
            return
          </CharString>
          <CharString index="160">
            365 464 98 callsubr
            return
          </CharString>
          <CharString index="161">
            355 hmoveto
            64 62 41 59 13 hvcurveto
            return
          </CharString>
          <CharString index="162">
            -33 7 11 -40 hvcurveto
            -38 12 rlineto
            13 return
          </CharString>
          <CharString index="163">
            -59 -13 hvcurveto
            -59 -12 45 -41 65 hhcurveto
            return
          </CharString>
          <CharString index="164">
            -73 73 -97 -103 -81 callgsubr
            return
          </CharString>
          <CharString index="165">
            rmoveto
            124 88 69 128 24 hvcurveto
            return
          </CharString>
          <CharString index="166">
            1872 -37 callgsubr
            return
          </CharString>
          <CharString index="167">
            1872 -35 callgsubr
            return
          </CharString>
          <CharString index="168">
            1492 -46 callsubr
            return
          </CharString>
          <CharString index="169">
            1149 rmoveto
            107 1 90 75 return
          </CharString>
          <CharString index="170">
            -273 192 -191 285 return
          </CharString>
          <CharString index="171">
            66 49 68 14 hvcurveto
            70 15 -45 return
          </CharString>
          <CharString index="172">
            64 84 62 hvcurveto
            11 57 rlineto
            -19 return
          </CharString>
          <CharString index="173">
            -13 rlineto
            -17 47 47 -13 53 hhcurveto
            return
          </CharString>
          <CharString index="174">
            rlinecurve
            12 57 -664 0 -12 -57 return
          </CharString>
          <CharString index="175">
            rmoveto
            66 62 41 59 12 hvcurveto
            59 return
          </CharString>
          <CharString index="176">
            rmoveto
            -90 64 -71 97 103 67 64 186 89 vhcurveto
            44 85 22 -64 rlineto
            -177 60 77 -94 147 hhcurveto
            133 103 66 90 45 hvcurveto
            11 57 rlineto
            -18 -21 -28 -11 -32 hhcurveto
            -57 -42 42 120 -40 hvcurveto
            -100 295 67 112 21 37 19 30 18 26 rlinecurve
            -71 16 62 -52 78 hhcurveto
            92 71 72 91 90 -65 71 -97 -103 -67 -66 -184 -89 hvcurveto
            -45 -90 -113 331 -430 -52 -11 -56 39 -10 56 -16 16 -19 21 -64 rlinecurve
            143 -420 -65 -108 -21 -36 -19 -31 -17 -25 rlinecurve
            71 -16 -62 52 -78 hhcurveto
            -92 -71 -73 -90 hvcurveto
            endchar
          </CharString>
          <CharString index="177">
            rmoveto
            359 257 189 285 163 -76 122 -172 118 hvcurveto
            -103 75 rlineto
            -120 84 -47 70 96 vvcurveto
            123 95 87 140 174 105 -142 -277 12 vhcurveto
            51 hlineto
            66 391 rlineto
            56 -81 -161 52 -194 hhcurveto
            -379 -221 -197 -267 -168 74 -111 170 -117 hvcurveto
            104 -75 rlineto
            125 -88 46 -73 -103 vvcurveto
            -135 -109 -80 -140 -175 -152 130 296 2 vhcurveto
            -52 hlineto
            -67 -411 rlineto
            -51 95 187 -42 187 hhcurveto
            return
          </CharString>
          <CharString index="178">
            rmoveto
            306 296 278 382 69 hvcurveto
            253 44 -91 135 -155 hhcurveto
            -134 -87 -132 -158 14 hvcurveto
            194 -26 61 -138 -34 -167 rrcurveto
            -159 -32 -105 -98 -123 hhcurveto
            -126 -52 82 150 31 hvcurveto
            14 69 47 195 13 59 rrcurveto
            226 48 -74 91 -198 hhcurveto
            -105 -101 -34 -39 -57 hvcurveto
            -12 -55 rlineto
            7 13 16 3 17 hhcurveto
            65 20 -44 -118 -25 hvcurveto
            -14 -69 -56 -232 -14 -70 rrcurveto
            -243 -52 112 -148 267 hhcurveto
            endchar
          </CharString>
          <CharString index="179">
            1497 794 -24 rmoveto
            354 202 225 346 78 hvcurveto
            132 590 44 192 22 37 122 21 rlinecurve
            12 57 -380 0 -13 -57 rlineto
            118 -24 14 -36 -36 -190 -113 -580 rcurveline
            -269 -54 -147 -163 -214 hhcurveto
            -195 -122 130 331 70 hvcurveto
            141 666 20 93 -14 callgsubr
            return
          </CharString>
          <CharString index="180">
            1657 933 -24 rmoveto
            426 351 332 473 381 -300 307 -380 -435 -342 -332 -473 -381 291 -307 389 hvcurveto
            1 48 rmoveto
            -358 -268 288 353 443 321 312 400 348 278 -288 -352 -443 -330 -313 -391 hvcurveto
            return
          </CharString>
          <CharString index="181">
            rmoveto
            168 -138 146 -292 21 vhcurveto
            266 12 240 94 1 226 rrcurveto
            202 -201 126 -407 vhcurveto
            -607 hlineto
            -13 -57 rlineto
            105 -20 18 -19 -20 -94 -227 -1064 rcurveline
            -19 -92 -21 callsubr
            196 callsubr
            endchar
          </CharString>
          <CharString index="182">
            1496 rmoveto
            -71 -387 88 0 301 379 rlineto
            8 vlineto
            -597 -364 rmoveto
            87 71 68 82 80 -62 62 -82 -88 -72 -67 -85 -78 63 -62 83 hvcurveto
            681 hmoveto
            87 71 68 82 80 -62 62 -82 -88 -71 -67 -85 -78 62 -62 83 hvcurveto
            return
          </CharString>
          <CharString index="183">
            136 callsubr
            422 -192 rmoveto
            402 170 543 266 105 callsubr
            -142 -83 122 269 vhcurveto
            endchar
          </CharString>
          <CharString index="184">
            rmoveto
            -134 -692 rlineto
            -230 -45 91 -106 199 hhcurveto
            157 138 78 87 79 hvcurveto
            11 56 rlineto
            -26 -37 -49 -10 -49 hhcurveto
            -95 -52 47 130 30 hvcurveto
            20 86 108 406 50 174 rrcurveto
            endchar
          </CharString>
          <CharString index="185">
            rmoveto
            68 67 49 68 14 hvcurveto
            70 15 -46 49 -68 hhcurveto
            -13 hlineto
            -69 -66 -49 120 callsubr
            69 64 callsubr
            -94 callgsubr
            -16 hvcurveto
            -68 -14 46 -49 68 hhcurveto
            endchar
          </CharString>
          <CharString index="186">
            rlineto
            47 -18 12 -21 -13 -62 -217 -1014 rcurveline
            -189 -41 71 -86 155 hhcurveto
            140 123 65 callsubr
            -23 -34 -12 -20 callsubr
            return
          </CharString>
          <CharString index="187">
            -55 hhcurveto
            -91 -1 -76 -61 -29 -220 rrcurveto
            58 hlineto
            81 16 28 30 41 hhcurveto
            30 26 -12 -20 33 hvcurveto
            28 -19 rlineto
            -28 44 46 -20 55 hhcurveto
            return
          </CharString>
          <CharString index="188">
            1494 rmoveto
            -344 -6 hlineto
            321 -382 rlineto
            71 hlineto
            384 388 rmoveto
            -334 -6 hlineto
            228 -382 rlineto
            65 hlineto
            return
          </CharString>
          <CharString index="189">
            -9 -46 rlineto
            3 5 23 3 11 hhcurveto
            56 34 -25 -41 -43 -37 -24 -61 -49 -42 17 20 -25 -17 callgsubr
            return
          </CharString>
          <CharString index="190">
            297 -94 12 57 -248 225 -43 0 -343 -225 rlineto
            140 -1170 -100 callsubr
          </CharString>
          <CharString index="191">
            -85 52 74 5 0 6 1 6 hvcurveto
            -55 hlineto
            -10 -27 -7 -33 -35 vvcurveto
            -133 1 101 -113 167 hhcurveto
            return
          </CharString>
          <CharString index="192">
            rmoveto
            141 141 67 99 58 hvcurveto
            12 57 rlineto
            -30 -31 -45 -19 -54 hhcurveto
            -84 -40 55 123 26 hvcurveto
            return
          </CharString>
          <CharString index="193">
            rmoveto
            -52 64 141 -47 143 hhcurveto
            330 168 158 194 hvcurveto
            1 195 callsubr
            return
          </CharString>
          <CharString index="194">
            1292 727 1019 rmoveto
            -68 callsubr
            -85 callsubr
            140 callsubr
            return
          </CharString>
          <CharString index="195">
            hlineto
            101 21 33 36 50 hhcurveto
            36 1 30 -14 40 -27 rrcurveto
            33 -22 52 -36 54 -25 65 1 rlinecurve
            return
          </CharString>
          <CharString index="196">
            750 1445 1 callgsubr
            440 0 7 39 -78 10 -19 14 12 54 rlinecurve
            return
          </CharString>
          <CharString index="197">
            1374 rmoveto
            73 57 52 73 73 -57 52 -73 -71 -58 -52 -73 -73 57 -52 72 hvcurveto
            return
          </CharString>
          <CharString index="198">
            1149 rmoveto
            108 1 90 75 33 104 callsubr
            100 callgsubr
            return
          </CharString>
          <CharString index="199">
            92 rlinecurve
            253 1190 32 -3 197 -18 64 -91 4 -238 rlinecurve
            52 hlineto
            return
          </CharString>
          <CharString index="200">
            hlineto
            49 12 31 21 55 hhcurveto
            32 32 -7 -12 40 hvcurveto
            38 -10 rlineto
            -15 50 48 -11 return
          </CharString>
          <CharString index="201">
            1522 rmoveto
            -303 -180 -212 180 -67 36 callsubr
            return
          </CharString>
          <CharString index="202">
            1138 rmoveto
            102 83 80 98 94 -73 73 -96 -103 -81 callgsubr
            return
          </CharString>
          <CharString index="203">
            rmoveto
            -500 -106 279 -177 325 hhcurveto
            184 callsubr
            endchar
          </CharString>
          <CharString index="204">
            -2444 rmoveto
            118 hlineto
            519 2444 rlineto
            -118 hlineto
            return
          </CharString>
          <CharString index="205">
            395 -271 266 -405 -497 -329 -366 -463 return
          </CharString>
          <CharString index="206">
            1961 rmoveto
            -90 -78 -38 -53 -50 hvcurveto
            -7 -35 rlineto
            15 26 return
          </CharString>
          <CharString index="207">
            1494 rmoveto
            -377 -8 hlineto
            373 -380 rlineto
            67 hlineto
            return
          </CharString>
          <CharString index="208">
            -254 -1190 -18 -90 -27 -22 -128 -20 rlinecurve
            -12 -57 return
          </CharString>
          <CharString index="209">
            -112 -110 -91 -82 -112 -101 81 -80 111 hvcurveto
            endchar
          </CharString>
          <CharString index="210">
            446 hmoveto
            97 78 75 92 88 -69 68 52 callsubr
            return
          </CharString>
          <CharString index="211">
            267 rrcurveto
            -64 hlineto
            -104 -22 -33 -37 -49 hhcurveto
            -37 -1 -30 15 return
          </CharString>
          <CharString index="212">
            142 84 -122 -269 -417 -177 -528 -260 return
          </CharString>
          <CharString index="213">
            1500 rmoveto
            42 195 -686 -246 -12 -54 rlineto
            return
          </CharString>
          <CharString index="214">
            -193 190 -284 -373 -247 -256 -328 return
          </CharString>
          <CharString index="215">
            67 0 -137 388 -219 0 -297 -388 rlineto
            return
          </CharString>
          <CharString index="216">
            hhcurveto
            -30 -26 12 20 -33 hvcurveto
            -27 18 rlineto
            29 -45 -46 18 return
          </CharString>
          <CharString index="217">
            rmoveto
            342 79 308 -79 11 41 callsubr
            endchar
          </CharString>
          <CharString index="218">
            1821 rmoveto
            -343 -6 hlineto
            351 -293 rlineto
            return
          </CharString>
          <CharString index="219">
            3 hvcurveto
            -55 hlineto
            -89 -18 -94 -54 -151 hhcurveto
            -121 return
          </CharString>
          <CharString index="220">
            145 callsubr
            -450 85 155 callsubr
            return
          </CharString>
          <CharString index="221">
            rmoveto
            -98 -386 93 0 340 379 rlineto
            7 vlineto
            return
          </CharString>
          <CharString index="222">
            1809 rmoveto
            66 62 41 59 12 hvcurveto
            60 13 return
          </CharString>
          <CharString index="223">
            1528 rmoveto
            88 70 68 82 81 -62 61 -82 return
          </CharString>
          <CharString index="224">
            54 151 hhcurveto
            121 84 -52 -74 -6 0 -6 return
          </CharString>
          <CharString index="225">
            -1 -68 66 -90 hhcurveto
            -96 -77 -18 callgsubr
          </CharString>
          <CharString index="226">
            -31 hvcurveto
            -11 -49 rlineto
            -57 45 78 -33 85 hhcurveto
            endchar
          </CharString>
          <CharString index="227">
            -70 -14 hvcurveto
            -68 -15 45 -49 69 hhcurveto
            372 hmoveto
            return
          </CharString>
          <CharString index="228">
            1215 1008 -18 133 callsubr
            return
          </CharString>
          <CharString index="229">
            1144 rmoveto
            186 164 105 220 return
          </CharString>
          <CharString index="230">
            -300 60 0 482 293 rlineto
            7 vlineto
            return
          </CharString>
          <CharString index="231">
            699 0 12 57 -118 21 -20 19 20 return
          </CharString>
          <CharString index="232">
            -19 18 -20 -20 -94 rlinecurve
            -251 -1180 return
          </CharString>
          <CharString index="233">
            -64 hlineto
            -171 -43 105 -103 197 hhcurveto
            endchar
          </CharString>
          <CharString index="234">
            -77 -72 -89 hvcurveto
            -83 1 68 -66 91 hhcurveto
            endchar
          </CharString>
          <CharString index="235">
            -84 122 269 402 170 543 return
          </CharString>
          <CharString index="236">
            rmoveto
            650 hlineto
            28 132 rlineto
            -650 hlineto
            return
          </CharString>
          <CharString index="237">
            rmoveto
            -83 70 -65 86 89 73 67 84 65 -42 56 -58 21 vhcurveto
            13 38 42 8 42 hhcurveto
            175 69 -116 -197 -36 hvcurveto
            -13 -70 -183 -21 rlineto
            -334 -41 -140 -117 -170 vvcurveto
            -137 113 -94 167 177 134 92 247 49 vhcurveto
            -222 19 188 -117 189 hhcurveto
            183 145 86 100 66 hvcurveto
            12 57 rlineto
            -45 -44 -79 -36 -81 hhcurveto
            -156 -88 120 233 hvcurveto
            4 vlineto
            46 5 387 47 127 92 2 150 rlinecurve
            151 1 -150 84 -196 hhcurveto
            -132 -115 -41 -82 -99 hvcurveto
            82 -74 -105 41 -147 hhcurveto
            -250 -167 -103 -148 hvcurveto
            1080 180 rmoveto
            63 18 -79 -71 -5 hvcurveto
            -6 -115 -63 -109 -179 -24 -34 -4 rcurveline
            216 13 83 186 110 hhcurveto
            -847 -707 rmoveto
            105 70 110 165 31 vhcurveto
            56 8 -18 -97 rlineto
            -148 -27 -63 -119 -90 hhcurveto
            -55 -38 37 73 hvcurveto
            endchar
          </CharString>
          <CharString index="238">
            rmoveto
            -1060 hlineto
            -773 -1144 -131 -195 -53 -33 -95 -15 rlinecurve
            -12 -57 403 0 12 57 -124 21 -9 44 113 175 rlinecurve
            203 313 412 0 -81 -411 -20 -101 -23 -22 -127 -19 rlinecurve
            -12 -57 1137 0 107 443 rlineto
            -51 hlineto
            -109 -263 -115 -93 -247 -14 rrcurveto
            -159 -8 126 639 132 -3 120 -7 24 -50 -3 -167 rlinecurve
            50 hlineto
            102 509 rlineto
            -51 hlineto
            -57 -154 -44 -50 -126 -7 rrcurveto
            -134 -4 119 608 145 -8 236 -14 40 -70 16 -258 rlinecurve
            52 hlineto
            -964 346 rmoveto
            69 hlineto
            -136 -685 rlineto
            -377 hlineto
            endchar
          </CharString>
          <CharString index="239">
            1479 626 190 rmoveto
            108 507 81 -1 211 -696 468 0 12 55 -51 25 -27 32 -69 216 rlinecurve
            -206 679 188 163 173 146 76 46 113 25 rlinecurve
            12 57 -437 0 -12 -57 117 -20 3 -49 -140 -139 rlinecurve
            -417 -410 -80 -1 103 486 19 92 24 22 109 19 rlinecurve
            11 57 -660 0 -13 -57 105 -20 17 -20 -19 -93 rlinecurve
            -227 -1064 5 callsubr
            660 0 12 57 -98 19 -16 21 20 93 rlinecurve
            return
          </CharString>
          <CharString index="240">
            rmoveto
            130 103 70 85 43 hvcurveto
            12 57 rlineto
            -17 -19 -24 -10 -29 hhcurveto
            -49 -38 40 123 -40 hvcurveto
            -131 404 77 57 149 106 81 38 106 26 rlinecurve
            9 46 -448 0 -9 -46 120 -17 23 -42 -113 -97 rlinecurve
            -331 -282 207 969 -504 -48 -11 -55 47 -15 -73 callsubr
            375 0 97 454 52 40 63 -214 rlineto
            -196 54 79 -102 145 hhcurveto
            return
          </CharString>
          <CharString index="241">
            63 callgsubr
            46 -18 12 -21 -14 -62 rlinecurve
            -231 -1088 -15 -66 -20 -20 -103 -22 rlinecurve
            -12 -57 640 0 12 57 rlineto
            -124 24 -15 20 14 70 79 384 rcurveline
            -60 26 83 -56 123 hhcurveto
            312 218 297 371 hvcurveto
            -384 44 rmoveto
            -230 -84 -364 -178 23 callgsubr
          </CharString>
          <CharString index="242">
            155 130 99 181 52 vhcurveto
            -3 -15 -6 -47 -14 vvcurveto
            -135 -9 68 -64 127 hhcurveto
            139 122 64 84 60 hvcurveto
            13 57 rlineto
            -19 -25 -34 -12 -32 hhcurveto
            -48 -23 32 77 17 hvcurveto
            260 1225 -503 -48 -12 -55 48 -19 callsubr
            -76 -361 rcurveline
            97 callgsubr
            return
          </CharString>
          <CharString index="243">
            268 -126 206 -201 105 hvcurveto
            -8 44 48 -4 52 hhcurveto
            181 146 78 139 106 -72 90 -100 38 hvcurveto
            -55 hlineto
            7 -14 4 -27 -27 vvcurveto
            -164 -115 -147 -185 vhcurveto
            -106 -71 22 -127 hhcurveto
            -497 -329 -366 -464 -4 hvcurveto
            return
          </CharString>
          <CharString index="244">
            rmoveto
            122 88 81 151 29 hvcurveto
            -65 hlineto
            -58 -13 -32 -24 -53 hhcurveto
            -31 -32 8 14 -39 hvcurveto
            -36 13 rlineto
            16 -48 -47 13 -52 hhcurveto
            -121 -89 -81 -151 -29 hvcurveto
            65 hlineto
            58 13 32 24 54 hhcurveto
            31 31 -9 -12 39 hvcurveto
            36 66 callsubr
            endchar
          </CharString>
          <CharString index="245">
            -52 -47 -83 -32 -77 hhcurveto
            -138 -110 98 236 257 112 208 176 32 31 -8 -13 27 hvcurveto
            -1 -1 0 0 hhcurveto
            -89 -67 -69 -85 -88 69 -65 86 90 73 67 94 132 -113 121 -231 -336 -245 -257 -350 return
          </CharString>
          <CharString index="246">
            rmoveto
            208 980 20 92 24 21 115 20 rlinecurve
            12 57 -667 0 -12 -57 104 -20 17 -19 -19 -94 rlinecurve
            -206 -968 -70 -330 -88 -165 -233 -142 rlinecurve
            16 -47 451 145 255 188 73 339 rlinecurve
            endchar
          </CharString>
          <CharString index="247">
            141 657 rlineto
            125 28 78 87 82 hhcurveto
            74 27 101 callgsubr
            140 122 64 84 62 hvcurveto
            112 callgsubr
            88 409 rlineto
            232 49 -94 119 -200 hhcurveto
            -173 -147 -100 -185 -62 hvcurveto
            return
          </CharString>
          <CharString index="248">
            rmoveto
            -495 -47 callgsubr
            -169 -793 376 0 125 610 rlineto
            84 49 113 57 126 hhcurveto
            50 41 -7 -12 28 hvcurveto
            14 27 17 51 54 vvcurveto
            94 -38 66 -86 -111 -74 -104 -261 -121 vhcurveto
            return
          </CharString>
          <CharString index="249">
            -196 -676 -44 callgsubr
            -1077 -717 rmoveto
            10 callgsubr
            884 -740 rmoveto
            34 callsubr
            -80 callgsubr
            -118 -234 -207 2 hvcurveto
            -180 1 103 -160 195 hhcurveto
            return
          </CharString>
          <CharString index="250">
            -66 hlineto
            -48 -11 -32 -21 -55 hhcurveto
            -32 55 callsubr
            -48 -49 12 -54 hhcurveto
            -124 -88 -70 -128 -24 hvcurveto
            66 hlineto
            49 12 31 21 55 hhcurveto
            32 33 -7 -12 39 hvcurveto
            38 -10 rlineto
            -15 50 49 -11 53 hhcurveto
            endchar
          </CharString>
          <CharString index="251">
            21 19 91 rlinecurve
            97 457 385 525 121 166 40 34 98 16 rlinecurve
            11 57 -383 0 -12 -57 116 -17 10 -39 -107 -161 rlinecurve
            -295 -443 -119 467 -36 139 return
          </CharString>
          <CharString index="252">
            rmoveto
            400 -1 -314 228 -442 hhcurveto
            -582 hlineto
            -13 -57 rlineto
            105 -20 18 -20 -20 -93 -227 -1064 rcurveline
            -19 -92 -21 callsubr
            590 hlineto
            605 451 314 502 hvcurveto
            return
          </CharString>
          <CharString index="253">
            rmoveto
            204 126 94 103 76 hvcurveto
            13 57 rlineto
            -65 -66 -108 -41 -110 hhcurveto
            -101 -57 43 72 73 34 48 111 41 hvcurveto
            54 19 rlineto
            194 66 108 83 183 vvcurveto
            173 return
          </CharString>
          <CharString index="254">
            -66 hhcurveto
            -12 hlineto
            -65 -61 -40 -59 -14 hvcurveto
            -59 -12 44 -41 65 hhcurveto
            355 hmoveto
            65 62 41 59 12 hvcurveto
            59 12 -43 8 callsubr
            -59 -13 hvcurveto
            -59 -13 45 -41 65 hhcurveto
            endchar
          </CharString>
          <CharString index="255">
            -51 -46 -80 -33 -81 hhcurveto
            -137 -103 85 224 -7 hvcurveto
            59 17 rlineto
            346 94 151 81 162 vvcurveto
            135 -130 87 -212 -345 -254 -264 -344 return
          </CharString>
          <CharString index="256">
            15 65 -256 0 41 182 -381 -30 -33 -152 -136 0 -14 -65 137 0 -264 -1238 376 0 140 659 rlineto
            127 return
          </CharString>
          <CharString index="257">
            rmoveto
            -103 -73 -40 -78 -47 hvcurveto
            -9 -41 rlineto
            19 27 42 13 45 hhcurveto
            64 37 -26 -46 -47 -42 -48 -94 -45 hvcurveto
            58 hlineto
            189 -28 callgsubr
            return
          </CharString>
          <CharString index="258">
            173 149 33 58 89 hvcurveto
            88 413 -53 -1 rlineto
            -246 -88 -165 -179 -166 hhcurveto
            -177 -117 184 280 hvcurveto
            endchar
          </CharString>
          <CharString index="259">
            29 82 83 78 hhcurveto
            74 26 101 callgsubr
            141 122 65 callsubr
            -23 -34 -12 -20 callsubr
            87 409 rlineto
            return
          </CharString>
          <CharString index="260">
            -9 -46 rlineto
            3 4 24 3 11 hhcurveto
            56 33 -25 -41 -43 -37 -24 -60 -49 -42 17 20 -25 hvcurveto
            -12 -51 rlineto
            -66 42 80 -43 96 hhcurveto
            endchar
          </CharString>
          <CharString index="261">
            1557 rmoveto
            90 -24 callgsubr
            56 callgsubr
            -91 -1 -76 -61 -29 -220 rrcurveto
            58 hlineto
            81 17 27 30 41 hhcurveto
            31 return
          </CharString>
          <CharString index="262">
            rmoveto
            -387 -200 -425 -397 -22 vhcurveto
            -48 -2 280 1314 44 -2 rlineto
            207 -13 114 -200 -263 vvcurveto
            return
          </CharString>
          <CharString index="263">
            43 -33 164 24 90 51 20 93 rlinecurve
            90 19 -73 59 -114 hhcurveto
            -681 -568 rmoveto
            337 94 -49 callsubr
            return
          </CharString>
          <CharString index="264">
            hhcurveto
            415 hmoveto
            89 73 67 83 -1 hvcurveto
            79 -1 -64 62 -84 hhcurveto
            -90 -73 -67 -84 hvcurveto
            -78 1 64 -62 86 hhcurveto
            endchar
          </CharString>
          <CharString index="265">
            1513 rmoveto
            -118 -84 -49 -95 -54 hvcurveto
            -10 -49 rlineto
            24 28 49 15 50 hhcurveto
            73 40 -31 -55 -54 return
          </CharString>
          <CharString index="266">
            1513 rmoveto
            -117 -84 -49 -95 -54 hvcurveto
            -11 -49 rlineto
            24 29 48 15 50 hhcurveto
            111 callgsubr
            return
          </CharString>
          <CharString index="267">
            226 -15 22 103 -233 -18 52 252 -388 -50 -41 -196 -125 -38 -11 -53 117 0 return
          </CharString>
          <CharString index="268">
            -27 -31 -41 109 callsubr
            -56 hhcurveto
            -90 -1 -77 -61 -28 -220 rrcurveto
            57 hlineto
            81 17 28 30 return
          </CharString>
          <CharString index="269">
            rmoveto
            95 77 72 87 hvcurveto
            85 -1 -68 66 -90 hhcurveto
            -96 -78 -72 -89 1 hvcurveto
            -83 69 -66 91 vhcurveto
            endchar
          </CharString>
          <CharString index="270">
            1852 rmoveto
            -102 -74 -40 -78 -47 hvcurveto
            -8 -83 callgsubr
            64 37 -26 -46 -47 -41 -48 return
          </CharString>
          <CharString index="271">
            -13 -62 rlinecurve
            -59 callgsubr
            16 -52 351 78 214 138 71 337 rlinecurve
            endchar
          </CharString>
          <CharString index="272">
            443 1254 rmoveto
            -226 -1064 rlineto
            -20 -94 -24 -20 -115 -19 -12 -57 rcurveline
            return
          </CharString>
          <CharString index="273">
            19 31 33 46 hhcurveto
            33 29 -12 -24 37 hvcurveto
            31 -20 49 -32 50 -23 61 1 rlinecurve
            endchar
          </CharString>
          <CharString index="274">
            hvcurveto
            339 hmoveto
            76 62 61 74 71 -54 55 -71 -77 -62 -60 -75 -70 53 -56 73 hvcurveto
            return
          </CharString>
          <CharString index="275">
            1499 rmoveto
            -232 -123 -165 -221 -6 hvcurveto
            64 hlineto
            101 20 103 62 return
          </CharString>
          <CharString index="276">
            1305 rmoveto
            -118 126 -73 152 205 124 92 120 118 return
          </CharString>
          <CharString index="277">
            60 74 hvcurveto
            71 1 -54 55 -72 hhcurveto
            -76 -62 -60 -75 -1 hvcurveto
            -70 54 -55 72 vhcurveto
            return
          </CharString>
          <CharString index="278">
            57 hvcurveto
            -62 17 rlineto
            -185 -51 -130 -90 -149 hhcurveto
            -42 -37 6 12 -31 hvcurveto
            return
          </CharString>
          <CharString index="279">
            153 hhcurveto
            73 39 -70 -151 -1 hvcurveto
            -254 -1 -87 -425 -153 hhcurveto
            return
          </CharString>
          <CharString index="280">
            65 80 vvcurveto
            92 -69 65 -88 -98 -66 -74 -96 -131 109 -93 172 vhcurveto
            return
          </CharString>
          <CharString index="281">
            36 49 hhcurveto
            36 1 31 -14 40 -27 rrcurveto
            33 -22 52 -36 54 -25 65 1 rlinecurve
            return
          </CharString>
          <CharString index="282">
            -5 hvcurveto
            56 hlineto
            10 27 7 33 34 vvcurveto
            133 -1 -101 114 -167 hhcurveto
            return
          </CharString>
          <CharString index="283">
            rmoveto
            160 101 79 114 110 -91 70 -128 hvcurveto
            -4 -5 -1 -5 hhcurveto
            return
          </CharString>
          <CharString index="284">
            14 1 21 hhcurveto
            76 82 -40 -99 1 hvcurveto
            -105 1 -76 -71 -89 hhcurveto
            -34 -34 return
          </CharString>
          <CharString index="285">
            rmoveto
            -283 -36 131 -171 239 hhcurveto
            179 128 112 169 61 hvcurveto
            -167 -3 109 -114 179 hhcurveto
            329 229 310 335 39 hvcurveto
            254 30 -97 149 -157 hhcurveto
            -135 -87 -132 -159 15 hvcurveto
            172 -30 90 -127 -13 -175 rrcurveto
            -164 -10 -109 -111 -125 hhcurveto
            -140 -70 113 322 75 hvcurveto
            46 207 -306 0 -62 -296 rlineto
            -267 -57 -50 -79 -92 hhcurveto
            -104 -33 111 197 24 hvcurveto
            27 225 91 223 143 95 rrcurveto
            -27 44 -355 -40 -231 -247 -37 -304 rlinecurve
            endchar
          </CharString>
          <CharString index="286">
            366 463 176 -53 150 -96 113 hvcurveto
            167 157 -46 48 -167 -157 rlineto
            111 -118 -165 63 -198 hhcurveto
            -497 -329 -366 -463 -4 hvcurveto
            -2 -177 54 -150 96 -113 rrcurveto
            -166 -156 46 -48 166 156 rlineto
            -110 118 167 -63 197 hhcurveto
            182 1413 rmoveto
            127 81 -98 -216 15 hvcurveto
            -659 -620 rlineto
            401 3 170 533 263 hhcurveto
            -211 -1336 rmoveto
            -127 -80 98 215 -16 hvcurveto
            660 620 rlineto
            -415 -4 -175 -518 -258 hhcurveto
            endchar
          </CharString>
          <CharString index="287">
            rmoveto
            368 247 255 330 115 -34 101 -62 77 hvcurveto
            126 113 -43 48 -127 -114 rlineto
            76 -82 -114 44 -136 hhcurveto
            -370 -244 -257 -326 -118 36 -102 63 -79 hvcurveto
            -118 -106 43 -47 119 107 rlineto
            -74 82 113 -43 133 hhcurveto
            137 973 rmoveto
            75 39 -71 -154 hvcurveto
            -9 -1 -8 -8 vvcurveto
            -352 -318 rlineto
            252 20 84 316 135 hhcurveto
            -130 -900 rmoveto
            -75 -40 71 154 1 hvcurveto
            6 0 6 5 vvcurveto
            352 317 rlineto
            -249 -21 -83 -310 -134 hhcurveto
            endchar
          </CharString>
          <CharString index="288">
            rmoveto
            156 111 89 164 104 hvcurveto
            -172 13 71 -76 142 hhcurveto
            110 94 55 56 52 hvcurveto
            13 58 rlineto
            -9 -13 -28 -9 -27 hhcurveto
            -70 -52 23 217 -29 hvcurveto
            -16 124 327 507 rlineto
            -336 hlineto
            -14 -46 -35 -97 -37 -100 rrcurveto
            164 -39 -88 99 -182 hhcurveto
            -300 -207 -220 -338 -39 hvcurveto
            -319 -41 144 -170 216 hhcurveto
            78 536 rmoveto
            310 37 63 116 91 hhcurveto
            79 22 -92 -293 5 hvcurveto
            -4 -197 rlineto
            -149 -71 -64 -73 -74 hhcurveto
            -86 -33 101 277 35 hvcurveto
            endchar
          </CharString>
          <CharString index="289">
            141 660 rlineto
            122 28 72 87 76 hhcurveto
            70 21 -61 -96 -19 hvcurveto
            -151 -712 375 0 138 651 rlineto
            126 28 71 92 78 hhcurveto
            68 22 -61 -98 -20 hvcurveto
            -96 -451 rlineto
            -189 -40 70 -86 156 hhcurveto
            140 123 64 84 61 hvcurveto
            11 57 rlineto
            -19 -23 -34 -12 -20 callsubr
            88 409 rlineto
            233 50 -95 118 -194 hhcurveto
            -148 -149 -90 -180 -61 hvcurveto
            158 21 -85 112 -189 hhcurveto
            -165 -141 -98 -187 -60 hvcurveto
            58 277 -68 callsubr
            return
          </CharString>
          <CharString index="290">
            rmoveto
            249 212 97 168 109 hvcurveto
            10 58 rlineto
            -78 -78 -138 -52 -136 hhcurveto
            -135 -75 50 84 6 hvcurveto
            94 4 96 44 171 hhcurveto
            77 hlineto
            -31 227 rlineto
            -59 hlineto
            -182 -52 58 79 7 hvcurveto
            83 7 75 61 169 hhcurveto
            70 59 -10 -19 46 hvcurveto
            -58 -12 -45 -53 -68 vvcurveto
            -73 51 -58 91 75 60 60 80 111 -80 117 -330 -331 -198 -121 -179 -13 vhcurveto
            -11 -126 87 -89 170 -23 -215 -17 -127 -94 -9 -132 rrcurveto
            -166 -14 151 -101 265 hhcurveto
            endchar
          </CharString>
          <CharString index="291">
            354 204 225 346 76 hvcurveto
            186 847 28 -6 33 -4 34 1 rlinecurve
            165 2 112 78 130 vvcurveto
            105 -72 87 -94 37 vhcurveto
            -55 hlineto
            8 -14 4 -27 -26 vvcurveto
            -174 -112 -139 -214 vhcurveto
            -63 hlineto
            -11 -57 rlineto
            118 -24 12 -36 -32 -157 -125 -613 rcurveline
            -269 -55 -146 -163 -214 hhcurveto
            -194 -122 130 331 69 hvcurveto
            141 666 20 93 25 20 120 22 rlinecurve
            11 57 -669 0 -12 -57 101 -21 17 -20 -19 -94 rlinecurve
            return
          </CharString>
          <CharString index="292">
            100 184 66 hvcurveto
            -3 -14 -9 -50 -14 vvcurveto
            -136 -9 69 -65 127 hhcurveto
            128 127 58 74 65 hvcurveto
            12 58 rlineto
            -19 -26 -35 -11 -31 hhcurveto
            -48 -23 31 77 17 hvcurveto
            149 703 rlineto
            -2 17 19 -2 18 hhcurveto
            135 111 70 123 99 -68 85 -130 39 hvcurveto
            -50 hlineto
            12 -18 7 -34 -38 vvcurveto
            -154 -133 -114 -302 -33 vhcurveto
            -121 -13 -11 -54 41 -15 rlineto
            47 -19 12 -20 -14 -62 -96 -447 rcurveline
            -122 -28 -74 -84 -80 hhcurveto
            -77 -24 61 106 23 hvcurveto
            return
          </CharString>
          <CharString index="293">
            rmoveto
            -10 -55 -116 -35 -11 -53 114 0 -150 -946 -34 -214 -54 -98 -111 -10 rlinecurve
            45 23 30 47 54 vvcurveto
            79 -62 65 -77 -79 -65 -63 -82 -122 103 -90 148 270 216 171 626 104 vhcurveto
            97 575 231 -15 22 102 -245 -15 27 162 rlineto
            210 33 64 77 103 hhcurveto
            3 3 0 -1 3 hvcurveto
            -49 -22 -35 -51 -58 vvcurveto
            -79 64 -63 78 80 65 64 81 126 -125 92 -192 -242 -186 -162 -320 -60 vhcurveto
            endchar
          </CharString>
          <CharString index="294">
            rmoveto
            -105 79 -77 119 182 119 124 287 205 vhcurveto
            561 793 107 152 45 35 108 20 rlinecurve
            11 57 -396 0 -12 -57 133 -18 4 -35 -97 -148 rlinecurve
            -353 -535 -148 576 -30 119 6 25 134 16 rlinecurve
            13 57 -705 0 -12 -57 99 -21 20 -28 37 -121 rlinecurve
            298 -958 -65 -88 -59 -63 -69 -35 rlinecurve
            16 25 9 30 32 vvcurveto
            102 -79 78 -98 -103 -79 -82 -100 vhcurveto
            endchar
          </CharString>
          <CharString index="295">
            399 hlineto
            132 672 rlineto
            135 35 70 51 73 hhcurveto
            84 33 -66 -132 -27 hvcurveto
            -34 -159 -140 -644 -77 -317 rrcurveto
            404 hlineto
            10 47 206 1021 11 55 rrcurveto
            247 49 -97 117 -209 hhcurveto
            -186 -134 -106 -154 -59 hvcurveto
            169 20 -72 85 -158 hhcurveto
            -101 -101 -32 -39 -63 hvcurveto
            -12 -54 rlineto
            5 14 15 3 19 hhcurveto
            66 33 -38 -111 -23 hvcurveto
            -21 -104 -86 -382 -73 -269 rrcurveto
            endchar
          </CharString>
          <CharString index="296">
            rmoveto
            119 108 65 91 47 hvcurveto
            12 58 rlineto
            -17 -22 -23 -10 -31 hhcurveto
            -50 -35 28 85 -36 hvcurveto
            -181 434 64 62 25 26 21 22 19 19 rlinecurve
            -80 10 65 -62 82 hhcurveto
            91 75 73 91 -1 hvcurveto
            88 -1 -67 72 -95 hhcurveto
            -97 -53 -54 -116 -103 hvcurveto
            -316 -361 112 523 -504 -46 callgsubr
            -85 callsubr
            103 479 101 -258 rlineto
            -173 60 78 -66 137 hhcurveto
            endchar
          </CharString>
          <CharString index="297">
            664 hlineto
            12 57 -100 19 -18 20 19 94 rlinecurve
            11 49 656 821 -185 -870 -20 -94 -24 -20 -82 callsubr
            -78 callsubr
            19 20 67 callgsubr
            -12 -57 101 -19 17 -19 -20 -95 rlinecurve
            -10 -47 -656 -819 185 866 19 93 24 20 112 20 67 callsubr
            104 -20 18 -19 -20 -94 rlinecurve
            -226 -1064 -20 -93 -25 -20 -114 -20 rlinecurve
            endchar
          </CharString>
          <CharString index="298">
            rmoveto
            237 -117 143 -179 -147 -124 -89 -167 -54 vhcurveto
            158 721 -503 -48 -12 -55 48 -15 -73 callsubr
            238 0 140 118 rlineto
            -71 22 87 -68 139 hhcurveto
            313 217 297 371 hvcurveto
            -383 44 rmoveto
            -230 -84 -364 -177 -54 -36 28 37 -11 vhcurveto
            107 500 rlineto
            132 33 63 75 67 hhcurveto
            58 34 -50 -128 hvcurveto
            return
          </CharString>
          <CharString index="299">
            370 250 251 329 172 -81 139 -130 82 vhcurveto
            -14 51 61 -9 62 hhcurveto
            196 129 77 135 101 -68 86 -124 40 hvcurveto
            -50 hlineto
            12 -18 7 -34 -37 vvcurveto
            -154 -116 -120 -172 vhcurveto
            -82 -67 22 -102 hhcurveto
            -374 -249 -252 -332 hvcurveto
            372 -169 rmoveto
            255 1 87 424 66 callgsubr
            -72 -39 71 150 hvcurveto
            return
          </CharString>
          <CharString index="300">
            rmoveto
            104 89 52 75 45 hvcurveto
            11 55 rlineto
            -15 -18 -25 -9 -26 hhcurveto
            -71 -45 83 97 44 12 43 20 33 hvcurveto
            349 17 233 247 320 vvcurveto
            273 107 callsubr
            -257 171 -185 258 -20 vhcurveto
            -155 -81 -74 -98 -99 vvcurveto
            -105 87 -76 132 vhcurveto
            64 531 rmoveto
            -72 -39 71 150 hvcurveto
            255 1 87 424 66 callgsubr
            endchar
          </CharString>
          <CharString index="301">
            -4 -368 238 -257 363 -32 rrcurveto
            -159 -81 -71 -101 -98 vvcurveto
            -105 94 -74 132 96 84 46 81 36 vhcurveto
            11 55 rlineto
            -15 -14 -22 -10 -25 hhcurveto
            -69 -50 83 108 40 11 38 20 29 hvcurveto
            -24 77 rmoveto
            -141 128 callsubr
            266 105 callsubr
            hvcurveto
            endchar
          </CharString>
          <CharString index="302">
            135 -64 89 -116 69 -92 56 rcurveline
            -83 52 -34 44 64 vvcurveto
            71 49 46 89 134 76 -108 -163 7 vhcurveto
            52 hlineto
            48 264 rlineto
            39 -60 -117 38 -140 hhcurveto
            -300 -185 -134 -204 -133 72 -87 118 -71 hvcurveto
            91 -56 rlineto
            81 -51 27 -47 -65 vvcurveto
            -79 -63 -50 -89 -140 -104 107 203 -1 vhcurveto
            -52 hlineto
            return
          </CharString>
          <CharString index="303">
            592 hlineto
            510 343 151 298 hvcurveto
            -338 674 rmoveto
            -182 -114 -136 -199 -4 vhcurveto
            -88 -1 123 579 52 -3 rlineto
            143 -6 83 -96 -151 vvcurveto
            -98 -662 rmoveto
            -206 -126 -176 -281 -12 vhcurveto
            -52 -2 142 670 87 -3 rlineto
            138 -7 92 -101 -163 vvcurveto
            return
          </CharString>
          <CharString index="304">
            139 -1179 290 0 623 1140 110 203 39 33 99 17 rlinecurve
            12 57 -399 0 -11 -57 125 -21 18 -41 -96 -188 rlinecurve
            -446 -874 -82 907 -14 150 28 47 132 20 rlinecurve
            12 57 -706 0 -12 -57 83 -15 35 -30 21 -169 rlinecurve
            return
          </CharString>
          <CharString index="305">
            1483 489 rmoveto
            246 -228 128 -335 1 vhcurveto
            -152 1 82 390 20 91 27 20 123 21 rlinecurve
            12 57 -679 0 -12 -57 rlineto
            104 -20 18 -19 -20 -94 -226 -1064 rcurveline
            -20 -92 -21 callsubr
            694 hlineto
            448 295 182 307 hvcurveto
            return
          </CharString>
          <CharString index="306">
            688 0 12 57 -119 20 -22 21 20 91 rlinecurve
            107 504 129 -4 120 -6 24 -50 -2 -168 rlinecurve
            49 hlineto
            108 509 rlineto
            -49 hlineto
            -61 -154 -46 -51 -127 -7 rrcurveto
            -132 -4 131 621 134 -7 234 -14 49 -72 15 -257 rlinecurve
            53 hlineto
            endchar
          </CharString>
          <CharString index="307">
            rmoveto
            376 226 260 324 271 -200 193 -282 -376 -226 -260 -324 -270 200 -194 282 hvcurveto
            -4 74 rmoveto
            -74 -35 72 152 hvcurveto
            270 1 93 406 143 hhcurveto
            73 36 -71 -152 hvcurveto
            -270 -1 -93 -407 -143 hhcurveto
            endchar
          </CharString>
          <CharString index="308">
            1472 1492 449 rmoveto
            168 -138 146 -292 21 vhcurveto
            266 12 240 94 1 226 rrcurveto
            202 -201 126 -407 vhcurveto
            -607 hlineto
            -13 -57 rlineto
            105 -20 18 -19 -20 -94 -227 -1064 rcurveline
            -19 -92 -21 callsubr
            196 callsubr
            return
          </CharString>
          <CharString index="309">
            -457 -53 -12 -56 36 -10 rlineto
            54 -18 13 -17 4 -56 63 -816 rcurveline
            250 hlineto
            346 367 228 296 188 vvcurveto
            112 -80 71 -101 -97 -78 -70 -102 -97 77 -76 95 18 17 2 4 16 vhcurveto
            -57 -150 -117 -160 -172 -199 rrcurveto
            return
          </CharString>
          <CharString index="310">
            50 -16 rlineto
            41 -16 13 -22 -12 -61 -77 -363 rcurveline
            -321 -67 182 45 callgsubr
            -70 -12 -12 -38 hvcurveto
            -69 -330 rmoveto
            55 263 rlineto
            6 20 28 4 28 hhcurveto
            100 46 -64 -112 -151 -70 -190 -117 -90 -34 82 162 34 hvcurveto
            endchar
          </CharString>
          <CharString index="311">
            1855 rmoveto
            35 165 -694 -208 -9 -47 rlineto
            306 -235 rmoveto
            155 113 41 63 13 hvcurveto
            63 13 -94 41 -156 hhcurveto
            -63 hlineto
            -155 -113 -41 -63 -14 hvcurveto
            -63 -13 95 -41 155 hhcurveto
            53 39 rmoveto
            -23 hlineto
            -46 -20 26 39 return
          </CharString>
          <CharString index="312">
            1798 rmoveto
            125 87 47 callsubr
            -54 hhcurveto
            -32 -32 7 12 -41 hvcurveto
            -38 10 rlineto
            14 -49 -48 11 -54 hhcurveto
            -124 -88 -68 -129 -25 hvcurveto
            67 hlineto
            49 12 31 21 55 hhcurveto
            32 33 -7 -11 40 hvcurveto
            38 -11 rlineto
            -15 49 48 -11 54 hhcurveto
            return
          </CharString>
          <CharString index="313">
            2019 rmoveto
            -95 -80 -39 -51 -52 hvcurveto
            -7 -36 rlineto
            14 27 51 13 47 hhcurveto
            75 35 -27 -36 -8 hvcurveto
            -9 -38 -43 -29 -83 -13 rrcurveto
            44 -29 168 21 91 43 16 80 rlinecurve
            76 16 -77 51 -116 hhcurveto
            -92 -484 -33 callsubr
            return
          </CharString>
          <CharString index="314">
            0 123 1408 rmoveto
            70 64 callsubr
            48 -70 hhcurveto
            -11 hlineto
            -69 -66 -48 -70 -15 hvcurveto
            -68 -15 45 -49 69 hhcurveto
            373 hmoveto
            68 64 callsubr
            48 -68 hhcurveto
            -14 hlineto
            -67 -67 -48 -70 -15 hvcurveto
            -68 -14 45 -49 68 hhcurveto
            return
          </CharString>
          <CharString index="315">
            -54 rlineto
            287 -298 rmoveto
            164 121 55 84 18 hvcurveto
            84 17 -97 55 -163 hhcurveto
            -67 hlineto
            -164 -121 -55 -84 -18 hvcurveto
            -84 -18 98 -55 163 hhcurveto
            57 52 rmoveto
            -24 hlineto
            -47 -20 35 52 11 hvcurveto
            52 11 35 35 47 hhcurveto
            return
          </CharString>
          <CharString index="316">
            1499 rmoveto
            -232 -122 -165 -221 -6 hvcurveto
            63 hlineto
            101 21 102 62 164 hhcurveto
            131 91 -60 -84 -6 0 -7 -2 -6 hvcurveto
            64 hlineto
            12 31 7 38 38 vvcurveto
            152 -112 127 -181 vhcurveto
            return
          </CharString>
          <CharString index="317">
            -471 rmoveto
            92 88 37 63 69 hvcurveto
            12 55 rlineto
            -14 -26 -32 -9 -31 hhcurveto
            -64 -41 33 67 78 58 86 130 74 hvcurveto
            72 42 -64 0 -105 -47 rlineto
            -277 -131 -76 -75 -105 vvcurveto
            -89 80 -65 115 vhcurveto
            endchar
          </CharString>
          <CharString index="318">
            -384 -43 -134 -632 rlineto
            -118 -28 -69 -88 -82 hhcurveto
            -73 -19 61 102 21 hvcurveto
            151 718 -385 -41 -132 -637 rlineto
            -116 -28 -68 -87 -82 hhcurveto
            -73 -19 62 101 22 hvcurveto
            148 return
          </CharString>
          <CharString index="319">
            rrcurveto
            178 5 122 86 143 hhcurveto
            41 39 -8 -13 33 hvcurveto
            -67 -10 -52 -55 -73 vvcurveto
            -82 62 -63 82 82 64 65 82 138 -142 104 -239 -316 -232 -165 -281 -7 vhcurveto
            return
          </CharString>
          <CharString index="320">
            rmoveto
            -342 hlineto
            -8 -38 64 -13 12 -24 -18 35 callgsubr
            24 111 rlinecurve
            90 423 77 -602 133 0 140 288 2 40 callgsubr
            12 callgsubr
            return
          </CharString>
          <CharString index="321">
            778 1468 rmoveto
            -265 -9 -207 -155 -220 vvcurveto
            -128 81 -81 113 125 74 102 124 6 vhcurveto
            -92 11 -63 41 81 vvcurveto
            100 102 70 114 10 vhcurveto
            return
          </CharString>
          <CharString index="322">
            103 231 91 97 195 19 rrcurveto
            37 3 -253 -1190 -19 -90 -26 -22 -128 -20 rlinecurve
            -12 -57 698 0 12 57 rlineto
            -118 21 -20 19 20 92 108 return
          </CharString>
          <CharString index="323">
            0 -12 -57 rlineto
            154 -17 38 -49 -31 -146 -23 -97 -25 -108 -38 -134 -72 -299 -59 -231 -81 -134 rrcurveto
            106 -7 -76 64 -93 hhcurveto
            -115 -69 -87 -99 return
          </CharString>
          <CharString index="324">
            -98 -465 rcurveline
            -217 -46 83 -131 200 hhcurveto
            151 147 83 184 68 hvcurveto
            -170 -19 88 -97 185 hhcurveto
            155 152 95 192 63 hvcurveto
            -2 -15 return
          </CharString>
          <CharString index="325">
            hhcurveto
            -125 -88 -68 -129 -24 hvcurveto
            67 hlineto
            49 11 32 21 55 hhcurveto
            32 33 -7 -11 40 hvcurveto
            37 -11 rlineto
            -15 50 48 -11 54 hhcurveto
            -520 -299 30 callsubr
            return
          </CharString>
          <CharString index="326">
            124 -5 23 -51 -1 -168 rlinecurve
            49 hlineto
            107 509 rlineto
            -49 hlineto
            -61 -153 -46 -52 -131 -7 rrcurveto
            -148 -4 128 609 152 -8 242 -14 return
          </CharString>
          <CharString index="327">
            rmoveto
            280 117 237 205 -1 hvcurveto
            178 -1 -102 161 -196 hhcurveto
            -280 -117 -234 -206 1 hvcurveto
            -181 1 103 -160 195 hhcurveto
            return
          </CharString>
          <CharString index="328">
            -413 0 252 1183 19 92 22 22 108 16 rlinecurve
            12 57 -652 0 -12 -57 98 -16 16 -21 -19 -93 rlinecurve
            -252 -1183 -414 0 return
          </CharString>
          <CharString index="329">
            1660 rmoveto
            -92 -80 -44 -62 -53 hvcurveto
            -9 -42 rlineto
            17 return
          </CharString>
          <CharString index="330">
            1500 rmoveto
            611 -105 12 54 -582 246 rlineto
            return
          </CharString>
          <CharString index="331">
            1441 435 1173 rmoveto
            197 callsubr
            return
          </CharString>
          <CharString index="332">
            1430 rmoveto
            634 hlineto
            33 65 callgsubr
            -72 return
          </CharString>
          <CharString index="333">
            1197 rmoveto
            642 hlineto
            43 197 rlineto
            -642 hlineto
            return
          </CharString>
          <CharString index="334">
            -195 -1 -122 112 -9 244 rrcurveto
            -51 hlineto
            endchar
          </CharString>
          <CharString index="335">
            730 70 -2 rlineto
            149 -6 88 -88 -176 vvcurveto
            endchar
          </CharString>
          <CharString index="336">
            388 rmoveto
            -333 -6 hlineto
            227 -382 rlineto
            66 hlineto
            return
          </CharString>
          <CharString index="337">
            82 callgsubr
            -1 -127 67 -153 hhcurveto
            -204 return
          </CharString>
          <CharString index="338">
            98 -115 -202 10 hvcurveto
            50 hlineto
            49 300 -74 47 return
          </CharString>
          <CharString index="339">
            79 -10 -48 271 -191 45 0 351 191 rlineto
            return
          </CharString>
          <CharString index="340">
            52 hlineto
            39 266 -58 33 -124 39 -165 4 rlinecurve
            return
          </CharString>
          <CharString index="341">
            31 7 38 38 vvcurveto
            152 -111 127 -181 vhcurveto
            return
          </CharString>
          <CharString index="342">
            17 -52 350 78 214 138 72 337 rlinecurve
            endchar
          </CharString>
          <CharString index="343">
            -10 -26 hhcurveto
            -68 -51 87 114 45 14 43 24 32 hvcurveto
            return
          </CharString>
          <CharString index="344">
            -55 rmoveto
            265 10 208 155 219 vvcurveto
            129 return
          </CharString>
          <CharString index="345">
            hhcurveto
            -27 -13 17 43 10 hvcurveto
            79 374 -149 0 -80 return
          </CharString>
          <CharString index="346">
            rmoveto
            -215 -108 -150 -191 -4 hvcurveto
            56 hlineto
            89 return
          </CharString>
          <CharString index="347">
            -28 callsubr
            -204 0 -274 -350 rlineto
            endchar
          </CharString>
          <CharString index="348">
            rmoveto
            159 101 79 114 110 -90 70 -129 hvcurveto
            return
          </CharString>
        <CharString name=".notdef">
          2048 40 -494 rmoveto
          118 hlineto
          519 2444 rlineto
          -118 hlineto
          -108 97 callsubr
          -110 97 callsubr
          -109 97 callsubr
          -109 97 callsubr
          endchar
        </CharString>
        <CharString name=".null">
          0 endchar
        </CharString>
        <CharString name="A">
          1429 1306 271 -105 callsubr
        </CharString>
        <CharString name="AE">
          1930 2114 1444 131 callsubr
        </CharString>
        <CharString name="AEacute">
          1930 1542 -95 callsubr
          206 -381 131 callsubr
        </CharString>
        <CharString name="AEmacron">
          1930 1191 -45 callsubr
          35 167 rlineto
          -579 hlineto
          888 -312 131 callsubr
        </CharString>
        <CharString name="Aacute">
          1429 1084 -95 callsubr
          -144 -1554 -105 callsubr
        </CharString>
        <CharString name="Abreve">
          1429 1047 40 callsubr
          3 hvcurveto
          -56 hlineto
          -89 -17 -95 -54 -150 hhcurveto
          -121 84 callsubr
          259 -1286 -105 callsubr
        </CharString>
        <CharString name="Abreveacute">
          1429 1406 60 callsubr
          272 -247 -33 callsubr
          -98 35 51 2 42 callsubr
          296 -1264 -105 callsubr
        </CharString>
        <CharString name="Abrevecyrillic">
          1429 1015 90 callgsubr
          51 54 70 vvcurveto
          85 -64 62 -81 -90 -62 -65 -90 -115 92 -91 170 vhcurveto
          291 -1295 -105 callsubr
        </CharString>
        <CharString name="Abrevedotbelow">
          1429 1047 40 callsubr
          3 hvcurveto
          -56 hlineto
          -89 -17 -95 -54 -150 hhcurveto
          -121 84 callsubr
          259 -1286 rmoveto
          -40 callsubr
          23 callsubr
          -298 -699 71 callgsubr
        </CharString>
        <CharString name="Abrevegrave">
          1429 757 59 callsubr
          218 -502 -33 callsubr
          -98 35 51 2 42 callsubr
          296 -1264 -105 callsubr
        </CharString>
        <CharString name="Abrevehookabove">
          1429 1102 206 callsubr
          -98 35 51 2 42 callsubr
          296 -1264 -105 callsubr
        </CharString>
        <CharString name="Abrevetilde">
          1429 1201 -6 callgsubr
          -49 -49 -1 callgsubr
          49 -12 53 hhcurveto
          -191 -283 -33 callsubr
          -98 35 51 2 42 callsubr
          296 -1264 -105 callsubr
        </CharString>
        <CharString name="Acaron">
          1429 1311 -2 callsubr
          -68 0 136 -297 211 0 254 297 rlineto
          -73 -1565 -105 callsubr
        </CharString>
        <CharString name="Acircumflex">
          1429 778 -79 callsubr
          -27 callsubr
          591 -1254 -105 callsubr
        </CharString>
        <CharString name="Acircumflexacute">
          1429 1402 1852 -35 callgsubr
          -56 -263 rmoveto
          341 79 309 -79 10 41 callsubr
          618 -1276 -105 callsubr
        </CharString>
        <CharString name="Acircumflexdotbelow">
          1429 778 -79 callsubr
          -27 callsubr
          591 -1254 rmoveto
          -40 callsubr
          23 callsubr
          -298 -699 71 callgsubr
        </CharString>
        <CharString name="Acircumflexgrave">
          1429 753 1852 -37 callgsubr
          -110 -518 rmoveto
          341 79 309 -79 10 41 callsubr
          618 -1276 -105 callsubr
        </CharString>
        <CharString name="Acircumflexhookabove">
          1429 1379 99 callsubr
          -11 callgsubr
          -701 -462 rmoveto
          341 79 309 -79 10 41 callsubr
          618 -1276 -105 callsubr
        </CharString>
        <CharString name="Acircumflextilde">
          1429 1197 205 callsubr
          -519 -299 rmoveto
          341 79 309 -79 10 41 callsubr
          618 -1276 -105 callsubr
        </CharString>
        <CharString name="Acyrillic">
          1429 1306 271 -105 callsubr
        </CharString>
        <CharString name="Adblgrave">
          1429 867 -91 callgsubr
          268 -292 rlineto
          56 hlineto
          94 callgsubr
          116 -1250 -105 callsubr
        </CharString>
        <CharString name="Adieresis">
          1429 865 1544 rmoveto
          76 61 61 74 1 hvcurveto
          71 -48 callgsubr
          73 hhcurveto
          338 hmoveto
          76 62 61 74 -23 callgsubr
          103 -1273 -105 callsubr
        </CharString>
        <CharString name="Adieresismacron">
          1429 751 61 callgsubr
          63 41 59 12 hvcurveto
          59 12 -44 40 -66 hhcurveto
          -12 hlineto
          -65 -61 -40 -59 -13 hvcurveto
          -59 -13 44 -41 65 hhcurveto
          355 hmoveto
          65 62 41 59 12 hvcurveto
          59 12 -43 8 callsubr
          -59 -84 callgsubr
          130 -1280 -105 callsubr
        </CharString>
        <CharString name="Adotaccent">
          1429 1034 116 callsubr
          -25 callsubr
          272 -1257 -105 callsubr
        </CharString>
        <CharString name="Adotbelow">
          1429 1306 271 rmoveto
          -40 callsubr
          23 callsubr
          -298 -699 71 callgsubr
        </CharString>
        <CharString name="Adotmacron">
          1429 745 1817 49 callsubr
          73 callgsubr
          -52 -44 -62 1 hvcurveto
          -62 1 55 -44 69 hhcurveto
          268 -1274 -105 callsubr
        </CharString>
        <CharString name="Agrave">
          1429 1048 111 callsubr
          56 hlineto
          194 -1251 -105 callsubr
        </CharString>
        <CharString name="Ahookabove">
          1429 1082 163 callsubr
          -94 -45 hvcurveto
          58 hlineto
          188 -28 callgsubr
          224 -1581 -105 callsubr
        </CharString>
        <CharString name="Ainvertedbreve">
          1429 1055 1898 239 callsubr
          17 95 117 callsubr
          -2 -5 hvcurveto
          56 -73 callgsubr
          251 -1627 -105 callsubr
        </CharString>
        <CharString name="Alphagreek">
          1429 1306 271 -105 callsubr
        </CharString>
        <CharString name="Alphatonosgreek">
          1429 1306 271 rmoveto
          -40 callsubr
          14 -150 -28 -47 -132 -20 rlinecurve
          -12 -57 706 0 -25 callgsubr
          -940 1173 114 callsubr
          -212 -879 rmoveto
          315 616 55 -616 rlineto
          endchar
        </CharString>
        <CharString name="Amacron">
          1429 732 -45 callsubr
          -44 callsubr
          538 -1485 -105 callsubr
        </CharString>
        <CharString name="Aogonek">
          1429 1045 -478 rmoveto
          97 83 46 81 36 hvcurveto
          11 55 rlineto
          -15 -14 -21 236 callsubr
          303 hlineto
          -25 callgsubr
          -40 callsubr
          rlineto
          14 -150 -28 -47 -132 -20 -12 -57 rcurveline
          330 hlineto
          -164 -84 -74 -109 -106 vvcurveto
          -105 95 -74 131 vhcurveto
          -556 1043 rmoveto
          315 616 55 -616 rlineto
          endchar
        </CharString>
        <CharString name="Aring">
          1429 777 1715 rmoveto
          -107 113 -66 137 54 callgsubr
          50 callgsubr
          333 -1408 -105 callsubr
        </CharString>
        <CharString name="Aringacute">
          1429 1403 204 callsubr
          9 hvcurveto
          40 8 74 callgsubr
          276 -1298 -105 callsubr
        </CharString>
        <CharString name="Aringbelow">
          1429 1306 271 rmoveto
          -40 callsubr
          23 callsubr
          -609 -854 rmoveto
          -108 1 230 callsubr
          -123 -86 -108 3 hvcurveto
          218 -38 rmoveto
          95 -2 45 82 60 hhcurveto
          40 25 -26 -56 2 hvcurveto
          -95 1 -45 -83 -60 hhcurveto
          -40 -25 27 56 -1 hvcurveto
          endchar
        </CharString>
        <CharString name="Atilde">
          1429 1149 154 callsubr
          26 -12 -49 callgsubr
          157 -1286 -105 callsubr
        </CharString>
        <CharString name="B">
          1472 1492 449 74 callsubr
        </CharString>
        <CharString name="Bdotaccent">
          1472 1021 -83 callsubr
          -63 61 -81 -25 callsubr
          471 -1079 74 callsubr
        </CharString>
        <CharString name="Bdotbelow">
          201 callsubr
          -369 -595 -94 callsubr
          35 callsubr
        </CharString>
        <CharString name="Becyrillic">
          1448 1483 464 rmoveto
          239 -225 128 -335 vhcurveto
          -159 hlineto
          115 546 190 -6 277 -11 58 -65 5 -233 rlinecurve
          54 hlineto
          67 382 -1177 0 -12 -57 rlineto
          106 -21 18 -18 -19 -94 -227 -1064 rcurveline
          -19 -92 -25 -20 -117 -21 -12 -57 rcurveline
          697 hlineto
          437 303 167 297 hvcurveto
          -424 31 rmoveto
          -239 -143 -175 -248 -12 vhcurveto
          -67 -2 148 696 76 -2 rlineto
          146 -4 88 -87 -175 vvcurveto
          endchar
        </CharString>
        <CharString name="Betagreek">
          1472 1492 449 74 callsubr
        </CharString>
        <CharString name="Blinebelow">
          201 callsubr
          -693 -828 -84 callsubr
        </CharString>
        <CharString name="C">
          1396 664 518 -56 callsubr
          -7 callsubr
        </CharString>
        <CharString name="Cacute">
          1396 1208 -95 callsubr
          -910 -1307 -56 callsubr
          -7 callsubr
        </CharString>
        <CharString name="Ccaron">
          1396 1435 1836 rmoveto
          -267 -134 -199 134 -53 callsubr
          -839 -1318 -56 callsubr
          -7 callsubr
        </CharString>
        <CharString name="Ccedilla">
          1396 664 518 -56 callsubr
          -3 -432 303 -215 334 -25 rrcurveto
          -136 -144 -76 callgsubr
          -65 callgsubr
          -5 -1 -5 hhcurveto
          62 65 rlineto
          1 hlineto
          151 callsubr
        </CharString>
        <CharString name="Ccedillaacute">
          1396 1208 -95 callsubr
          -910 -1307 -56 callsubr
          -3 -432 303 -215 334 -25 rrcurveto
          -136 -144 -76 callgsubr
          -65 callgsubr
          -5 -1 -5 hhcurveto
          62 65 rlineto
          1 hlineto
          151 callsubr
        </CharString>
        <CharString name="Ccircumflex">
          1396 902 -79 callsubr
          -27 callsubr
          -175 -1007 -56 callsubr
          -7 callsubr
        </CharString>
        <CharString name="Cdotaccent">
          1396 1158 -83 callsubr
          -77 callsubr
          -494 -1010 -56 callsubr
          -7 callsubr
        </CharString>
        <CharString name="Checyrillic">
          1597 1054 189 rmoveto
          -20 -93 -31 -20 -133 -19 rrcurveto
          -12 -57 692 0 13 57 -104 19 -19 19 21 67 callgsubr
          -13 -57 rlineto
          101 -19 18 -19 -20 -95 -113 -534 rcurveline
          -24 -66 -67 -16 -86 hhcurveto
          -149 -66 97 198 43 hvcurveto
          60 282 20 90 21 24 106 16 rlinecurve
          12 57 -657 0 -11 -57 rlineto
          104 -18 17 -20 -19 -92 -50 -230 rcurveline
          -300 -64 151 -151 340 hhcurveto
          145 105 29 40 95 hvcurveto
          endchar
        </CharString>
        <CharString name="Chigreek">
          1383 333 302 10 callsubr
        </CharString>
        <CharString name="D">
          1626 2 callsubr
          endchar
        </CharString>
        <CharString name="Dbar">
          1626 197 708 rmoveto
          131 hlineto
          -111 -518 rlineto
          -19 -92 -21 callsubr
          590 hlineto
          605 451 314 502 400 -315 228 -442 hvcurveto
          -582 hlineto
          -13 -57 rlineto
          105 -20 18 -20 -20 -93 -103 -482 rcurveline
          -131 hlineto
          1033 129 rmoveto
          -387 -200 -425 -397 -22 vhcurveto
          -48 -1 137 642 210 0 13 64 -210 0 130 607 44 -2 rlineto
          207 -12 114 -201 -263 vvcurveto
          endchar
        </CharString>
        <CharString name="Dcaron">
          1626 1349 -62 callsubr
          276 -1020 113 callsubr
          endchar
        </CharString>
        <CharString name="Dcircumflexbelow">
          1626 2 callsubr
          -856 -1355 -28 callsubr
          7 callsubr
        </CharString>
        <CharString name="Dcommaaccent">
          1626 2 callsubr
          -619 -1361 -63 callsubr
          -87 63 -102 -86 -76 -38 -59 -39 hvcurveto
          -11 -45 rlineto
          6 16 27 5 25 hhcurveto
          51 43 -22 -41 -41 -41 -24 -63 -47 -40 15 21 -30 hvcurveto
          4 callsubr
        </CharString>
        <CharString name="Ddotaccent">
          1626 1072 -83 callsubr
          -77 callsubr
          621 -712 113 callsubr
          endchar
        </CharString>
        <CharString name="Ddotbelow">
          1626 2 callsubr
          -576 -1035 -94 callsubr
          -86 callsubr
        </CharString>
        <CharString name="Decyrillic">
          1485 636 950 rmoveto
          20 72 60 262 20 85 rrcurveto
          436 hlineto
          -277 -1294 rlineto
          -622 hlineto
          146 168 115 267 102 440 rrcurveto
          850 -875 rmoveto
          -183 hlineto
          252 1179 20 93 25 20 114 20 rlinecurve
          12 57 -1266 0 -11 -57 rlineto
          157 -18 36 -50 -34 -155 -13 -55 -24 -98 -18 -61 -101 -430 -122 -282 -156 -163 rrcurveto
          -137 hlineto
          -98 -417 rlineto
          57 hlineto
          257 120 78 85 255 hhcurveto
          589 hlineto
          254 53 -76 -266 9 hvcurveto
          56 hlineto
          endchar
        </CharString>
        <CharString name="Deltagreek">
          1421 61 hmoveto
          1242 hlineto
          10 50 -185 1396 -283 0 -774 -1396 rlineto
          101 21 rmoveto
          594 1097 112 -1097 rlineto
          endchar
        </CharString>
        <CharString name="Djecyrillic">
          1797 1811 442 rmoveto
          255 -182 134 -270 -136 -104 -25 -35 -87 vhcurveto
          81 callgsubr
          69 415 -1221 0 -102 -415 rlineto
          52 hlineto
          215 callsubr
          505 rcurveline
          22 61 59 11 75 hhcurveto
          130 71 -78 -149 -316 -157 -353 -298 -162 hvcurveto
          17 -48 rlineto
          513 123 324 302 396 vvcurveto
          endchar
        </CharString>
        <CharString name="Dlinebelow">
          1626 2 callsubr
          -899 -1268 -84 callsubr
        </CharString>
        <CharString name="Dzecyrillic">
          1193 595 -24 70 callsubr
          endchar
        </CharString>
        <CharString name="Dzhecyrillic">
          1626 165 callsubr
          536 hlineto
          127 17 -43 -289 -12 hvcurveto
          56 hlineto
          289 111 35 43 127 hhcurveto
          537 hlineto
          11 57 -104 20 -18 19 20 94 rlinecurve
          226 1064 -26 callgsubr
          -664 0 -11 -57 99 125 callsubr
          -458 0 251 1180 20 68 callgsubr
        </CharString>
        <CharString name="E">
          1267 1462 1444 -98 callsubr
        </CharString>
        <CharString name="Eacute">
          1267 1053 -95 callsubr
          43 -381 -98 callsubr
        </CharString>
        <CharString name="Ebreve">
          37 callgsubr
          446 -113 -98 callsubr
        </CharString>
        <CharString name="Ecaron">
          1267 1280 -62 callsubr
          114 -392 -98 callsubr
        </CharString>
        <CharString name="Ecedilla">
          1267 611 -461 176 callsubr
          78 81 1 8 492 -38 callsubr
          69 415 -1103 0 -36 callsubr
          602 0 -155 -165 153 callsubr
        </CharString>
        <CharString name="Ecedillabreve">
          37 callgsubr
          -405 -2018 176 callsubr
          78 81 1 8 492 -38 callsubr
          69 415 -1103 0 -36 callsubr
          602 0 -155 -165 153 callsubr
        </CharString>
        <CharString name="Ecircumflex">
          1267 747 -79 callsubr
          -22 callsubr
          -106 callgsubr
          778 -81 -98 callsubr
        </CharString>
        <CharString name="Ecircumflexacute">
          1267 1371 1852 rmoveto
          35 165 -694 -208 -10 -47 rlineto
          -56 -263 30 callsubr
          -344 -190 rlineto
          806 -103 -98 callsubr
        </CharString>
        <CharString name="Ecircumflexbelow">
          1267 1462 1444 rmoveto
          -1103 hlineto
          -36 callsubr
          1158 -38 callsubr
          -1054 -1483 -36 callgsubr
          -58 callgsubr
        </CharString>
        <CharString name="Ecircumflexdotbelow">
          1267 747 -79 callsubr
          -22 callsubr
          -106 callgsubr
          778 -81 rmoveto
          -1103 hlineto
          -36 callsubr
          1158 -38 callsubr
          -773 -1163 -94 callsubr
          -86 callsubr
        </CharString>
        <CharString name="Ecircumflexgrave">
          1267 722 25 callgsubr
          -344 -190 rlineto
          806 -103 -98 callsubr
        </CharString>
        <CharString name="Ecircumflexhookabove">
          1267 1348 99 callsubr
          49 12 46 hhcurveto
          71 32 -27 -35 -7 hvcurveto
          -9 -38 -42 0 callgsubr
          -344 -190 rlineto
          806 -103 -98 callsubr
        </CharString>
        <CharString name="Ecircumflextilde">
          1267 1166 1798 58 callsubr
          70 callgsubr
          -49 11 -53 218 callsubr
          -344 -190 rlineto
          806 -103 -98 callsubr
        </CharString>
        <CharString name="Ecyrillic">
          1401 666 518 rmoveto
          60 3 60 8 60 vhcurveto
          536 -16 23 104 -547 -14 rlineto
          336 61 180 279 238 hhcurveto
          177 102 -153 -278 9 hvcurveto
          52 -2 69 48 callgsubr
          -461 -4 345 -214 360 hhcurveto
          174 149 33 58 89 hvcurveto
          88 413 -53 -1 rlineto
          -246 -88 -165 -179 -167 hhcurveto
          -176 -117 184 280 hvcurveto
          endchar
        </CharString>
        <CharString name="Edblgrave">
          1267 836 -91 callgsubr
          267 -292 rlineto
          57 hlineto
          94 callgsubr
          303 -77 -98 callsubr
        </CharString>
        <CharString name="Edieresis">
          1267 833 -47 callsubr
          -23 callgsubr
          -23 callsubr
          290 -100 -98 callsubr
        </CharString>
        <CharString name="Edotaccent">
          1267 1003 -83 callsubr
          -77 callsubr
          459 -84 -98 callsubr
        </CharString>
        <CharString name="Edotbelow">
          1267 1462 1444 rmoveto
          -1103 hlineto
          -36 callsubr
          1158 -38 callsubr
          -773 -1163 -94 callsubr
          -86 callsubr
        </CharString>
        <CharString name="Efcyrillic">
          2044 179 666 rmoveto
          -265 226 -155 467 -21 vhcurveto
          -14 -65 -18 -86 -24 -23 -120 -17 rlinecurve
          -12 -57 660 0 12 57 rlineto
          -110 18 -18 20 18 88 14 64 rcurveline
          623 23 281 225 305 vvcurveto
          265 -227 156 -467 20 vhcurveto
          14 66 18 86 24 23 120 17 rlinecurve
          12 57 -660 0 -13 -57 rlineto
          111 -18 18 -20 -19 -88 -14 -65 rcurveline
          -622 -24 -280 -225 -304 vvcurveto
          440 -28 rmoveto
          258 139 207 307 40 vhcurveto
          -177 -840 rlineto
          -193 35 -76 130 170 vvcurveto
          1105 168 rmoveto
          -259 -139 -207 -309 -40 vhcurveto
          177 840 rlineto
          194 -34 77 -131 -169 vvcurveto
          endchar
        </CharString>
        <CharString name="Egrave">
          1267 1017 111 callsubr
          56 hlineto
          381 -78 -98 callsubr
        </CharString>
        <CharString name="Ehookabove">
          1267 1051 163 callsubr
          -95 -45 hvcurveto
          59 hlineto
          188 -28 callgsubr
          411 -408 -98 callsubr
        </CharString>
        <CharString name="Einvertedbreve">
          1267 1023 1898 rmoveto
          -215 -108 -150 -191 -3 hvcurveto
          56 hlineto
          89 17 94 54 152 hhcurveto
          120 85 -52 -74 -6 0 -6 -2 175 callsubr
          439 -454 -98 callsubr
        </CharString>
        <CharString name="Elcyrillic">
          1511 217 -24 rmoveto
          231 94 297 573 139 hvcurveto
          46 168 53 225 29 131 rrcurveto
          409 hlineto
          -251 -1180 -20 -94 -23 -20 -82 callsubr
          663 0 13 57 -104 19 -19 19 21 95 rlinecurve
          226 1064 20 94 25 20 114 19 rlinecurve
          12 57 -1239 216 callsubr
          -105 74 -75 119 hvcurveto
          endchar
        </CharString>
        <CharString name="Emacron">
          1267 701 -45 callsubr
          -44 callsubr
          725 -312 -98 callsubr
        </CharString>
        <CharString name="Emacronacute">
          1267 1375 60 callsubr
          -42 -197 129 callsubr
          769 -273 -98 callsubr
        </CharString>
        <CharString name="Emacrongrave">
          1267 726 59 callsubr
          -96 -452 129 callsubr
          769 -273 -98 callsubr
        </CharString>
        <CharString name="Emcyrillic">
          1856 949 1444 12 callsubr
        </CharString>
        <CharString name="Encyrillic">
          -14 callsubr
          -82 callsubr
          -78 callsubr
          -75 callsubr
          -72 callsubr
          664 -22 callgsubr
          endchar
        </CharString>
        <CharString name="Eogonek">
          1267 933 -478 rmoveto
          96 84 46 81 36 hvcurveto
          11 55 rlineto
          -15 -14 -21 -10 -27 hhcurveto
          -68 -50 87 114 45 14 43 23 32 hvcurveto
          193 hlineto
          -81 callsubr
          -109 -266 -125 -91 -264 -14 rrcurveto
          -162 -7 135 640 147 -4 219 callsubr
          49 -71 16 -257 rlinecurve
          52 hlineto
          69 415 -1103 0 -12 -57 rlineto
          104 -20 18 -20 -20 -93 -226 -1064 rcurveline
          -20 -92 -21 callsubr
          893 hlineto
          -164 -84 -74 -109 -106 vvcurveto
          -105 94 -74 132 vhcurveto
          endchar
        </CharString>
        <CharString name="Epsilongreek">
          1267 1462 1444 -98 callsubr
        </CharString>
        <CharString name="Epsilontonosgreek">
          1695 1891 1444 rmoveto
          -1103 hlineto
          -13 -57 105 -20 18 -20 -20 -93 rlinecurve
          -227 -1064 -19 -48 callsubr
          1158 0 -81 callsubr
          -110 -266 -124 -91 -265 -14 rrcurveto
          -161 -7 135 640 147 -4 123 -5 24 -51 -1 -168 rlinecurve
          48 hlineto
          108 509 rlineto
          -49 hlineto
          -62 -153 -45 -52 -131 -7 rrcurveto
          -149 -4 129 609 151 -8 243 -14 48 -71 17 -257 rlinecurve
          51 hlineto
          -1480 415 114 callsubr
          endchar
        </CharString>
        <CharString name="Ercyrillic">
          1443 731 hmoveto
          13 callsubr
        </CharString>
        <CharString name="Ereversedcyrillic">
          1440 405 1363 rmoveto
          -83 -358 rlineto
          53 hlineto
          252 94 156 136 164 hhcurveto
          206 90 -222 -285 -41 -2 -42 -4 -41 hvcurveto
          -536 17 -22 -105 549 12 rlineto
          -328 -51 -172 -308 -264 hhcurveto
          -208 -96 184 203 -4 hvcurveto
          -52 hlineto
          -52 -351 rlineto
          -59 74 161 -51 192 hhcurveto
          569 357 342 469 424 -319 257 -400 -150 -155 -36 -69 -95 hvcurveto
          endchar
        </CharString>
        <CharString name="Escyrillic">
          1396 664 518 -56 callsubr
          -7 callsubr
        </CharString>
        <CharString name="Etagreek">
          -14 callsubr
          -82 callsubr
          -78 callsubr
          -75 callsubr
          -72 callsubr
          664 -22 callgsubr
          endchar
        </CharString>
        <CharString name="Etatonosgreek">
          2070 1058 190 rmoveto
          110 callgsubr
          -82 callsubr
          -78 callsubr
          -75 callsubr
          -663 0 -13 -57 104 -20 18 -20 -19 -93 rlinecurve
          -226 -1064 -20 -91 -25 -22 -115 -20 rlinecurve
          -11 -57 663 -22 callgsubr
          -717 1254 114 callsubr
          endchar
        </CharString>
        <CharString name="Etilde">
          1267 1117 1557 rmoveto
          91 -24 callgsubr
          -18 -26 -31 -42 hhcurveto
          -30 -25 12 20 -34 hvcurveto
          -27 18 rlineto
          29 -45 -46 18 80 callsubr
          345 -113 -98 callsubr
        </CharString>
        <CharString name="Etildebelow">
          1267 1462 1444 rmoveto
          -1103 hlineto
          -36 callsubr
          1158 -38 callsubr
          -662 -1455 -43 callgsubr
          -30 -33 -46 hhcurveto
          -35 -1 -28 -86 callgsubr
          -51 21 -60 hhcurveto
          -100 -21 callgsubr
          166 callsubr
        </CharString>
        <CharString name="F">
          1225 1441 1444 rmoveto
          -1078 hlineto
          -11 -57 104 -20 17 -20 -19 -93 rlinecurve
          -227 -1064 -19 -48 callsubr
          199 callsubr
        </CharString>
        <CharString name="Fdotaccent">
          1224 1016 -83 callsubr
          -77 callsubr
          425 -84 rmoveto
          -1078 hlineto
          -11 -57 104 -20 17 -20 -19 -93 rlinecurve
          -227 -1064 -19 -48 callsubr
          199 callsubr
        </CharString>
        <CharString name="G">
          1563 228 651 -43 callsubr
        </CharString>
        <CharString name="Gacute">
          1563 1218 -95 callsubr
          -1356 -1174 -43 callsubr
        </CharString>
        <CharString name="Gammagreek">
          1198 1448 1444 rmoveto
          -1089 hlineto
          -12 -57 107 -21 18 -18 -19 -94 rlinecurve
          -227 -1064 -19 -92 -25 -20 -117 -21 rlinecurve
          -13 -57 694 0 12 57 -121 21 -22 20 19 91 rlinecurve
          252 1190 140 -7 251 -12 50 -64 3 -234 rlinecurve
          51 hlineto
          endchar
        </CharString>
        <CharString name="Gbreve">
          1563 1181 40 callsubr
          7 callgsubr
          -953 -906 -43 callsubr
        </CharString>
        <CharString name="Gcaron">
          1563 1445 -62 callsubr
          -1285 -1185 -43 callsubr
        </CharString>
        <CharString name="Gcircumflex">
          1563 912 -79 callsubr
          -22 callsubr
          -106 callgsubr
          -621 -874 -43 callsubr
        </CharString>
        <CharString name="Gcommaaccent">
          1563 228 651 rmoveto
          -459 -4 351 -216 348 hhcurveto
          154 226 37 94 135 hvcurveto
          89 418 18 87 24 24 105 19 rlinecurve
          12 56 -599 0 -12 -56 rlineto
          107 -19 14 -21 -18 -89 -89 -438 rcurveline
          -22 -26 -51 -12 -52 hhcurveto
          -173 -123 159 305 435 206 434 300 179 103 -153 -278 10 hvcurveto
          52 -2 68 399 rlineto
          60 -92 -181 55 -212 hhcurveto
          -499 -366 -318 -499 -4 hvcurveto
          567 -1111 -63 callsubr
          13 callgsubr
          4 callsubr
        </CharString>
        <CharString name="Gdotaccent">
          1563 1168 -83 callsubr
          -77 callsubr
          -940 -877 -43 callsubr
        </CharString>
        <CharString name="Geacutecyrillic">
          1192 1005 -95 callsubr
          76 -381 rmoveto
          -1089 hlineto
          -12 -57 104 -20 17 -19 -19 -94 rlinecurve
          -226 -1064 -20 -48 callsubr
          -9 callgsubr
        </CharString>
        <CharString name="Gecyrillic">
          1192 1447 1444 rmoveto
          -1089 hlineto
          -12 -57 104 -20 17 -19 -19 -94 rlinecurve
          -226 -1064 -20 -48 callsubr
          -9 callgsubr
        </CharString>
        <CharString name="Germandbls">
          1563 592 hmoveto
          289 1379 134 -7 rlineto
          194 -10 82 -97 -145 vvcurveto
          -148 -94 -92 -152 -14 vhcurveto
          -59 -276 rlineto
          158 -71 80 -110 -144 vvcurveto
          -135 -78 -81 -112 -116 -88 108 202 8 vhcurveto
          -53 hlineto
          -62 -301 rlineto
          -46 60 125 -36 134 hhcurveto
          288 244 162 290 206 -109 159 -186 84 hvcurveto
          210 11 164 90 177 vvcurveto
          182 -171 107 -344 vhcurveto
          -781 hlineto
          -12 -57 rlineto
          105 -20 19 -21 -20 -92 -225 -1064 rcurveline
          -18 -93 -25 -20 -115 -20 -12 -57 rcurveline
          endchar
        </CharString>
        <CharString name="Geupturncyrillic">
          1173 1409 1373 rmoveto
          105 445 rlineto
          -56 hlineto
          -284 -128 -101 -90 -263 hhcurveto
          -608 hlineto
          -12 -57 104 -20 17 -19 -20 -94 rlinecurve
          -225 -1064 -20 -48 callsubr
          693 0 12 57 rlineto
          -112 21 -34 20 19 91 252 1184 rcurveline
          endchar
        </CharString>
        <CharString name="Gmacron">
          1563 866 -45 callsubr
          -44 callsubr
          -674 -1105 -43 callsubr
        </CharString>
        <CharString name="H">
          -14 callsubr
          -82 callsubr
          -78 callsubr
          -75 callsubr
          -72 callsubr
          664 -22 callgsubr
          endchar
        </CharString>
        <CharString name="Hacyrillic">
          1383 333 302 10 callsubr
        </CharString>
        <CharString name="Hardsigncyrillic">
          1680 1752 489 rmoveto
          246 -229 128 -334 1 vhcurveto
          -154 1 83 390 20 91 26 20 124 21 rlinecurve
          12 57 -925 0 -90 -377 rlineto
          54 hlineto
          111 248 59 49 207 12 rrcurveto
          21 1 -253 -1188 rlineto
          -19 -91 -24 -21 -119 -20 -12 -57 rcurveline
          698 hlineto
          448 296 182 307 hvcurveto
          -424 36 118 callgsubr
          228 callsubr
        </CharString>
        <CharString name="Hbar">
          -14 callsubr
          -110 -19 rlinecurve
          -12 -57 663 0 12 57 -104 19 -18 19 20 95 rlinecurve
          180 846 130 0 14 62 -131 0 34 156 19 93 24 21 115 19 rlinecurve
          12 57 -663 0 -12 -57 101 -19 16 -19 -20 -95 rlinecurve
          -33 -156 -468 0 33 156 20 92 24 21 111 20 rlinecurve
          12 57 -663 0 -13 -57 105 -20 17 -20 -19 -93 rlinecurve
          -33 -156 -131 0 -13 -62 130 0 -180 -846 5 callsubr
          662 0 13 57 -100 19 -17 21 19 93 rlinecurve
          124 584 rmoveto
          56 262 468 0 -56 -262 rlineto
          endchar
        </CharString>
        <CharString name="Hbrevebelow">
          -14 callsubr
          -82 callsubr
          -78 callsubr
          -75 callsubr
          -72 callsubr
          664 -22 callgsubr
          130 -643 rmoveto
          216 114 150 198 3 hvcurveto
          -59 hlineto
          -91 -18 -95 -56 -153 hhcurveto
          -121 43 callgsubr
          103 -115 169 hhcurveto
          endchar
        </CharString>
        <CharString name="Hcaron">
          1636 1445 1835 -62 callgsubr
          -889 -1645 rmoveto
          110 callgsubr
          -82 callsubr
          -78 callsubr
          -75 callsubr
          -72 callsubr
          664 -22 callgsubr
          endchar
        </CharString>
        <CharString name="Hcedilla">
          1636 294 -461 rmoveto
          160 101 79 114 110 -91 70 -129 hvcurveto
          -3 -5 -1 -6 hhcurveto
          79 83 1 6 309 -22 callgsubr
          110 callgsubr
          -82 callsubr
          -78 callsubr
          -75 callsubr
          -72 callsubr
          289 0 -154 -165 -9 -46 rlineto
          3 5 24 3 11 hhcurveto
          56 33 -25 -41 -43 -37 -24 -60 -50 -41 17 20 -25 hvcurveto
          -12 -51 rlineto
          -66 41 81 -43 96 hhcurveto
          endchar
        </CharString>
        <CharString name="Hcircumflex">
          1636 912 -79 callsubr
          -22 callsubr
          297 -199 0 -255 -297 rlineto
          -225 -1335 rmoveto
          110 callgsubr
          -82 callsubr
          -78 callsubr
          -75 callsubr
          -72 callsubr
          664 -22 callgsubr
          endchar
        </CharString>
        <CharString name="Hdieresis">
          1636 998 1544 rmoveto
          76 62 60 74 1 hvcurveto
          71 -54 55 -71 -77 -62 -60 -75 vhcurveto
          -70 -1 54 -55 72 hhcurveto
          339 hmoveto
          76 62 170 callsubr
          -713 -1354 rmoveto
          110 callgsubr
          -82 callsubr
          -78 callsubr
          -75 callsubr
          -72 callsubr
          664 -22 callgsubr
          endchar
        </CharString>
        <CharString name="Hdotaccent">
          1636 1168 1527 rmoveto
          87 71 68 83 80 -62 62 -82 -88 -71 -68 -84 -79 62 -62 83 hvcurveto
          -544 -1337 rmoveto
          110 callgsubr
          -82 callsubr
          -78 callsubr
          -75 callsubr
          -72 callsubr
          664 -22 callgsubr
          endchar
        </CharString>
        <CharString name="Hdotbelow">
          -14 callsubr
          -82 callsubr
          -78 callsubr
          -75 callsubr
          -72 callsubr
          664 -22 callgsubr
          140 -324 -94 callsubr
          61 -62 83 50 callsubr
        </CharString>
        <CharString name="I">
          762 625 190 -88 callsubr
        </CharString>
        <CharString name="IAcyrillic">
          1492 333 987 rmoveto
          -150 92 -99 148 -39 vhcurveto
          -289 -374 -125 -158 -77 -83 -73 -30 rlinecurve
          -12 -54 464 0 480 640 rlineto
          4 4 0 5 hhcurveto
          91 hlineto
          -96 -450 -20 -94 -25 -20 -110 -19 rlinecurve
          -12 -57 664 0 12 57 rlineto
          -104 19 -18 19 20 95 226 1064 rcurveline
          20 94 24 20 115 19 12 57 rcurveline
          -691 hlineto
          -480 -249 -178 -279 hvcurveto
          411 -21 rmoveto
          215 134 182 257 12 vhcurveto
          66 2 -142 -669 -77 1 rlineto
          -151 5 -87 99 153 vvcurveto
          endchar
        </CharString>
        <CharString name="IJ">
          1532 625 190 rmoveto
          -9 callsubr
          105 -12 callsubr
          783 84 139 callsubr
        </CharString>
        <CharString name="IJacute">
          1532 782 1826 rmoveto
          -175 123 callsubr
          386 -1 -79 callgsubr
          -1276 -1635 rmoveto
          -9 callsubr
          105 -12 callsubr
          783 84 139 callsubr
        </CharString>
        <CharString name="IUcyrillic">
          2321 46 hmoveto
          664 hlineto
          12 57 rlineto
          -100 19 -18 20 19 94 109 511 rcurveline
          176 hlineto
          -2 -24 -1 -25 -25 vvcurveto
          -363 238 -287 420 496 346 360 480 363 -238 288 -420 -1 vhcurveto
          -445 -323 -289 -405 -63 hvcurveto
          -169 hlineto
          103 481 19 93 24 20 112 20 67 callsubr
          104 -20 18 -19 -20 -94 rlinecurve
          -226 -1064 -20 -93 -25 -20 -114 -20 rlinecurve
          1503 -5 rmoveto
          -154 -66 171 240 373 142 557 266 153 66 -172 -240 -373 -142 -556 -265 hvcurveto
          endchar
        </CharString>
        <CharString name="Iacute">
          762 782 1826 rmoveto
          -175 123 callsubr
          -524 -1636 -88 callsubr
        </CharString>
        <CharString name="Ibreve">
          762 745 1558 rmoveto
          215 108 149 192 112 callsubr
          -84 52 74 5 -1 6 2 -74 callgsubr
          166 hhcurveto
          -120 -1368 -88 callsubr
        </CharString>
        <CharString name="Icaron">
          762 1010 1837 -62 callgsubr
          -453 -1647 -88 callsubr
        </CharString>
        <CharString name="Icircumflex">
          762 477 1526 rmoveto
          268 134 -22 callsubr
          -26 callsubr
          212 -1336 -88 callsubr
        </CharString>
        <CharString name="Icyrillic">
          762 625 190 -88 callsubr
        </CharString>
        <CharString name="Idblgrave">
          762 566 1819 rmoveto
          -281 -5 hlineto
          30 callgsubr
          -264 -1332 -88 callsubr
        </CharString>
        <CharString name="Idieresis">
          762 563 1545 rmoveto
          -97 callgsubr
          -23 callsubr
          -277 -1355 -88 callsubr
        </CharString>
        <CharString name="Idieresisacute">
          762 1105 1872 rmoveto
          35 166 -693 -209 -11 -46 rlineto
          109 -231 68 callsubr
          12 -44 40 -65 hhcurveto
          -12 hlineto
          -65 -62 -40 -59 113 callgsubr
          12 hvcurveto
          59 13 -44 40 -65 hhcurveto
          -13 hlineto
          9 callsubr
          -12 44 -41 66 hhcurveto
          -250 -1362 -88 callsubr
        </CharString>
        <CharString name="Idotaccent">
          762 733 1529 rmoveto
          87 71 68 82 81 -77 callsubr
          -108 -1339 -88 callsubr
        </CharString>
        <CharString name="Idotbelow">
          762 625 190 rmoveto
          -9 callsubr
          105 -12 callsubr
          -293 -324 -94 callsubr
          61 -62 83 50 callsubr
        </CharString>
        <CharString name="Iecyrillic">
          1267 1462 1444 -98 callsubr
        </CharString>
        <CharString name="Igrave">
          762 747 1822 -45 callgsubr
          -186 -1333 -88 callsubr
        </CharString>
        <CharString name="Ihookabove">
          762 781 1853 150 callsubr
          -156 -1663 -88 callsubr
        </CharString>
        <CharString name="Iicyrillic">
          1649 46 hmoveto
          190 callsubr
        </CharString>
        <CharString name="Iinvertedbreve">
          762 753 1899 rmoveto
          -215 -108 -150 -191 88 callgsubr
          -1 -6 -1 175 callsubr
          -128 -1709 -88 callsubr
        </CharString>
        <CharString name="Iishortcyrillic">
          1649 1160 1566 rmoveto
          178 161 98 212 56 hvcurveto
          -62 18 rlineto
          -171 -47 -129 -91 -141 hhcurveto
          -34 -31 4 8 -27 hvcurveto
          61 12 50 54 70 vvcurveto
          85 -63 62 -82 -89 -62 -65 -90 -115 92 -91 169 vhcurveto
          -1114 -1566 rmoveto
          190 callsubr
        </CharString>
        <CharString name="Imacron">
          762 431 1590 rmoveto
          579 hlineto
          -44 callsubr
          158 -1567 -88 callsubr
        </CharString>
        <CharString name="Iocyrillic">
          1267 833 -47 callsubr
          -23 callgsubr
          -23 callsubr
          290 -100 -98 callsubr
        </CharString>
        <CharString name="Iogonek">
          762 345 -478 rmoveto
          96 85 46 81 35 hvcurveto
          11 55 rlineto
          -15 -13 -22 236 callsubr
          285 hlineto
          12 57 -105 20 -17 20 20 93 rlinecurve
          -9 callsubr
          rlineto
          105 -17 17 -23 -19 -93 -227 -1064 rcurveline
          -19 -92 -25 -21 -114 -20 -12 -57 rcurveline
          311 hlineto
          -165 -84 -73 -109 -106 vvcurveto
          -105 93 -74 132 vhcurveto
          endchar
        </CharString>
        <CharString name="Iotadieresisgreek">
          762 563 1545 rmoveto
          -97 callgsubr
          -23 callsubr
          -277 -1355 -88 callsubr
        </CharString>
        <CharString name="Iotagreek">
          762 625 190 -88 callsubr
        </CharString>
        <CharString name="Iotatonosgreek">
          1207 1069 190 rmoveto
          227 1064 19 92 24 21 116 20 rlinecurve
          11 57 -668 0 -12 -57 105 -17 17 -23 -20 -93 rlinecurve
          -226 -1064 -20 -48 callsubr
          668 0 12 57 -105 20 -17 20 20 93 rlinecurve
          -728 1254 114 callsubr
          endchar
        </CharString>
        <CharString name="Itilde">
          762 847 1558 rmoveto
          91 2 78 -95 callgsubr
          -26 -31 -42 109 callsubr
          80 callsubr
          -222 -1368 -88 callsubr
        </CharString>
        <CharString name="Itildebelow">
          762 625 190 rmoveto
          -9 callsubr
          105 -12 callsubr
          -182 -616 -43 callgsubr
          -31 -33 -46 hhcurveto
          -34 -1 -28 13 -37 23 -31 21 rcurveline
          32 -49 -19 callgsubr
          166 callsubr
        </CharString>
        <CharString name="J">
          771 646 274 15 callsubr
        </CharString>
        <CharString name="Jacute">
          771 773 -95 callsubr
          -493 -1551 15 callsubr
        </CharString>
        <CharString name="Jcircumflex">
          771 467 -79 callsubr
          -27 callsubr
          242 -1251 15 callsubr
        </CharString>
        <CharString name="Jecyrillic">
          771 646 274 15 callsubr
        </CharString>
        <CharString name="K">
          1480 626 190 -17 callsubr
        </CharString>
        <CharString name="Kaacutecyrillic">
          1479 1174 -95 callsubr
          -914 -1635 -17 callsubr
        </CharString>
        <CharString name="Kacute">
          1479 1174 -95 callsubr
          -914 -1635 -17 callsubr
        </CharString>
        <CharString name="Kacyrillic">
          1479 626 190 -17 callsubr
        </CharString>
        <CharString name="Kappagreek">
          1479 626 190 -17 callsubr
        </CharString>
        <CharString name="Kcaron">
          1479 1401 -2 callsubr
          -53 callsubr
          -844 -1646 -17 callsubr
        </CharString>
        <CharString name="Kcommaaccent">
          132 callsubr
          79 -650 rmoveto
          169 95 75 113 111 -87 63 -103 -86 -76 -38 -59 -39 hvcurveto
          -11 -45 rlineto
          6 17 26 5 26 hhcurveto
          50 43 -20 callgsubr
          119 callsubr
        </CharString>
        <CharString name="Kdotbelow">
          132 callsubr
          123 -324 -94 callsubr
          35 callsubr
        </CharString>
        <CharString name="Klinebelow">
          132 callsubr
          -201 -557 -84 callsubr
        </CharString>
        <CharString name="L">
          -8 callsubr
          endchar
        </CharString>
        <CharString name="Lacute">
          1227 767 -95 callsubr
          14 -1825 rmoveto
          -34 callsubr
          -16 callsubr
          endchar
        </CharString>
        <CharString name="Lambdagreek">
          1435 1301 265 rmoveto
          -132 1181 -289 0 -623 -1154 -104 -195 -38 -23 -99 -17 rlinecurve
          -12 -57 394 0 12 57 -130 22 -16 37 95 184 rlinecurve
          446 869 75 -901 11 -146 -23 -45 -134 -20 rlinecurve
          -12 -57 708 0 12 57 -86 15 -37 30 -18 163 rlinecurve
          endchar
        </CharString>
        <CharString name="Lcaron">
          1227 1153 1105 rmoveto
          348 429 -268 0 -141 -429 rlineto
          55 -1105 rmoveto
          -34 callsubr
          -16 callsubr
          endchar
        </CharString>
        <CharString name="Lcircumflexbelow">
          -8 callsubr
          261 -454 -28 callsubr
          7 callsubr
        </CharString>
        <CharString name="Lcommaaccent">
          -8 callsubr
          498 -460 -63 callsubr
          -35 callsubr
          -56 callgsubr
        </CharString>
        <CharString name="Ldot">
          -8 callsubr
          1027 667 rmoveto
          103 83 80 97 94 -73 73 -96 -103 -85 -79 -100 -92 74 -73 97 hvcurveto
          endchar
        </CharString>
        <CharString name="Ldotbelow">
          -8 callsubr
          541 -134 -94 callsubr
          -86 callsubr
        </CharString>
        <CharString name="Ldotbelowmacron">
          1227 416 1589 rmoveto
          578 hlineto
          -44 callsubr
          696 -1756 rmoveto
          -34 callsubr
          -16 callsubr
          541 -134 -94 callsubr
          -86 callsubr
        </CharString>
        <CharString name="Ljecyrillic">
          2141 24 156 rmoveto
          -105 74 -75 119 231 94 297 573 139 vhcurveto
          46 168 53 225 29 131 rrcurveto
          388 hlineto
          -251 -1181 rlineto
          -19 -91 -26 -21 -121 -20 -12 -57 rcurveline
          701 hlineto
          448 296 182 307 246 -229 129 -334 hvcurveto
          -154 hlineto
          83 391 20 91 26 20 124 21 rlinecurve
          12 57 -1228 216 callsubr
          hvcurveto
          1765 369 118 callgsubr
          729 70 -1 rlineto
          148 -5 89 -89 -176 vvcurveto
          endchar
        </CharString>
        <CharString name="Llinebelow">
          -8 callsubr
          218 -367 -84 callsubr
        </CharString>
        <CharString name="Lslash">
          1227 183 646 rmoveto
          140 34 -105 -490 -19 -48 callsubr
          1099 0 -34 callsubr
          152 722 303 74 15 69 -303 -75 84 399 20 92 25 20 119 21 rlinecurve
          12 57 -672 0 -13 -57 101 -19 18 -32 -24 -116 rlinecurve
          -100 -472 -138 -34 rlineto
          endchar
        </CharString>
        <CharString name="M">
          1856 949 1444 12 callsubr
        </CharString>
        <CharString name="Macute">
          1856 1333 79 callgsubr
          -751 -381 12 callsubr
        </CharString>
        <CharString name="Mdotaccent">
          1856 1284 -83 callsubr
          -77 callsubr
          -335 -84 12 callsubr
        </CharString>
        <CharString name="Mdotbelow">
          1856 949 1444 rmoveto
          -562 hlineto
          -12 -57 110 -22 21 -45 -33 -133 rlinecurve
          -209 -856 -53 -209 -29 -47 -124 -18 rlinecurve
          -12 -57 389 0 11 57 -117 18 -14 39 48 217 rlinecurve
          185 861 136 -1192 210 0 229 471 388 760 -184 -1045 -16 -88 -26 -22 -116 -19 rlinecurve
          -12 -57 665 0 12 57 -106 18 -14 21 16 90 rlinecurve
          191 1072 15 87 25 23 116 19 rlinecurve
          11 57 -577 0 -456 -966 rlineto
          -310 -612 71 callgsubr
        </CharString>
        <CharString name="Mugreek">
          1856 949 1444 12 callsubr
        </CharString>
        <CharString name="N">
          1475 -50 callsubr
          -30 callsubr
          endchar
        </CharString>
        <CharString name="Nacute">
          1475 1164 -95 callsubr
          -669 -381 -37 callsubr
          -30 callsubr
          endchar
        </CharString>
        <CharString name="Ncaron">
          1475 1391 -2 callsubr
          -53 callsubr
          -599 -392 -37 callsubr
          -30 callsubr
          endchar
        </CharString>
        <CharString name="Ncircumflexbelow">
          1475 -50 callsubr
          -30 callsubr
          -938 -861 -36 callgsubr
          -129 350 7 callsubr
        </CharString>
        <CharString name="Ncommaaccent">
          1475 -50 callsubr
          -30 callsubr
          -700 -867 33 callsubr
          4 callsubr
        </CharString>
        <CharString name="Ndotaccent">
          1475 1115 -83 callsubr
          -63 61 -81 -25 callsubr
          -254 -84 -37 callsubr
          -30 callsubr
          endchar
        </CharString>
        <CharString name="Ndotbelow">
          1475 -50 callsubr
          -30 callsubr
          -657 -541 -94 callsubr
          -86 callsubr
        </CharString>
        <CharString name="Ngrave">
          1475 1129 111 callsubr
          55 hlineto
          -331 -78 -37 callsubr
          -30 callsubr
          endchar
        </CharString>
        <CharString name="Njecyrillic">
          2263 628 190 rmoveto
          118 553 440 0 -118 -553 rlineto
          -19 -92 -25 -21 -114 -20 -12 -57 rcurveline
          693 hlineto
          448 296 171 289 234 -229 124 -335 hvcurveto
          -162 hlineto
          93 437 19 91 27 20 124 21 rlinecurve
          12 57 -679 0 -12 -57 103 -20 18 -19 -19 -94 rlinecurve
          -93 -436 -440 0 93 436 19 92 24 21 112 20 rlinecurve
          12 57 -664 0 -13 -57 104 -20 18 -19 -19 -94 rlinecurve
          -227 -1064 5 callsubr
          663 0 13 57 -100 19 -18 20 19 94 rlinecurve
          1283 305 rmoveto
          -238 -145 -176 -249 -12 vhcurveto
          -67 -2 145 683 78 -2 rlineto
          151 -4 87 -84 -165 vvcurveto
          endchar
        </CharString>
        <CharString name="Nlinebelow">
          1475 -50 callsubr
          -30 callsubr
          -980 -774 rmoveto
          597 hlineto
          37 177 rlineto
          -597 hlineto
          endchar
        </CharString>
        <CharString name="Ntilde">
          1475 1229 -53 callgsubr
          161 callsubr
          41 hhcurveto
          30 -63 callgsubr
          -368 -113 -37 callsubr
          -30 callsubr
          endchar
        </CharString>
        <CharString name="Nugreek">
          1475 -50 callsubr
          -30 callsubr
          endchar
        </CharString>
        <CharString name="O">
          0 callsubr
          53 callsubr
          -104 callsubr
        </CharString>
        <CharString name="OE">
          2027 229 643 rmoveto
          -420 296 -245 379 vhcurveto
          115 62 22 120 hhcurveto
          771 hlineto
          106 443 rlineto
          -51 hlineto
          -107 -264 -118 -93 -246 -14 rrcurveto
          -152 -7 136 639 134 -3 120 -7 21 -50 -4 -168 rlinecurve
          50 hlineto
          108 511 rlineto
          -49 hlineto
          -60 -155 -45 -50 -126 -7 rrcurveto
          -135 -4 129 608 137 -8 235 -14 39 -71 13 -257 rlinecurve
          51 hlineto
          71 415 rlineto
          -805 hlineto
          -127 -73 22 -139 hhcurveto
          -510 -346 -358 -465 hvcurveto
          418 -164 rmoveto
          397 182 515 309 59 48 -11 -16 29 vhcurveto
          -276 -1297 rlineto
          -10 -23 -26 -4 -27 hhcurveto
          -172 -103 142 284 hvcurveto
          endchar
        </CharString>
        <CharString name="Oacute">
          1652 1174 -95 callsubr
          -637 -1848 -101 callsubr
          -104 callsubr
        </CharString>
        <CharString name="Obreve">
          1652 1137 40 callsubr
          112 callsubr
          84 callsubr
          -234 -1580 -101 callsubr
          -104 callsubr
        </CharString>
        <CharString name="Ocaron">
          1652 1401 -2 callsubr
          -53 callsubr
          -567 -1859 -101 callsubr
          -104 callsubr
        </CharString>
        <CharString name="Ocircumflex">
          1652 869 1525 rmoveto
          267 134 198 -134 61 0 -135 -26 callsubr
          98 -1548 -101 callsubr
          -104 callsubr
        </CharString>
        <CharString name="Ocircumflexacute">
          1652 1492 1852 rmoveto
          35 165 -694 -208 -10 -47 rlineto
          -56 -263 30 callsubr
          -343 -190 rlineto
          125 -1570 -101 callsubr
          -104 callsubr
        </CharString>
        <CharString name="Ocircumflexdotbelow">
          1652 869 1525 rmoveto
          267 134 198 -134 61 0 -135 -26 callsubr
          98 -1548 -101 callsubr
          -4 hvcurveto
          -395 -61 callsubr
          -29 77 rmoveto
          -142 128 callsubr
          267 105 callsubr
          hvcurveto
          -67 -188 -94 callsubr
          35 callsubr
        </CharString>
        <CharString name="Ocircumflexgrave">
          1652 843 25 callgsubr
          -343 -190 rlineto
          125 -1570 -101 callsubr
          -104 callsubr
        </CharString>
        <CharString name="Ocircumflexhookabove">
          1652 1469 99 callsubr
          49 12 46 hhcurveto
          72 31 -27 -35 -7 hvcurveto
          -8 -38 -43 0 callgsubr
          -343 -190 rlineto
          125 -1570 -101 callsubr
          -104 callsubr
        </CharString>
        <CharString name="Ocircumflextilde">
          1652 1287 1798 58 callsubr
          70 callgsubr
          -48 11 -54 218 callsubr
          -343 -190 rlineto
          125 -1570 -101 callsubr
          -104 callsubr
        </CharString>
        <CharString name="Ocyrillic">
          0 callsubr
          53 callsubr
          -104 callsubr
        </CharString>
        <CharString name="Odblgrave">
          1652 957 -91 callgsubr
          268 -292 rlineto
          56 hlineto
          310 297 rmoveto
          -273 -5 hlineto
          191 -292 rlineto
          53 hlineto
          -378 -1544 -101 callsubr
          -104 callsubr
        </CharString>
        <CharString name="Odieresis">
          1652 955 -47 callsubr
          -96 callgsubr
          53 -56 73 167 callsubr
          -391 -1567 -101 callsubr
          -104 callsubr
        </CharString>
        <CharString name="Odieresismacron">
          1652 841 1844 rmoveto
          650 hlineto
          28 131 rlineto
          -650 hlineto
          67 -424 68 callsubr
          13 -45 40 -65 hhcurveto
          -12 hlineto
          9 callsubr
          -12 43 -41 66 hhcurveto
          54 callsubr
          59 12 -44 40 -65 hhcurveto
          -13 hlineto
          -65 -62 -40 56 callsubr
          -363 -1574 -101 callsubr
          -104 callsubr
        </CharString>
        <CharString name="Odotaccent">
          1652 1125 1528 rmoveto
          87 70 68 82 81 -62 61 -81 -25 callsubr
          -222 -1551 -101 callsubr
          -104 callsubr
        </CharString>
        <CharString name="Odotaccentmacron">
          1652 835 1817 49 callsubr
          265 -404 rmoveto
          68 53 44 62 -2 hvcurveto
          62 -1 -55 44 -69 hhcurveto
          -68 -53 -44 -62 1 hvcurveto
          -62 2 54 -44 70 hhcurveto
          -225 -1568 -101 callsubr
          -104 callsubr
        </CharString>
        <CharString name="Odotbelow">
          0 callsubr
          53 callsubr
          -4 hvcurveto
          -395 -61 callsubr
          -29 77 rmoveto
          -142 128 callsubr
          267 105 callsubr
          hvcurveto
          -67 -188 -94 callsubr
          35 callsubr
        </CharString>
        <CharString name="Ograve">
          1652 1139 111 callsubr
          55 hlineto
          -299 -1545 -101 callsubr
          -104 callsubr
        </CharString>
        <CharString name="Ohookabove">
          1652 1172 1852 rmoveto
          -102 -74 -40 -78 -46 hvcurveto
          -9 -83 callgsubr
          55 callgsubr
          -77 56 -101 vhcurveto
          -269 -1875 -101 callsubr
          -104 callsubr
        </CharString>
        <CharString name="Ohorn">
          1677 227 637 rmoveto
          -394 -61 callsubr
          -24 callsubr
          76 callsubr
        </CharString>
        <CharString name="Ohornacute">
          1677 1178 -95 callsubr
          -1317 -1188 rmoveto
          -394 -61 callsubr
          -24 callsubr
          76 callsubr
        </CharString>
        <CharString name="Ohorndotbelow">
          1677 227 637 rmoveto
          -394 -61 callsubr
          -24 callsubr
          136 callsubr
          422 -192 rmoveto
          402 170 543 266 105 callsubr
          -142 -83 122 269 vhcurveto
          185 -579 -94 callsubr
          61 -62 83 50 callsubr
        </CharString>
        <CharString name="Ohorngrave">
          1677 227 637 rmoveto
          -394 -61 callsubr
          -24 callsubr
          136 callsubr
          915 1184 -45 callgsubr
          -557 -1077 rmoveto
          402 170 543 266 105 callsubr
          -142 -83 122 269 vhcurveto
          endchar
        </CharString>
        <CharString name="Ohornhookabove">
          1677 1176 163 callsubr
          -94 -45 hvcurveto
          58 hlineto
          188 -28 callgsubr
          -949 -1215 rmoveto
          -394 -61 callsubr
          -24 callsubr
          76 callsubr
        </CharString>
        <CharString name="Ohorntilde">
          1677 1243 154 callsubr
          25 -12 -20 33 hvcurveto
          28 -19 rlineto
          -28 44 46 -20 56 hhcurveto
          -1016 -920 rmoveto
          -394 -61 callsubr
          -24 callsubr
          76 callsubr
        </CharString>
        <CharString name="Ohungarumlaut">
          1652 969 1821 11 callgsubr
          -741 -1844 -101 callsubr
          -104 callsubr
        </CharString>
        <CharString name="Oinvertedbreve">
          1652 1145 1898 239 callsubr
          18 94 117 callsubr
          -1 -5 hvcurveto
          56 hlineto
          10 27 6 33 34 vvcurveto
          133 -1 -100 114 -167 hhcurveto
          -242 -1921 -101 callsubr
          -104 callsubr
        </CharString>
        <CharString name="Omacron">
          14 callgsubr
          53 callsubr
          -104 callsubr
        </CharString>
        <CharString name="Omacronacute">
          1652 1496 60 callsubr
          -42 -197 129 callsubr
          89 -1740 -101 callsubr
          -104 callsubr
        </CharString>
        <CharString name="Omacrongrave">
          1652 847 59 callsubr
          -96 -452 129 callsubr
          89 -1740 -101 callsubr
          -104 callsubr
        </CharString>
        <CharString name="Omegagreek">
          1724 127 89 callgsubr
          27 382 159 215 223 0 194 -1 103 -161 -30 -312 -24 -319 -119 62 callgsubr
          -103 -162 -146 -56 -399 -3 13 62 rcurveline
          418 58 269 262 22 306 22 304 -240 262 -471 -13 callgsubr
          endchar
        </CharString>
        <CharString name="Omegatonosgreek">
          1969 371 89 callgsubr
          28 382 158 215 223 0 195 -1 102 -161 -30 -312 -23 -319 -120 62 callgsubr
          -102 -162 -147 -56 -399 -3 13 62 rcurveline
          419 58 268 262 22 306 22 304 -239 262 -472 -13 callgsubr
          -72 1016 114 callsubr
          endchar
        </CharString>
        <CharString name="Omicrongreek">
          0 callsubr
          53 callsubr
          -104 callsubr
        </CharString>
        <CharString name="Omicrontonosgreek">
          1898 1149 -23 -101 callsubr
          -5 hvcurveto
          -395 -3 274 -266 406 hhcurveto
          -808 1467 114 callsubr
          444 -1390 -75 callgsubr
        </CharString>
        <CharString name="Oogonek">
          0 callsubr
          366 463 98 callsubr
          -4 hvcurveto
          194 callsubr
        </CharString>
        <CharString name="Oogonekmacron">
          14 callgsubr
          366 463 98 callsubr
          -4 hvcurveto
          194 callsubr
        </CharString>
        <CharString name="Oslash">
          0 callsubr
          179 callsubr
        </CharString>
        <CharString name="Oslashacute">
          1652 1174 -95 callsubr
          -637 -1848 rmoveto
          496 334 179 callsubr
        </CharString>
        <CharString name="Otilde">
          1652 1239 1557 rmoveto
          90 2 79 -95 callgsubr
          161 callsubr
          40 hhcurveto
          31 -63 callgsubr
          -336 -1580 -101 callsubr
          -104 callsubr
        </CharString>
        <CharString name="Otildeacute">
          1652 1496 120 callgsubr
          408 -222 rmoveto
          125 88 47 callsubr
          -55 hhcurveto
          -31 55 callsubr
          -49 -49 12 -54 hhcurveto
          -123 -89 -70 -128 -24 hvcurveto
          67 93 callsubr
          53 hhcurveto
          -332 -1583 -101 callsubr
          -104 callsubr
        </CharString>
        <CharString name="Otildedieresis">
          1652 991 115 callsubr
          -45 40 -65 hhcurveto
          -12 hlineto
          -66 -61 -40 -60 113 callgsubr
          13 hvcurveto
          60 12 -44 40 -65 hhcurveto
          -13 hlineto
          -65 -62 -40 -60 -13 hvcurveto
          -59 -12 44 -41 66 hhcurveto
          -86 -249 rmoveto
          125 88 47 callsubr
          -55 hhcurveto
          -31 55 callsubr
          -49 -49 12 -54 hhcurveto
          -123 -89 -70 -128 -24 hvcurveto
          67 93 callsubr
          53 hhcurveto
          -332 -1583 -101 callsubr
          -104 callsubr
        </CharString>
        <CharString name="Otildemacron">
          1652 840 1844 rmoveto
          651 hlineto
          28 131 rlineto
          -650 hlineto
          366 -415 rmoveto
          125 88 47 callsubr
          -55 hhcurveto
          -31 55 callsubr
          -49 -49 12 -54 hhcurveto
          -123 -89 -70 -128 -24 hvcurveto
          67 93 callsubr
          53 hhcurveto
          -332 -1583 -101 callsubr
          -104 callsubr
        </CharString>
        <CharString name="P">
          1443 731 hmoveto
          13 callsubr
        </CharString>
        <CharString name="Pacute">
          1443 1105 1826 -79 callgsubr
          -740 -1826 rmoveto
          13 callsubr
        </CharString>
        <CharString name="Pdotaccent">
          1443 1056 1528 rmoveto
          87 71 68 83 80 -63 62 -81 -88 -71 -67 -85 -78 62 -63 83 hvcurveto
          -325 -1528 rmoveto
          13 callsubr
        </CharString>
        <CharString name="Pecyrillic">
          1634 1489 190 rmoveto
          227 1064 19 94 25 20 114 19 rlinecurve
          12 57 -1533 0 -12 -57 104 -20 18 -19 -19 -94 rlinecurve
          -227 -1064 -19 -93 -25 -20 -115 -20 rlinecurve
          -12 -57 664 0 12 57 -100 19 -18 20 20 94 rlinecurve
          251 1180 458 0 -251 -1180 -20 -94 -24 -20 -82 callsubr
          664 0 12 57 -103 19 -19 19 20 95 rlinecurve
          endchar
        </CharString>
        <CharString name="Phigreek">
          1945 222 716 rmoveto
          -31 -302 213 -194 439 -16 rrcurveto
          -4 -20 -19 -90 -30 -28 -112 -19 rlinecurve
          -10 -50 610 0 11 50 rlineto
          -104 19 -19 28 19 90 4 20 rcurveline
          524 14 284 197 32 319 32 304 -232 185 -422 15 rrcurveto
          4 19 19 90 30 28 112 19 rlinecurve
          10 50 -611 0 -10 -50 104 -18 18 -29 -19 -90 rlinecurve
          -4 -19 -502 -12 -303 -189 -33 -321 rlinecurve
          412 -10 rmoveto
          24 245 133 214 256 11 rrcurveto
          -190 -905 -177 30 -70 178 24 227 rlinecurve
          984 30 rmoveto
          -25 -248 -126 -208 -265 -13 rrcurveto
          191 905 173 -32 74 -181 -22 -223 rlinecurve
          endchar
        </CharString>
        <CharString name="Pigreek">
          1637 1497 194 rmoveto
          224 1055 19 91 21 27 123 20 rlinecurve
          12 57 -1541 0 -12 -57 112 -21 11 -25 -20 -91 rlinecurve
          -224 -1056 -19 -91 -22 -25 -121 -22 rlinecurve
          -12 -57 669 0 12 57 -109 21 -10 27 20 90 rlinecurve
          249 1178 460 0 -249 -1178 -19 -91 -20 -25 -118 -21 rlinecurve
          -12 -57 667 0 13 57 -114 20 -9 26 19 91 rlinecurve
          endchar
        </CharString>
        <CharString name="Psigreek">
          1974 640 hmoveto
          669 hlineto
          12 57 rlineto
          -120 20 -21 27 19 90 68 318 rcurveline
          378 14 199 114 140 381 69 191 rcurveline
          46 126 36 33 91 6 12 57 rcurveline
          5 -33 -73 7 -65 hhcurveto
          -210 -112 -62 -234 -84 hvcurveto
          -68 -190 -94 -259 -66 -95 -151 -21 rlinecurve
          141 665 20 91 29 27 106 19 rlinecurve
          12 57 -620 0 -12 -57 rlineto
          98 -19 18 -27 -20 -91 -141 -665 rcurveline
          -142 22 -25 94 17 259 12 187 rcurveline
          234 15 -86 65 -212 hhcurveto
          -65 -75 -7 -5 -35 hvcurveto
          -12 -57 88 -6 24 -33 -7 -126 rlinecurve
          -12 -191 -22 -379 147 -116 375 -14 rlinecurve
          -68 -318 -19 -90 -32 -28 -127 -19 rlinecurve
          endchar
        </CharString>
        <CharString name="Q">
          1686 1316 -410 rmoveto
          126 117 39 59 74 hvcurveto
          10 53 rlineto
          -125 -16 -90 35 -154 153 -104 103 rcurveline
          345 105 218 311 374 vvcurveto
          98 callsubr
          -4 vhcurveto
          -4 -327 188 -239 296 -72 162 -176 rcurveline
          -181 168 125 -53 154 hhcurveto
          -442 464 -75 callgsubr
        </CharString>
        <CharString name="R">
          1486 1056 hmoveto
          11 callsubr
          endchar
        </CharString>
        <CharString name="Racute">
          1486 1051 -95 callsubr
          -361 -1825 rmoveto
          11 callsubr
          endchar
        </CharString>
        <CharString name="Rcaron">
          1486 1278 -2 callsubr
          -53 callsubr
          -291 -1836 rmoveto
          11 callsubr
          endchar
        </CharString>
        <CharString name="Rcommaaccent">
          1486 1056 hmoveto
          11 callsubr
          -408 -1553 33 callsubr
          4 callsubr
        </CharString>
        <CharString name="Rdblgrave">
          1486 834 -91 callgsubr
          49 callgsubr
          53 hlineto
          -102 -1521 rmoveto
          11 callsubr
          endchar
        </CharString>
        <CharString name="Rdotaccent">
          1486 1001 116 callsubr
          -87 -71 -67 -84 -79 61 -62 83 hvcurveto
          55 -1528 rmoveto
          11 callsubr
          endchar
        </CharString>
        <CharString name="Rdotbelow">
          1486 1056 hmoveto
          11 callsubr
          -365 -1227 -94 callsubr
          -86 callsubr
        </CharString>
        <CharString name="Rdotbelowmacron">
          1486 699 -45 callsubr
          -44 callsubr
          321 -1756 rmoveto
          11 callsubr
          -365 -1227 -94 callsubr
          -86 callsubr
        </CharString>
        <CharString name="Rhogreek">
          1443 731 hmoveto
          13 callsubr
        </CharString>
        <CharString name="Rinvertedbreve">
          1486 1022 1898 239 callsubr
          18 94 117 callsubr
          -1 -5 hvcurveto
          55 -73 callgsubr
          34 -1898 rmoveto
          11 callsubr
          endchar
        </CharString>
        <CharString name="Rlinebelow">
          1486 1056 hmoveto
          11 callsubr
          -689 -1460 rmoveto
          598 hlineto
          37 177 rlineto
          -597 hlineto
          endchar
        </CharString>
        <CharString name="S">
          1193 595 -24 70 callsubr
          endchar
        </CharString>
        <CharString name="Sacute">
          1193 1003 -95 callsubr
          -774 -1849 70 callsubr
          endchar
        </CharString>
        <CharString name="Sacutedotaccent">
          1193 1005 1772 rmoveto
          68 53 44 62 -1 hvcurveto
          63 -2 -55 -2 callgsubr
          -9 -1556 70 callsubr
          endchar
        </CharString>
        <CharString name="Scaron">
          1193 1230 -2 callsubr
          -53 callsubr
          -704 -1860 70 callsubr
          endchar
        </CharString>
        <CharString name="Scarondotaccent">
          1193 1009 1794 rmoveto
          69 53 44 62 -2 hvcurveto
          62 -1 57 callgsubr
          -350 -79 -316 232 callsubr
          -712 -1763 70 callsubr
          endchar
        </CharString>
        <CharString name="Scedilla">
          1193 510 -461 176 callsubr
          62 65 rlineto
          354 257 189 285 163 -76 122 -172 118 hvcurveto
          -103 75 rlineto
          -120 84 -47 70 96 vvcurveto
          123 95 87 140 174 105 -142 -277 12 vhcurveto
          51 hlineto
          66 391 rlineto
          56 -81 -161 52 -194 hhcurveto
          -379 -221 -197 -267 -168 74 -111 170 -117 hvcurveto
          104 -75 rlineto
          125 -88 46 -73 -103 vvcurveto
          -135 -109 -80 -140 -175 -152 130 296 2 vhcurveto
          -52 hlineto
          -67 -411 84 -45 157 -39 165 -8 rlinecurve
          -134 -142 153 callsubr
        </CharString>
        <CharString name="Schwa">
          1551 792 -24 rmoveto
          468 337 346 460 429 -296 255 -415 -154 -185 -32 -63 -112 hvcurveto
          -86 -408 rlineto
          54 hlineto
          289 117 185 136 164 hhcurveto
          211 89 -188 -303 -63 -2 -61 -5 -59 hvcurveto
          -916 hlineto
          -24 -57 -16 -78 -79 vvcurveto
          -244 134 -280 452 vhcurveto
          -215 391 rmoveto
          100 15 108 24 68 vhcurveto
          539 3 rlineto
          -357 -44 -138 -239 -180 hhcurveto
          -154 -62 141 176 hvcurveto
          endchar
        </CharString>
        <CharString name="Scircumflex">
          1193 697 -79 callsubr
          -27 callsubr
          -39 -1549 70 callsubr
          endchar
        </CharString>
        <CharString name="Scommaaccent">
          1193 595 -24 70 callsubr
          -120 -436 33 callsubr
          4 callsubr
        </CharString>
        <CharString name="Sdotaccent">
          1193 953 116 callsubr
          -87 -72 -67 -84 -79 62 -62 83 hvcurveto
          -358 -1552 70 callsubr
          endchar
        </CharString>
        <CharString name="Sdotbelow">
          1193 595 -24 70 callsubr
          -77 -110 -94 callsubr
          -86 callsubr
        </CharString>
        <CharString name="Sdotbelowdotaccent">
          1193 953 116 callsubr
          -87 -72 -67 -84 -79 62 -62 83 hvcurveto
          -358 -1552 70 callsubr
          -77 -110 -94 callsubr
          -86 callsubr
        </CharString>
        <CharString name="Shacyrillic">
          2413 443 1254 rmoveto
          -226 -1064 -20 -94 -24 -20 -115 -19 rlinecurve
          -12 -57 2310 0 12 57 -103 20 -18 19 19 94 rlinecurve
          227 1064 19 93 25 20 114 20 67 callsubr
          100 125 callsubr
          221 callsubr
          251 1180 20 68 callgsubr
        </CharString>
        <CharString name="Shchacyrillic">
          2423 165 callsubr
          1940 hlineto
          247 43 -73 -269 13 hvcurveto
          57 hlineto
          75 416 -179 0 251 1180 19 93 25 20 114 20 67 callsubr
          100 125 callsubr
          221 callsubr
          252 1180 19 68 callgsubr
        </CharString>
        <CharString name="Sigmagreek">
          105 callgsubr
          -55 394 -724 -644 -609 -11 -56 1176 0 127 534 rlineto
          -61 hlineto
          -211 -93 -88 -51 -285 hhcurveto
          -416 hlineto
          634 592 3 18 -274 496 257 -4 298 -5 43 -76 7 -232 rlinecurve
          52 hlineto
          endchar
        </CharString>
        <CharString name="Softsigncyrillic">
          1412 198 callsubr
          -423 36 59 callgsubr
        </CharString>
        <CharString name="T">
          -39 callsubr
          endchar
        </CharString>
        <CharString name="Taugreek">
          -39 callsubr
          endchar
        </CharString>
        <CharString name="Tbar">
          1365 336 708 rmoveto
          293 hlineto
          -111 -520 -18 -89 -27 -22 -128 -20 rlinecurve
          -12 -57 124 callsubr
          91 rlinecurve
          111 520 295 0 13 64 -295 0 129 607 32 -3 197 -19 64 -90 4 -238 rlinecurve
          52 hlineto
          69 415 -1219 0 -102 -415 rlineto
          52 hlineto
          46 callsubr
          -129 -607 rlineto
          -293 hlineto
          endchar
        </CharString>
        <CharString name="Tcaron">
          1365 1314 -62 callsubr
          215 -392 rmoveto
          -1219 hlineto
          -102 -415 rlineto
          52 hlineto
          46 callsubr
          101 callsubr
          124 callsubr
          92 callsubr
          endchar
        </CharString>
        <CharString name="Tcedilla">
          1365 623 -461 rmoveto
          -65 callgsubr
          -6 -1 -5 hhcurveto
          79 83 1 6 302 0 12 57 -118 21 -20 19 20 92 callsubr
          69 415 -1219 0 -102 -415 rlineto
          52 hlineto
          46 callsubr
          101 callsubr
          331 0 -153 -165 -10 -70 callgsubr
          -60 -49 -42 17 20 -26 -17 callgsubr
          endchar
        </CharString>
        <CharString name="Tcircumflexbelow">
          -39 callsubr
          -1178 -1483 -36 callgsubr
          -58 callgsubr
        </CharString>
        <CharString name="Tcommaaccent">
          -39 callsubr
          -940 -1489 33 callsubr
          4 callsubr
        </CharString>
        <CharString name="Tdotaccent">
          1365 1037 -83 callsubr
          -77 callsubr
          560 -84 rmoveto
          -1219 hlineto
          -102 -415 rlineto
          52 hlineto
          46 callsubr
          101 callsubr
          124 callsubr
          92 callsubr
          endchar
        </CharString>
        <CharString name="Tdotbelow">
          -39 callsubr
          -897 -1163 -94 callsubr
          -86 callsubr
        </CharString>
        <CharString name="Tecyrillic">
          -39 callsubr
          endchar
        </CharString>
        <CharString name="Thetagreek">
          1730 929 -24 rmoveto
          479 363 337 436 33 hvcurveto
          418 34 -266 301 -466 hhcurveto
          -480 -1 -360 -339 -34 -436 rrcurveto
          -416 -34 265 -300 466 hhcurveto
          4 68 rmoveto
          -217 -102 231 407 47 hvcurveto
          429 47 128 289 266 hhcurveto
          219 101 -229 -411 -47 hvcurveto
          -428 -48 -129 -288 -265 hhcurveto
          -208 432 rmoveto
          44 hlineto
          141 48 56 66 95 hhcurveto
          80 hlineto
          94 29 -66 -141 -12 hvcurveto
          43 hlineto
          106 496 rlineto
          -44 hlineto
          -141 -49 -56 -63 -94 hhcurveto
          -79 hlineto
          -94 -29 63 141 11 hvcurveto
          -44 hlineto
          endchar
        </CharString>
        <CharString name="Thorn">
          1441 208 189 rmoveto
          -19 -92 -25 -20 -114 -21 rrcurveto
          -12 -57 667 0 12 57 rlineto
          -102 20 -19 19 19 94 30 140 rcurveline
          165 hlineto
          379 321 146 295 215 -169 162 -403 hvcurveto
          -119 hlineto
          23 107 19 92 26 20 113 21 rlinecurve
          13 56 -668 0 -12 -56 103 -21 18 -19 -20 -93 rlinecurve
          653 -436 rmoveto
          -220 -129 -188 -233 -13 vhcurveto
          -66 -3 146 687 60 -2 rlineto
          147 -7 75 -113 -141 vvcurveto
          endchar
        </CharString>
        <CharString name="Tlinebelow">
          -39 callsubr
          -1220 -1396 rmoveto
          597 hlineto
          37 177 rlineto
          -597 hlineto
          endchar
        </CharString>
        <CharString name="Tsecyrillic">
          1646 165 callsubr
          1162 hlineto
          249 44 -73 -269 13 hvcurveto
          57 hlineto
          76 416 -183 0 251 1180 -26 callgsubr
          -664 0 -12 -57 100 125 callsubr
          -458 0 251 1180 20 68 callgsubr
        </CharString>
        <CharString name="Tshecyrillic">
          1871 1599 1444 rmoveto
          -1221 hlineto
          -102 -415 rlineto
          52 hlineto
          215 callsubr
          504 rcurveline
          21 59 58 14 81 hhcurveto
          157 60 -97 -181 -39 hvcurveto
          -97 -450 539 0 12 57 rlineto
          -104 18 -16 20 18 92 41 190 rcurveline
          307 63 -171 147 -308 hhcurveto
          -146 -103 -26 -34 -88 hvcurveto
          81 callgsubr
          endchar
        </CharString>
        <CharString name="U">
          1497 794 -24 -92 callsubr
        </CharString>
        <CharString name="Uacute">
          1497 1218 -95 callsubr
          -790 -1849 -92 callsubr
        </CharString>
        <CharString name="Ubreve">
          1497 1180 40 callsubr
          112 callsubr
          -84 52 74 5 0 6 1 -74 callgsubr
          166 hhcurveto
          -386 -1581 -92 callsubr
        </CharString>
        <CharString name="Ubrevecyrillic">
          1467 1163 90 callgsubr
          50 54 70 vvcurveto
          85 -63 62 -81 -90 -62 -65 -90 -115 92 -91 170 vhcurveto
          -926 -1408 187 callsubr
        </CharString>
        <CharString name="Ucaron">
          1497 1445 -62 callsubr
          -719 -1860 -92 callsubr
        </CharString>
        <CharString name="Ucircumflex">
          1497 912 -79 callsubr
          -22 callsubr
          -26 callsubr
          -54 -1549 -92 callsubr
        </CharString>
        <CharString name="Ucircumflexbelow">
          72 callsubr
          -314 -430 -28 callsubr
          7 callsubr
        </CharString>
        <CharString name="Ucyrillic">
          1467 237 158 187 callsubr
        </CharString>
        <CharString name="Udblgrave">
          1497 1001 -91 callgsubr
          30 callgsubr
          -530 -1545 -92 callsubr
        </CharString>
        <CharString name="Udieresis">
          1497 998 -47 callsubr
          hvcurveto
          71 1 -54 55 -71 hhcurveto
          -77 -62 -60 -75 hvcurveto
          -70 -1 54 -56 72 hhcurveto
          -23 callsubr
          -543 -1568 -92 callsubr
        </CharString>
        <CharString name="Udieresisacute">
          1497 1540 120 callgsubr
          109 -231 68 callsubr
          13 -45 40 -65 hhcurveto
          -12 hlineto
          9 callsubr
          -103 callgsubr
          59 51 callsubr
          56 callsubr
          -516 -1575 -92 callsubr
        </CharString>
        <CharString name="Udieresisbelow">
          72 callsubr
          -252 -401 rmoveto
          89 73 -72 callgsubr
          64 -62 86 157 callsubr
        </CharString>
        <CharString name="Udieresiscaron">
          1497 1573 2025 rmoveto
          -341 -77 -309 77 -10 52 callgsubr
          12 hvcurveto
          59 13 -45 40 -65 hhcurveto
          -12 hlineto
          9 callsubr
          -103 callgsubr
          59 51 callsubr
          56 callsubr
          -516 -1575 -92 callsubr
        </CharString>
        <CharString name="Udieresisgrave">
          1497 891 1871 rmoveto
          630 -89 10 46 -606 209 rlineto
          55 -486 68 callsubr
          13 -45 40 -65 hhcurveto
          -12 hlineto
          9 callsubr
          -103 callgsubr
          59 51 callsubr
          56 callsubr
          -516 -1575 -92 callsubr
        </CharString>
        <CharString name="Udieresismacron">
          1497 885 1844 rmoveto
          651 hlineto
          27 131 rlineto
          -650 hlineto
          67 -424 68 callsubr
          13 -45 40 -65 hhcurveto
          -12 hlineto
          9 callsubr
          -103 callgsubr
          59 51 callsubr
          56 callsubr
          -516 -1575 -92 callsubr
        </CharString>
        <CharString name="Udotbelow">
          72 callsubr
          -34 -110 -94 callsubr
          -86 callsubr
        </CharString>
        <CharString name="Ugrave">
          1497 1182 111 callsubr
          56 hlineto
          -452 -1546 -92 callsubr
        </CharString>
        <CharString name="Uhookabove">
          1497 1216 1852 150 callsubr
          -422 -1876 -92 callsubr
        </CharString>
        <CharString name="Uhorn">
          1653 297 653 96 callsubr
        </CharString>
        <CharString name="Uhornacute">
          1653 1231 -95 callsubr
          -1300 -1172 96 callsubr
        </CharString>
        <CharString name="Uhorndotbelow">
          26 callgsubr
          283 -1386 -94 callsubr
          -86 callsubr
        </CharString>
        <CharString name="Uhorngrave">
          26 callgsubr
          771 569 -45 callgsubr
          endchar
        </CharString>
        <CharString name="Uhornhookabove">
          1653 1229 1852 150 callsubr
          -932 -1199 96 callsubr
        </CharString>
        <CharString name="Uhorntilde">
          1653 1295 -53 callgsubr
          -26 -31 -42 109 callsubr
          80 callsubr
          -998 -904 96 callsubr
        </CharString>
        <CharString name="Uhungarumlaut">
          1497 1012 1821 rmoveto
          -81 -298 56 0 314 293 rlineto
          5 vlineto
          82 hmoveto
          -154 -298 63 0 395 293 rlineto
          5 vlineto
          -893 -1845 -92 callsubr
        </CharString>
        <CharString name="Uinvertedbreve">
          1497 1188 1898 rmoveto
          -215 -108 -150 -191 88 callgsubr
          0 -6 -2 175 callsubr
          -394 -1922 -92 callsubr
        </CharString>
        <CharString name="Umacron">
          1497 866 -45 callsubr
          -44 callsubr
          -108 -1780 -92 callsubr
        </CharString>
        <CharString name="Umacrondieresis">
          1497 1035 115 callsubr
          -44 8 callsubr
          -60 -84 callgsubr
          54 callsubr
          60 51 callsubr
          -60 -13 hvcurveto
          -59 -12 45 -41 65 hhcurveto
          107 callgsubr
          -87 -1741 -92 callsubr
        </CharString>
        <CharString name="Uogonek">
          1497 774 -478 rmoveto
          96 83 46 81 36 hvcurveto
          11 55 rlineto
          -15 -13 -22 -10 -26 hhcurveto
          -68 -51 83 108 40 12 39 21 29 hvcurveto
          317 24 185 218 73 327 rrcurveto
          132 590 44 192 23 37 121 21 rlinecurve
          12 57 -380 0 -13 -57 rlineto
          118 -24 14 -36 -36 -190 -113 -580 rcurveline
          -269 -54 -147 -163 -214 hhcurveto
          -195 -122 130 331 70 hvcurveto
          141 666 20 93 24 20 117 22 rlinecurve
          12 57 -663 0 -12 -57 98 -21 17 -20 -20 -94 rlinecurve
          -127 -599 -103 -487 263 -181 314 -8 rlinecurve
          -153 -80 -68 -99 -97 vvcurveto
          -105 94 -74 132 vhcurveto
          endchar
        </CharString>
        <CharString name="Upsilondieresisgreek">
          1388 972 -47 callsubr
          -96 callgsubr
          54 -56 72 167 callsubr
          -850 -358 -74 callsubr
        </CharString>
        <CharString name="Upsilongreek">
          1388 461 1186 -74 callsubr
        </CharString>
        <CharString name="Upsilontonosgreek">
          1860 933 15 callgsubr
          -116 20 -18 144 callsubr
          20 37 111 17 rlinecurve
          12 57 -694 0 -12 -57 84 -16 29 -29 48 -156 rlinecurve
          -592 258 114 callsubr
          endchar
        </CharString>
        <CharString name="Uring">
          1497 911 1715 rmoveto
          -107 112 -66 138 54 callgsubr
          195 -36 rmoveto
          93 42 82 55 36 21 -28 -56 -94 -41 -81 -55 -36 -22 27 57 vhcurveto
          -312 -1703 -92 callsubr
        </CharString>
        <CharString name="Utilde">
          1497 1282 -53 callgsubr
          -26 -31 -42 109 callsubr
          80 callsubr
          -488 -1581 -92 callsubr
        </CharString>
        <CharString name="Utildeacute">
          1497 1540 120 callgsubr
          409 -222 rmoveto
          124 88 47 callsubr
          -54 hhcurveto
          -32 55 callsubr
          -49 -49 12 -53 hhcurveto
          -124 -89 -70 -128 -23 hvcurveto
          66 93 callsubr
          54 hhcurveto
          -486 -1584 -92 callsubr
        </CharString>
        <CharString name="Utildebelow">
          72 callsubr
          77 -402 -15 callgsubr
          60 hlineto
          91 18 31 -93 callgsubr
          -27 callgsubr
        </CharString>
        <CharString name="V">
          224 callsubr
          endchar
        </CharString>
        <CharString name="Vdotbelow">
          224 callsubr
          255 -1307 -94 callsubr
          -86 callsubr
        </CharString>
        <CharString name="Vecyrillic">
          1472 1492 449 74 callsubr
        </CharString>
        <CharString name="Vtilde">
          1441 1259 154 callsubr
          26 -12 -49 callgsubr
          -824 -384 rmoveto
          197 callsubr
          endchar
        </CharString>
        <CharString name="W">
          2212 411 1174 -18 callsubr
        </CharString>
        <CharString name="Wacute">
          2212 1642 -95 callsubr
          -1597 -651 -18 callsubr
        </CharString>
        <CharString name="Wcircumflex">
          2212 1336 -79 callsubr
          -27 callsubr
          -862 -351 -18 callsubr
        </CharString>
        <CharString name="Wdieresis">
          2212 1423 1544 rmoveto
          76 61 61 74 1 hvcurveto
          71 -48 callgsubr
          73 hhcurveto
          338 hmoveto
          76 62 61 74 -23 callgsubr
          -1350 -370 -18 callsubr
        </CharString>
        <CharString name="Wdotaccent">
          2212 1592 -83 callsubr
          -77 callsubr
          -1181 -354 -18 callsubr
        </CharString>
        <CharString name="Wdotbelow">
          2212 411 1174 rmoveto
          115 -1181 267 0 530 1085 90 -1085 279 0 571 1141 105 209 47 28 96 16 rlinecurve
          12 57 -395 0 -12 -57 116 -13 13 -44 -86 -189 rlinecurve
          -366 -801 -57 828 -12 171 18 29 111 19 rlinecurve
          13 57 -655 0 -12 -57 111 -15 11 -82 -64 -139 rlinecurve
          -367 -810 -56 829 -9 154 23 45 118 18 rlinecurve
          12 57 -682 0 -13 -57 81 -14 31 -30 16 -169 rlinecurve
          643 -1308 -94 callsubr
          -86 callsubr
        </CharString>
        <CharString name="Wgrave">
          2212 1606 111 callsubr
          56 hlineto
          -1259 -348 -18 callsubr
        </CharString>
        <CharString name="X">
          1383 333 302 10 callsubr
        </CharString>
        <CharString name="Xdieresis">
          1383 982 -47 callsubr
          77 callgsubr
          339 hmoveto
          76 62 61 74 -96 callgsubr
          54 -56 72 hvcurveto
          -988 -1242 10 callsubr
        </CharString>
        <CharString name="Xdotaccent">
          1383 1152 -83 callsubr
          -77 callsubr
          -819 -1226 10 callsubr
        </CharString>
        <CharString name="Xigreek">
          1349 1571 1444 rmoveto
          -1173 hlineto
          -124 -473 rlineto
          55 hlineto
          177 83 79 37 259 hhcurveto
          355 hlineto
          260 63 -37 -177 8 hvcurveto
          54 hlineto
          -746 -281 rmoveto
          159 hlineto
          156 32 -54 -151 -8 hvcurveto
          52 hlineto
          102 482 rlineto
          -51 hlineto
          -150 -58 -54 -53 -155 hhcurveto
          -159 hlineto
          -156 -33 53 150 7 hvcurveto
          -51 hlineto
          -102 -482 rlineto
          51 hlineto
          151 57 56 54 155 hhcurveto
          546 -690 rmoveto
          131 534 rlineto
          -55 hlineto
          -215 -95 -85 -48 -286 hhcurveto
          -333 hlineto
          -286 -63 48 215 -4 hvcurveto
          -54 hlineto
          -95 -534 rlineto
          endchar
        </CharString>
        <CharString name="Xigreek.1">
          1364 53 hmoveto
          1248 hlineto
          132 534 rlineto
          -56 hlineto
          -215 -94 -85 -48 -286 hhcurveto
          -149 hlineto
          89 419 rlineto
          63 hlineto
          156 31 -54 -151 -7 hvcurveto
          51 hlineto
          102 482 rlineto
          -51 hlineto
          -150 -57 -55 -53 -154 hhcurveto
          -63 hlineto
          88 421 rlineto
          161 hlineto
          260 63 -37 -177 8 hvcurveto
          54 hlineto
          81 473 -1196 0 -124 -473 rlineto
          54 hlineto
          177 84 79 37 260 hhcurveto
          162 hlineto
          -89 -421 rlineto
          -65 hlineto
          -155 -33 53 150 6 hvcurveto
          -51 hlineto
          -101 -482 rlineto
          51 hlineto
          151 56 56 54 156 hhcurveto
          64 hlineto
          -88 -419 rlineto
          -154 hlineto
          -285 -63 48 215 -4 hvcurveto
          -55 hlineto
          endchar
        </CharString>
        <CharString name="Y">
          1388 461 1186 -74 callsubr
        </CharString>
        <CharString name="Yacute">
          1388 1191 -95 callsubr
          -1096 -639 -74 callsubr
        </CharString>
        <CharString name="Ycircumflex">
          1388 886 1525 rmoveto
          267 134 198 -134 61 0 -135 -26 callsubr
          -361 -339 -74 callsubr
        </CharString>
        <CharString name="Ydieresis">
          1388 972 -47 callsubr
          -96 callgsubr
          54 -56 72 167 callsubr
          -850 -358 -74 callsubr
        </CharString>
        <CharString name="Ydotaccent">
          1388 1142 -83 callsubr
          -63 61 -81 -25 callsubr
          -681 -342 -74 callsubr
        </CharString>
        <CharString name="Ydotbelow">
          1388 461 15 callgsubr
          -115 20 -19 144 callsubr
          51 callgsubr
          201 -1320 -94 callsubr
          35 callsubr
        </CharString>
        <CharString name="Yericyrillic">
          2125 198 callsubr
          506 -299 rmoveto
          226 1064 20 92 24 21 115 20 rlinecurve
          12 57 -668 0 -12 -57 104 -12 callsubr
          -929 335 59 callgsubr
        </CharString>
        <CharString name="Ygrave">
          1388 1156 111 callsubr
          55 hlineto
          -758 -336 -74 callsubr
        </CharString>
        <CharString name="Yhookabove">
          1388 1189 1852 rmoveto
          -102 -73 -40 -78 -47 hvcurveto
          -9 -83 callgsubr
          55 callgsubr
          -76 56 -102 vhcurveto
          -728 -666 -74 callsubr
        </CharString>
        <CharString name="Yicyrillic">
          762 563 1545 rmoveto
          -97 callgsubr
          -23 callsubr
          -277 -1355 -88 callsubr
        </CharString>
        <CharString name="Ymacron">
          1388 840 -45 callsubr
          35 167 rlineto
          -579 hlineto
          -414 -570 -74 callsubr
        </CharString>
        <CharString name="Ytilde">
          1388 1256 1557 rmoveto
          90 2 79 -95 callgsubr
          161 callsubr
          41 hhcurveto
          30 -63 callgsubr
          -795 -371 -74 callsubr
        </CharString>
        <CharString name="Z">
          1278 1203 hmoveto
          -81 callsubr
          18 callsubr
          endchar
        </CharString>
        <CharString name="Zacute">
          1278 1043 79 callgsubr
          -207 -1825 rmoveto
          -81 callsubr
          18 callsubr
          endchar
        </CharString>
        <CharString name="Zcaron">
          1278 1271 -62 callsubr
          -136 -1836 rmoveto
          -81 callsubr
          18 callsubr
          endchar
        </CharString>
        <CharString name="Zcircumflex">
          1278 738 1525 rmoveto
          267 134 198 -134 62 0 -136 -26 callsubr
          529 -1525 rmoveto
          -81 callsubr
          18 callsubr
          endchar
        </CharString>
        <CharString name="Zdotaccent">
          1278 994 -83 callsubr
          -77 callsubr
          209 -1528 rmoveto
          -81 callsubr
          18 callsubr
          endchar
        </CharString>
        <CharString name="Zdotbelow">
          1278 1203 hmoveto
          -81 callsubr
          18 callsubr
          548 -134 -94 callsubr
          61 -62 83 50 callsubr
        </CharString>
        <CharString name="Zecyrillic">
          1345 578 -24 rmoveto
          437 344 175 313 196 -193 93 -246 13 hvcurveto
          301 29 225 122 231 vvcurveto
          215 -208 105 -347 -187 -156 -41 -59 -100 vhcurveto
          -87 -363 rlineto
          53 hlineto
          250 103 157 136 174 hhcurveto
          119 66 -100 -134 -201 -119 -172 -236 hvcurveto
          -122 hlineto
          -16 -73 rlineto
          122 hlineto
          179 87 -102 -156 -198 -132 -201 -228 -1 hvcurveto
          -191 -100 165 219 -6 hvcurveto
          -53 hlineto
          -52 -352 rlineto
          -60 83 144 -49 185 hhcurveto
          endchar
        </CharString>
        <CharString name="Zetagreek">
          1278 1203 hmoveto
          -81 callsubr
          18 callsubr
          endchar
        </CharString>
        <CharString name="Zhecyrillic">
          2209 475 hmoveto
          505 694 74 1 -108 -505 -19 -93 -25 -19 -117 -21 rlinecurve
          -12 -57 674 0 11 57 -105 20 -19 19 20 94 rlinecurve
          107 505 74 -1 212 -694 468 0 12 55 -50 26 -30 31 -70 216 rlinecurve
          -208 678 201 175 156 136 74 47 129 23 rlinecurve
          12 57 -446 0 -12 -57 114 -24 5 -46 -97 -96 rlinecurve
          -454 -452 -75 -1 104 486 19 93 26 20 116 20 rlinecurve
          12 57 -673 0 -12 -57 106 -17 18 -22 -20 -94 rlinecurve
          -103 -487 -73 1 -273 455 -62 104 21 40 118 20 rlinecurve
          12 57 -447 0 -11 -57 124 -24 60 -38 100 -141 rlinecurve
          125 -169 -486 -671 rlineto
          -165 -225 -44 -39 -63 -25 -11 -55 rcurveline
          endchar
        </CharString>
        <CharString name="Zlinebelow">
          1278 1203 hmoveto
          -81 callsubr
          18 callsubr
          224 -367 -84 callsubr
        </CharString>
        <CharString name="a">
          1253 -10 callsubr
          -107 callsubr
          -103 callsubr
        </CharString>
        <CharString name="a.dnum">
          763 110 192 rmoveto
          -128 1 69 -75 103 hhcurveto
          88 73 51 93 27 hvcurveto
          -2 -9 -2 -18 -10 vvcurveto
          -71 -2 41 -34 73 hhcurveto
          83 71 37 47 35 hvcurveto
          9 38 rlineto
          -8 -13 -17 -6 -19 hhcurveto
          -26 -13 17 44 9 hvcurveto
          80 374 -149 0 -80 -66 rlineto
          40 -14 -51 37 -80 hhcurveto
          -174 -123 -152 -201 3 hvcurveto
          234 -23 rmoveto
          114 -1 40 187 94 hhcurveto
          27 18 -13 -17 6 hvcurveto
          -56 -259 rlineto
          -60 -15 -29 -34 -35 hhcurveto
          -29 -18 22 60 -2 hvcurveto
          endchar
        </CharString>
        <CharString name="a.numr">
          763 256 881 rmoveto
          -128 2 69 -75 103 hhcurveto
          87 73 52 93 28 hvcurveto
          -3 -9 -2 -18 -11 vvcurveto
          -71 -2 41 -33 73 hhcurveto
          84 70 37 47 36 hvcurveto
          8 38 rlineto
          -9 -13 -16 -5 -19 238 callsubr
          -66 rlineto
          40 -13 -52 38 -79 hhcurveto
          -174 -123 -152 -202 2 hvcurveto
          235 -22 rmoveto
          113 -2 41 188 93 hhcurveto
          27 19 -13 -17 5 hvcurveto
          -55 -260 rlineto
          -60 -15 -30 -33 -34 hhcurveto
          -29 -18 21 61 -2 hvcurveto
          endchar
        </CharString>
        <CharString name="a.sups">
          763 293 1056 rmoveto
          -128 1 70 -75 102 hhcurveto
          88 73 51 93 28 hvcurveto
          -3 -9 -2 -18 -10 vvcurveto
          -71 -2 41 -34 73 hhcurveto
          84 70 37 47 35 hvcurveto
          9 38 rlineto
          -8 -13 -17 -6 -18 238 callsubr
          -65 rlineto
          40 -13 -52 37 -79 hhcurveto
          -175 -122 -152 -201 2 hvcurveto
          235 -23 rmoveto
          113 -2 40 188 94 hhcurveto
          27 19 -13 -17 5 hvcurveto
          -55 -259 rlineto
          -60 -15 -30 -34 -34 hhcurveto
          -29 -19 22 60 -1 hvcurveto
          endchar
        </CharString>
        <CharString name="aacute">
          1253 946 -89 callsubr
          -76 callsubr
          -1180 -1137 -106 callsubr
          -107 callsubr
          -103 callsubr
        </CharString>
        <CharString name="abreve">
          1253 894 -41 callsubr
          -727 -776 -106 callsubr
          -107 callsubr
          -103 callsubr
        </CharString>
        <CharString name="abreveacute">
          1253 1250 31 callsubr
          253 -301 -57 callsubr
          -65 hlineto
          -171 -42 105 -103 197 hhcurveto
          -680 -734 -106 callsubr
          -107 callsubr
          -103 callsubr
        </CharString>
        <CharString name="abrevecyrillic">
          1253 850 122 callsubr
          171 callsubr
          74 7 61 173 callsubr
          -683 -784 -106 callsubr
          -107 callsubr
          -103 callsubr
        </CharString>
        <CharString name="abrevedotbelow">
          1253 894 -41 callsubr
          -727 -776 -106 callsubr
          -107 callsubr
          14 callsubr
          77 -750 -69 callsubr
          118 callsubr
        </CharString>
        <CharString name="abrevegrave">
          1253 616 -5 callsubr
          190 -601 -57 callsubr
          -65 hlineto
          -171 -42 105 -103 197 hhcurveto
          -680 -734 -106 callsubr
          -107 callsubr
          -103 callsubr
        </CharString>
        <CharString name="abrevehookabove">
          1253 956 222 callsubr
          27 50 99 callgsubr
          42 -33 165 24 89 51 20 93 rlinecurve
          90 19 -72 59 -114 hhcurveto
          -109 -566 -57 callsubr
          -65 hlineto
          -171 -42 105 -103 197 hhcurveto
          -680 -734 -106 callsubr
          -107 callsubr
          -103 callsubr
        </CharString>
        <CharString name="abrevetilde">
          1253 1044 -1 callsubr
          20 callsubr
          -197 -331 -57 callsubr
          -65 hlineto
          -171 -42 105 -103 197 hhcurveto
          -680 -734 -106 callsubr
          -107 callsubr
          -103 callsubr
        </CharString>
        <CharString name="acaron">
          1253 1193 -71 callsubr
          -68 36 callsubr
          -1097 -1162 -106 callsubr
          -107 callsubr
          -103 callsubr
        </CharString>
        <CharString name="acircumflex">
          1253 594 -64 callsubr
          108 callsubr
          -355 -752 -106 callsubr
          -107 callsubr
          -103 callsubr
        </CharString>
        <CharString name="acircumflexacute">
          1253 1250 31 callsubr
          -65 -303 rmoveto
          337 94 -49 callsubr
          -43 0 -342 -225 rlineto
          -375 -789 -106 callsubr
          -107 callsubr
          -103 callsubr
        </CharString>
        <CharString name="acircumflexdotbelow">
          1253 594 -64 callsubr
          108 callsubr
          -355 -752 -106 callsubr
          -107 callsubr
          14 callsubr
          77 -750 -69 callsubr
          118 callsubr
        </CharString>
        <CharString name="acircumflexgrave">
          1253 616 -5 callsubr
          -88 callgsubr
          -49 callsubr
          -43 0 -342 -225 rlineto
          -375 -789 -106 callsubr
          -107 callsubr
          -103 callsubr
        </CharString>
        <CharString name="acircumflexhookabove">
          1253 1210 -107 callgsubr
          -9 -42 rlineto
          17 27 50 99 callgsubr
          156 callsubr
          -43 0 -342 -225 rlineto
          -375 -789 -106 callsubr
          -107 callsubr
          -103 callsubr
        </CharString>
        <CharString name="acircumflextilde">
          1253 1044 -1 callsubr
          20 callsubr
          -89 callgsubr
          -49 callsubr
          -43 0 -342 -225 rlineto
          -375 -789 -106 callsubr
          -107 callsubr
          -103 callsubr
        </CharString>
        <CharString name="acute">
          1024 844 -89 callsubr
          -76 callsubr
          endchar
        </CharString>
        <CharString name="acutecmb">
          0 332 -89 callsubr
          -76 callsubr
          endchar
        </CharString>
        <CharString name="acutecmb.short">
          0 307 1388 -79 callgsubr
          endchar
        </CharString>
        <CharString name="acutedotaccentcmb">
          0 318 90 callsubr
          254 -171 -92 callgsubr
          -55 rlineto
          endchar
        </CharString>
        <CharString name="acutedotaccentcmb.short">
          0 402 1772 rmoveto
          68 53 44 62 -1 hvcurveto
          63 -1 -56 -2 callgsubr
          endchar
        </CharString>
        <CharString name="acyrillic">
          1253 -10 callsubr
          -107 callsubr
          -103 callsubr
        </CharString>
        <CharString name="adblgrave">
          1253 681 81 callsubr
          -905 -746 -106 callsubr
          -107 callsubr
          -103 callsubr
        </CharString>
        <CharString name="adieresis">
          1253 663 -54 callsubr
          -942 -789 -106 callsubr
          -107 callsubr
          -103 callsubr
        </CharString>
        <CharString name="adieresismacron">
          1253 603 -67 callgsubr
          38 -487 rmoveto
          69 67 49 68 14 hvcurveto
          70 15 -46 -94 callgsubr
          -15 hvcurveto
          -68 -14 45 -49 69 hhcurveto
          372 hmoveto
          69 64 callsubr
          49 -69 hhcurveto
          -13 hlineto
          -68 -66 -49 -70 -16 hvcurveto
          -68 -14 46 -49 68 hhcurveto
          -854 -750 -106 callsubr
          -107 callsubr
          -103 callsubr
        </CharString>
        <CharString name="adotaccent">
          1253 885 6 callsubr
          -74 73 -96 -103 -81 callgsubr
          -718 -778 -106 callsubr
          -107 callsubr
          -103 callsubr
        </CharString>
        <CharString name="adotbelow">
          1253 -10 callsubr
          -107 callsubr
          14 callsubr
          77 -750 -69 callsubr
          118 callsubr
        </CharString>
        <CharString name="adotmacron">
          1253 601 225 callsubr
          -58 -52 -73 -73 57 -52 73 hvcurveto
          -709 -746 -106 callsubr
          -107 callsubr
          -103 callsubr
        </CharString>
        <CharString name="ae">
          1575 239 776 130 callsubr
        </CharString>
        <CharString name="aeacute">
          1575 1122 -89 callsubr
          -76 callsubr
          -1284 -721 130 callsubr
        </CharString>
        <CharString name="aemacron">
          1575 723 -66 callsubr
          -526 -618 130 callsubr
        </CharString>
        <CharString name="agrave">
          1253 906 -29 callsubr
          -802 -746 -106 callsubr
          -107 callsubr
          -103 callsubr
        </CharString>
        <CharString name="ahookabove">
          1253 947 1513 rmoveto
          -117 -85 -49 -95 -54 hvcurveto
          -10 -49 rlineto
          24 29 48 15 50 hhcurveto
          73 41 -31 -55 -54 -47 -56 -106 -53 hvcurveto
          67 hlineto
          217 55 -105 callgsubr
          -780 -1153 -106 callsubr
          -107 callsubr
          -103 callsubr
        </CharString>
        <CharString name="ainvertedbreve">
          1253 901 168 callsubr
          163 hhcurveto
          132 90 -60 -84 -6 0 -7 -2 -6 hvcurveto
          64 hlineto
          12 234 callsubr
          -734 -1139 -106 callsubr
          -107 callsubr
          -103 callsubr
        </CharString>
        <CharString name="alphagreek">
          1321 484 -20 181 callsubr
        </CharString>
        <CharString name="alphatonosgreek">
          1321 914 -90 callgsubr
          -765 -1533 181 callsubr
        </CharString>
        <CharString name="amacron">
          1253 547 -66 callsubr
          -422 -1034 -106 callsubr
          -107 callsubr
          -103 callsubr
        </CharString>
        <CharString name="ampersand">
          1554 100 339 rmoveto
          -203 156 -160 260 167 137 70 154 152 vhcurveto
          159 -200 489 0 9 40 -79 49 -75 69 -103 131 rlinecurve
          -146 189 144 169 141 160 51 37 106 14 rlinecurve
          11 57 -407 0 -11 -57 115 -14 26 -46 -93 -122 rlinecurve
          -118 -154 -259 333 -6 8 -6 7 -5 8 rlinecurve
          238 58 146 99 148 vvcurveto
          167 -143 118 -277 -298 -180 -164 -218 vhcurveto
          -1 -106 41 -93 84 -119 rrcurveto
          -269 -65 -156 -147 -217 vvcurveto
          637 889 rmoveto
          106 63 57 83 90 46 -73 -118 -111 -53 -99 -89 -63 vhcurveto
          -103 140 -37 80 81 vvcurveto
          -295 -729 rmoveto
          102 55 73 64 44 vhcurveto
          15 -20 16 -21 18 -22 324 -407 rcurveline
          -40 -60 -59 -17 -65 hhcurveto
          -174 -134 131 177 hvcurveto
          endchar
        </CharString>
        <CharString name="anoteleiagreek">
          538 437 656 -16 callgsubr
          102 callsubr
        </CharString>
        <CharString name="aogonek">
          1253 -10 callsubr
          -107 callsubr
          25 25 2 4 23 hvcurveto
          -213 -120 -77 -89 -1 -103 rrcurveto
          -96 1 80 -60 118 hhcurveto
          106 90 52 75 43 hvcurveto
          12 55 rlineto
          -15 -20 -26 -9 -28 hhcurveto
          -43 -33 28 58 97 85 117 153 146 hvcurveto
          12 57 rlineto
          -19 -25 -33 -11 -32 hhcurveto
          -48 -23 33 76 17 hvcurveto
          159 745 -239 0 -139 -119 rlineto
          71 -22 -87 68 -139 hhcurveto
          -313 -217 -297 -370 hvcurveto
          383 -45 rmoveto
          231 1 84 364 177 hhcurveto
          54 36 -30 -36 10 hvcurveto
          -106 -500 rlineto
          -131 -33 -63 -75 -67 hhcurveto
          -59 -34 49 128 hvcurveto
          endchar
        </CharString>
        <CharString name="approxequal">
          1264 1061 798 rmoveto
          -167 -125 226 -202 hhcurveto
          -162 -123 -114 -237 -36 hvcurveto
          97 hlineto
          160 32 84 71 108 169 125 -227 200 hhcurveto
          156 123 114 233 37 hvcurveto
          -97 hlineto
          -155 -33 -85 -71 -101 hhcurveto
          -113 -533 rmoveto
          -167 -125 227 -203 hhcurveto
          -161 -123 -115 -236 -36 hvcurveto
          97 hlineto
          160 32 84 71 108 169 126 -227 199 hhcurveto
          155 125 114 233 36 hvcurveto
          -97 hlineto
          -156 -32 -86 -71 -101 hhcurveto
          endchar
        </CharString>
        <CharString name="aring">
          1253 591 -42 callgsubr
          204 124 92 120 118 -125 73 -153 -205 -123 -92 22 callgsubr
          -641 -904 -106 callsubr
          -107 callsubr
          -103 callsubr
        </CharString>
        <CharString name="aringacute">
          1253 1250 1503 -92 callgsubr
          208 callsubr
          23 hlineto
          47 21 -35 -52 -11 hvcurveto
          -52 -11 -36 -35 -46 hhcurveto
          -704 -792 -106 callsubr
          -107 callsubr
          -103 callsubr
        </CharString>
        <CharString name="aringbelow">
          1253 -10 callsubr
          -107 callsubr
          14 callsubr
          -222 -604 rmoveto
          -108 2 82 callgsubr
          -2 -126 67 -153 hhcurveto
          -204 -124 -86 -108 3 hvcurveto
          218 -38 rmoveto
          95 -2 45 69 callgsubr
          -2 hvcurveto
          endchar
        </CharString>
        <CharString name="asciicircum">
          1282 895 1444 rmoveto
          -548 -591 71 -65 518 538 291 -537 81 63 -296 592 rlineto
          endchar
        </CharString>
        <CharString name="asciitilde">
          1264 1002 522 rmoveto
          -166 -125 227 -203 hhcurveto
          -162 -123 -116 -236 -35 hvcurveto
          97 hlineto
          160 32 83 71 109 169 125 -227 200 hhcurveto
          155 124 115 232 36 hvcurveto
          -96 hlineto
          -155 -33 -86 -71 -101 hhcurveto
          endchar
        </CharString>
        <CharString name="asterisk">
          920 749 1474 rmoveto
          -67 -43 -47 -86 -21 0 -22 6 -28 hvcurveto
          35 -187 14 0 117 183 rlineto
          27 42 9 36 30 vvcurveto
          60 -41 40 -57 vhcurveto
          -303 -134 rmoveto
          -63 -44 -48 -57 -53 35 -45 102 -27 hvcurveto
          184 -45 8 11 -83 161 rlineto
          77 -40 -53 26 -46 hhcurveto
          545 -56 rmoveto
          -48 -38 -20 -59 -63 hvcurveto
          -137 -130 5 -12 163 4 rlineto
          160 3 57 53 66 vvcurveto
          55 -39 40 -60 vhcurveto
          -613 -455 rmoveto
          48 36 21 58 65 hvcurveto
          136 132 -5 12 -162 -6 rlineto
          -160 -5 -57 -51 -66 vvcurveto
          -55 39 -40 60 vhcurveto
          652 48 rmoveto
          53 -35 48 -102 25 vhcurveto
          -184 46 -7 -11 82 -162 rlineto
          -78 39 55 -25 45 hhcurveto
          62 45 48 56 hvcurveto
          -410 -239 rmoveto
          67 43 48 86 20 -1 23 -5 27 hvcurveto
          -35 188 -14 0 -117 -183 rlineto
          -28 -43 -8 -36 -29 vvcurveto
          -60 41 -41 57 vhcurveto
          endchar
        </CharString>
        <CharString name="at">
          2112 1065 -433 rmoveto
          166 182 36 89 115 hvcurveto
          -2 59 rlineto
          -88 -135 -157 -21 -155 hhcurveto
          -430 -359 298 484 599 469 357 485 485 333 -289 -422 -338 -212 -210 -188 -92 -33 55 106 22 hvcurveto
          151 703 -175 0 -171 -129 rlineto
          90 -31 -76 58 -116 hhcurveto
          -277 -185 -300 -316 -216 95 -123 154 133 119 92 178 70 hvcurveto
          -4 -24 -3 -27 -17 vvcurveto
          -134 -6 85 -107 206 hhcurveto
          415 205 339 332 458 -380 316 -525 -539 -501 -394 -638 -528 400 -329 462 1 hvcurveto
          -42 819 rmoveto
          188 90 322 142 52 35 -40 -77 -6 vhcurveto
          -78 -365 rlineto
          -110 -24 -61 -83 -69 hhcurveto
          -60 -21 63 102 hvcurveto
          endchar
        </CharString>
        <CharString name="atilde">
          1253 1017 91 callsubr
          -34 hvcurveto
          65 88 callsubr
          -850 -789 -106 callsubr
          -107 callsubr
          -103 callsubr
        </CharString>
        <CharString name="austral">
          1370 84 395 rmoveto
          220 hlineto
          -63 -120 -87 -171 -44 -32 -97 -15 rlinecurve
          -12 -57 371 0 13 57 -103 15 -28 35 79 161 rlinecurve
          63 127 442 0 12 -147 9 -129 -21 -45 -122 -17 rlinecurve
          -11 -57 661 0 13 57 -82 13 -31 31 -14 146 rlinecurve
          -15 148 217 0 10 47 -232 0 -24 228 305 0 10 47 -320 0 -74 729 -276 0 -381 -729 -319 0 -10 -47 305 0 -119 -228 rlineto
          -235 hlineto
          465 275 rmoveto
          220 439 34 -439 rlineto
          -393 -275 rmoveto
          115 228 282 0 18 -228 rlineto
          endchar
        </CharString>
        <CharString name="austral.tnum">
          1315 103 439 rmoveto
          -11 -48 202 0 -58 -116 -84 -171 -43 -32 -87 -15 rlinecurve
          -11 -57 356 0 12 57 -102 16 -23 32 77 163 rlinecurve
          58 123 403 0 8 -143 6 -130 -19 -43 -120 -18 rlinecurve
          -13 -57 650 0 13 57 -73 12 -28 32 -12 146 rlinecurve
          -11 144 195 0 11 48 -210 0 -18 226 276 0 10 49 -290 0 -58 732 -287 0 -366 -732 -295 0 -10 -49 280 0 -113 -226 rlineto
          226 275 rmoveto
          209 436 23 -436 rlineto
          -363 -275 rmoveto
          108 226 257 0 12 -226 rlineto
          endchar
        </CharString>
        <CharString name="b">
          -60 callgsubr
          endchar
        </CharString>
        <CharString name="backslash">
          829 546 -291 rmoveto
          118 hlineto
          -104 1882 rlineto
          -118 hlineto
          endchar
        </CharString>
        <CharString name="baht">
          1425 1438 463 rmoveto
          161 -133 141 -281 20 vhcurveto
          254 11 233 92 212 vvcurveto
          1 172 -147 115 -311 23 rrcurveto
          47 221 -47 0 -47 -218 rlineto
          1 -23 -24 0 -25 hhcurveto
          -581 hlineto
          -11 -57 rlineto
          104 -20 17 -20 -19 -92 -211 -1006 rcurveline
          -19 -90 -25 -22 -114 -20 -13 -57 rcurveline
          581 hlineto
          23 23 0 1 23 hvcurveto
          -47 -220 48 0 47 222 rlineto
          411 23 266 147 260 vvcurveto
          -584 886 rmoveto
          50 -2 rlineto
          32 -2 28 -5 26 -10 -112 -525 rcurveline
          -3 -18 -19 -1 -20 hhcurveto
          -84 -1 rlineto
          392 298 rmoveto
          -136 -70 -108 -131 -38 vhcurveto
          105 493 rlineto
          63 -42 33 -73 -96 vvcurveto
          -405 -363 rmoveto
          81 -2 rlineto
          20 -1 18 -3 18 -4 -132 -622 rcurveline
          -25 -4 -27 -2 -28 -1 -62 -1 rcurveline
          447 368 rmoveto
          -158 -73 -143 -183 -48 vhcurveto
          127 595 rlineto
          83 -40 46 -88 -118 vvcurveto
          endchar
        </CharString>
        <CharString name="baht.tnum">
          4 callgsubr
          160 -138 111 -289 22 vhcurveto
          46 221 -47 0 -47 -218 rlineto
          1 -20 -21 0 -22 hhcurveto
          -538 hlineto
          -12 -57 rlineto
          92 -17 16 -23 -19 -92 -211 -1006 rcurveline
          -19 -90 -20 -24 -106 -18 -13 -57 rcurveline
          557 hlineto
          14 14 0 14 hhcurveto
          -46 -219 47 0 47 221 rlineto
          392 19 256 147 265 vvcurveto
          -541 886 rmoveto
          45 -2 rlineto
          28 -2 26 -5 23 -8 -112 -528 rcurveline
          -2 -15 -16 -1 -17 hhcurveto
          -79 -1 rlineto
          373 318 rmoveto
          -142 -68 -119 -128 -41 vhcurveto
          105 495 rlineto
          60 -38 31 -66 -89 vvcurveto
          -386 -383 rmoveto
          70 -2 rlineto
          19 -1 18 -3 16 -4 -133 -624 rcurveline
          -2 -16 -17 -2 -18 hhcurveto
          -76 -2 rlineto
          428 395 rmoveto
          -168 -80 -160 -171 -50 vhcurveto
          127 597 rlineto
          81 -39 43 -81 -99 vvcurveto
          endchar
        </CharString>
        <CharString name="bar">
          829 294 -291 rmoveto
          118 hlineto
          400 1882 rlineto
          -118 hlineto
          endchar
        </CharString>
        <CharString name="bdotaccent">
          1252 701 1576 rmoveto
          102 84 79 98 94 -73 73 -97 -103 -84 -79 -100 -92 73 -73 98 hvcurveto
          598 -929 191 callsubr
          endchar
        </CharString>
        <CharString name="bdotbelow">
          -60 callgsubr
          -353 -1126 39 callsubr
          127 callsubr
        </CharString>
        <CharString name="becyrillic">
          1247 1280 538 rmoveto
          260 -181 193 -277 -230 -183 -131 -196 -88 vhcurveto
          -2 19 -1 20 22 vvcurveto
          3 261 107 142 433 23 6 1 106 5 8 1 311 14 113 103 58 262 rrcurveto
          -57 hlineto
          -25 -50 -88 -17 -197 -11 rrcurveto
          -569 -27 -339 -405 -538 vvcurveto
          -325 185 -185 292 369 246 244 315 vhcurveto
          -372 163 rmoveto
          -244 -87 -404 -150 -74 -37 72 147 245 86 403 151 73 38 -72 -147 vhcurveto
          endchar
        </CharString>
        <CharString name="betagreek">
          1276 18 -460 rmoveto
          401 hlineto
          103 590 rlineto
          -87 48 112 -63 138 hhcurveto
          264 198 177 246 31 hvcurveto
          36 252 -127 203 -270 21 226 42 124 112 17 155 rrcurveto
          194 23 -141 135 -286 hhcurveto
          -325 -182 -170 -382 -83 hvcurveto
          412 206 rmoveto
          177 39 37 91 92 hhcurveto
          72 39 -70 -168 -22 hvcurveto
          -19 -174 -68 -106 -139 -7 rrcurveto
          -51 -249 159 -9 80 -94 -15 -192 rlinecurve
          -185 -14 -106 -87 -117 hhcurveto
          -73 -63 37 59 -34 hvcurveto
          48 247 133 634 22 96 rrcurveto
          endchar
        </CharString>
        <CharString name="bitcoin">
          1425 1438 463 rmoveto
          161 -132 141 -282 20 vhcurveto
          254 11 233 92 212 vvcurveto
          1 149 -111 106 -232 41 rrcurveto
          50 235 -48 0 -49 -228 rlineto
          7 -56 -62 4 -69 hhcurveto
          -24 hlineto
          46 217 -47 0 -46 -217 -510 0 -11 -57 104 -20 17 -20 -19 -92 rlinecurve
          -211 -1006 -19 -90 -25 -22 -114 -20 rlinecurve
          -13 -57 507 0 -47 -218 48 0 47 218 rlineto
          26 hlineto
          66 63 3 6 59 hvcurveto
          -48 -227 48 0 49 232 rlineto
          342 43 215 142 234 vvcurveto
          -309 635 rmoveto
          -169 -109 -126 -199 -2 vhcurveto
          -84 -1 117 549 50 -2 rlineto
          147 -7 78 -94 -148 vvcurveto
          -95 -635 rmoveto
          -191 -106 -168 -279 -8 vhcurveto
          -62 -1 137 640 81 -2 rlineto
          146 -7 83 -104 -159 vvcurveto
          endchar
        </CharString>
        <CharString name="bitcoin.tnum">
          4 callgsubr
          139 -104 102 -217 39 vhcurveto
          50 234 -48 0 -49 -227 rlineto
          7 -51 -56 3 -63 hhcurveto
          -41 hlineto
          46 217 -48 0 -46 -217 -449 0 -12 -57 92 -17 16 -23 -19 -92 rlinecurve
          -211 -1006 -19 -90 -20 -24 -106 -18 rlinecurve
          -13 -57 447 0 -47 -218 48 0 47 218 rlineto
          62 hlineto
          53 51 2 4 48 hvcurveto
          -47 -224 48 0 48 229 rlineto
          329 40 208 143 239 vvcurveto
          -285 655 rmoveto
          -175 -104 -140 -190 -2 vhcurveto
          -79 -1 117 549 45 -2 rlineto
          137 -11 74 -82 -136 vvcurveto
          -95 -628 rmoveto
          -198 -112 -187 -240 -8 vhcurveto
          -76 -2 137 640 70 -2 rlineto
          144 -9 77 -101 -133 vvcurveto
          endchar
        </CharString>
        <CharString name="blinebelow">
          -60 callgsubr
          -665 -1058 -84 callsubr
        </CharString>
</ttFont>
